<svg xmlns="http://www.w3.org/2000/svg" viewBox="0 0 5611.99 492.22"><defs><style>.cls-1,.cls-4{fill:#002866;}.cls-2,.cls-8{fill:#efb31e;}.cls-3,.cls-4,.cls-8{isolation:isolate;font-family:FranklinGothic-HeavyItalic, Franklin Gothic Heavy;font-weight:800;font-style:italic;}.cls-3{font-size:422.85px;}.cls-4,.cls-8{font-size:325.88px;}.cls-5{letter-spacing:-0.04em;}.cls-6{letter-spacing:-0.02em;}.cls-7{letter-spacing:0em;}.cls-9{letter-spacing:-0.05em;}</style></defs><g id="Layer_2" data-name="Layer 2"><g id="Layer_1-2" data-name="Layer 1"><path class="cls-1" d="M311.55,197.78c22.3,0,44.6-.1,66.9.1,3.6,0,6.1-1.9,8-5.3a24,24,0,0,0,2.9-11.6,30.46,30.46,0,0,0-1.9-12.4c-1.1-2.9-2.5-5.6-4.7-7.4a4.9,4.9,0,0,0-3.2-1.2H253.85c-2.4,0-2.3,0-1.6-2.7q6.15-24.15,12.4-48.2c3.2-12.3,6.4-24.7,9.5-37,.6-2.2,1.1-4.3,1.6-6.5.2-.7.5-1.1,1.1-1.1h1q57.75,0,115.5.1a92.14,92.14,0,0,1,12.8,1.1,87.34,87.34,0,0,1,15.9,3.7A69.88,69.88,0,0,1,442,79.68a65.79,65.79,0,0,1,14.5,14.8,86,86,0,0,1,11.2,21.5,123.18,123.18,0,0,1,6,24.1c.6,4,1.1,8.1,1.4,12.2a229,229,0,0,1,.7,24.8A162.2,162.2,0,0,1,474,198a152.8,152.8,0,0,1-3.5,16.6,96.35,96.35,0,0,1-12.3,27.5,74.71,74.71,0,0,1-44.8,31.8,114.48,114.48,0,0,1-11.4,2.2c-3.3.4-6.7.4-10,.6-5.2.4-10.3.2-15.5.2H223.55c-2.3,0-2.1.3-1.5-2.3,3-11.7,6-23.4,9-35,2.9-11.2,5.7-22.4,8.6-33.6.5-2.1,1.1-4.1,1.5-6.2.3-1.3.8-1.8,2-1.8Q277.5,197.83,311.55,197.78Z"/><path class="cls-1" d="M80.25,388.58H1c-1,.2-1.1-.5-.8-1.4.7-2.9,1.5-5.8,2.2-8.6,3.1-12.2,6.2-24.3,9.3-36.5,2.5-9.7,4.9-19.5,7.4-29.2,1.9-7.7,3.9-15.3,5.8-23,.4-1.6,1-2,2.3-2q42.15,0,84.3.1c1.4,0,2-.4,2.4-2.1,2.9-11.5,5.9-22.9,8.9-34.4,2.1-8.1,4.2-16.1,6.3-24.2,3.3-12.6,6.5-25.2,9.8-37.7,2.1-8.1,4.2-16.2,6.3-24.4,3.3-12.5,6.5-25.1,9.7-37.6,3.1-12,6.2-23.9,9.3-35.9,2.3-8.7,4.5-17.4,6.7-26.1.2-.7.5-1.1,1.1-1.1h87.7c1.1-.2,1.3.2,1,1.5-3.5,13-6.9,26-10.3,39-3,11.2-5.9,22.5-8.9,33.7s-5.9,22.6-8.9,33.8c-2.2,8.5-4.5,17-6.7,25.5s-4.5,16.9-6.7,25.4-4.5,16.9-6.7,25.4c-2.2,8.2-4.3,16.4-6.5,24.6l-6.6,25.2c-3.1,11.7-6.1,23.3-9.2,35-1.9,7.1-3.5,14.3-5.6,21.3a105.11,105.11,0,0,1-10.3,24.3c-3.3,5.4-7.8,8.4-13.3,9.3a29.68,29.68,0,0,1-5.2.3C130.65,388.58,105.45,388.58,80.25,388.58Z"/><path class="cls-1" d="M726.65,192.58c3.3-12.4,6.3-24,9.4-35.6,3.3-13,6.5-25.9,10-38.9,3.3-12.4,6.3-24.8,9.6-37.1.6-2.2,1.4-2.4,3.1-2.4h42.3c3.1,0,3.3,0,2.2,3.9-2.4,10.2-5.1,20.6-7.5,30.7-4.7,19.3-9.4,38.5-14,57.8-2.6,11-5.5,22-8.1,32.8a1.64,1.64,0,0,0-.2,1.4c.4.4.8-.2,1-.4,6.9-7.9,13.6-16.1,20.6-23.8,8.3-9.4,16.7-18.9,25-28.5,5.3-6.1,10.6-12,15.7-18.1,11-12.8,22.2-25.4,33.2-38.1,4.7-5.3,9.4-10.6,14-15.9a4.23,4.23,0,0,1,3.5-1.8h46.6c2.2,0,2.4.8,1.8,3.3-7.5,27.5-14.9,55.2-22.2,82.7-7.1,26.5-14.3,52.9-21.4,79.6-2.6,9.8-5.3,19.5-7.9,29.5-.6,2-1.2,2.9-3.3,2.9h-41.9c-2.6,0-2.9-.4-1.8-3.5,2.6-8.8,5.3-17.5,7.9-26.1.4-1.6.4-2.2-1.2-2.4-3.5-.2-6.9-.8-10.2-.6-11,.4-21.8-.6-32.8-.8-4.7,0-8.1,1.6-11.6,5.5-8.1,9.2-16.7,17.9-25,26.9a3.17,3.17,0,0,1-2.4,1h-50.5c-1.4,0-2-.6-2.6-2-6.5-17.1-13.2-34-20-50.9-3.7-9.2-7.1-18.3-10.8-27.5-2.4-6.3-5.1-12.6-7.5-19.1-.4-.8-.6-2-1.4-2.6-1.8,6.7-3.7,13.4-5.3,20.2-2.9,10.6-5.7,21.4-8.3,32.2-4.1,15.5-8.1,30.9-12,46.4-.8,2.9-1.8,3.7-4.3,3.7-14.5-.2-28.9-.2-43.4,0-2.2,0-2.6-.8-2-3.3,3.7-13.8,7.3-27.7,11-41.7,8.3-31.4,16.5-62.9,24.6-94.3,3.9-14.7,7.7-29.3,11.6-44.2,1-3.9,2-7.7,3.1-11.6.4-1.8,1.2-2.6,2.9-2.6h36.9c1.4,0,2.2.6,2.9,2.2,6.3,17.1,12.6,34.2,18.9,51.5,6.9,18.7,13.6,37.5,20.6,56.2A16.92,16.92,0,0,0,726.65,192.58Zm134.4-24.3c-.2-.2-.4-.2-.4-.4-11.6,13.2-23.4,26.3-35,39.5.2.2.2.4.4.8H852c2.2,0,2.9-1,3.3-3.5,1.2-7.7,2.4-15.5,3.9-23.4C859.55,177.28,860.45,172.78,861.05,168.28Z"/><path class="cls-1" d="M1122.25,79h46.4c2.9,0,2.9.2,2,3.5-3.5,12.2-7.1,24.4-10.4,36.6-.8,2.9-2.6,2.9-4.5,2.9-4.9,0-10,.2-14.9,0-2.4,0-4.9.8-7.3.6-1.6,0-1.6,1.8-2,3.1-3.7,13.8-7.5,27.5-11.2,41.3-3.9,14.7-7.7,29.1-11.6,43.8-.4,1.8-.6,2.6,1.4,3.3,3.9,1,6.9.4,10.2-3.3,7.9-9.2,16.3-17.5,24.4-26.5,5.1-5.5,10.2-11.2,15.3-16.9,6.7-7.3,13.6-14.5,20.4-21.8,5.1-5.5,10.2-11.2,15.3-16.7,6.7-7.3,13.6-14.5,20.4-21.8,5.3-5.7,10.4-11.4,15.5-16.9,3.1-3.5,6.3-6.7,9.4-10.2.6-.8,1.4-.8,2.4-.8h45.6c2.4,0,2.2,1.2,1.6,3.3-3.3,12-6.5,24-9.8,36-6.1,22.6-12,45.2-17.9,68-5.9,22.2-11.8,44.4-17.7,66.8-1.8,6.9-3.7,13.8-5.5,20.8-.6,2-1.4,2.9-3.3,2.9h-43.2c-2.2,0-2.9-.6-2-3.5,1.8-6.5,3.5-13.2,5.3-19.7,1-3.9,1-3.9-2.2-3.9-11.2,0-22.4-.2-33.6,0-7.5.2-14.9-.8-22.4-.8-1.6,0-2.6.6-3.7,2.2-4.9,7.9-9.8,15.7-14.9,23.4a3.29,3.29,0,0,1-3.5,2h-70.8c-2.6,0-2.2-1.4-1.8-3.7,5.1-18.9,10.2-37.9,15.3-56.8,7.1-26.7,14.3-53.1,21.4-79.8,1-4.1,2-8.3,3.3-12.6.6-1.8.2-2.4-1.4-2.4h-18.7c-1.8,0-2.2-.6-1.6-2.9,3.5-12.2,6.7-24.6,10-37.1.6-2,1.4-2.9,3.3-2.9C1091.05,79.28,1106.55,79,1122.25,79Zm55.8,131.4c.4.2.6.4,1,.4h28.7c1.8,0,2.2-1.2,2.4-3.1,1.4-11.8,3.1-23.6,4.5-35.2.4-3.1.6-6.1,1-9a.7.7,0,0,1-.4-.2C1202.65,179,1190.45,194.68,1178.05,210.38Z"/><path class="cls-2" d="M28.35,275.78c1.1-4.3,2.1-8.4,3.2-12.6,2.5-9.9,5-19.8,7.6-29.7,2.1-8.2,4.1-16.4,6.2-24.5.9-3.7,1.9-7.4,2.8-11.1.2-.8.5-1,1-.9h70.6c-1.2,4.4-2.3,8.6-3.4,12.9-2.8,10.7-5.6,21.3-8.5,32-1.7,6.6-3.5,13.1-5.2,19.7-1.2,4.4-2.3,8.8-3.4,13.2-.2.7-.3,1.2-1.2,1.2H29A.85.85,0,0,0,28.35,275.78Z"/><path class="cls-2" d="M437.85,64.48h1.8q89.7,0,179.4-.1c3.4,0,5.3,2.8,5.9,5.5a26.92,26.92,0,0,1-2.2,18.1,4.47,4.47,0,0,1-4.2,2.8q-73.65-.15-147.4,0c-2.2,0-3.4-1.1-4.5-2.9a72.52,72.52,0,0,0-8-10.1,44.86,44.86,0,0,0-11.4-8.7,70.36,70.36,0,0,0-8.8-4.1C438.05,65,438,65,437.85,64.48Z"/><path class="cls-2" d="M439.55,276.78c1-1.1,2.1-.7,2.9-.8a32.6,32.6,0,0,0,12.8-5.3,44,44,0,0,0,7.8-6.6,67.79,67.79,0,0,0,11.5-17c.2-.4.4-.6.8-.5h94.3c2,0,3.5,1.3,4.2,3.5a34.8,34.8,0,0,1,1.5,13.6c-.4,4.1-1.1,8.2-3.9,11.1a5.55,5.55,0,0,1-4,2H439.55Z"/><path class="cls-1" d="M1005.35,79h48c3.1,0,3.1,0,2,3.7-3.3,12-6.5,23.8-9.6,35.8-.6,2.4-1.4,3.1-3.7,3.1-16.3-.2-32.8,0-49.1-.2-2.2,0-3.1.6-3.9,3.5-3.5,15.1-7.3,29.9-11,44.8-.6,2.4-.2,2.9,1.8,2.9h48.5c2.9,0,2.9,0,2,3.3-2.6,10-5.5,20-7.9,29.9-.8,3.1-2,3.7-4.3,3.7-15.7-.2-31.4,0-46.8-.2-2.2,0-3.3,1-3.9,3.7-4.3,17.7-8.8,35.4-13,53.1-.6,2.6-1.6,5.3-1.8,7.9-.4,2.4-1.4,2.6-3.1,2.6h-45.4c-2,0-2.4-.8-1.8-3.1l18.9-70.2c5.9-22.4,12-44.6,17.9-67,4.9-18.1,9.8-36.2,14.5-54.6.6-2.2,1.4-3.1,3.3-3.1C973.25,79.28,989.25,79,1005.35,79Z"/><path class="cls-2" d="M479.65,111.08H607c2.9,0,5.2,2.1,5.9,5.4a25.38,25.38,0,0,1-2.2,17.8c-.9,1.7-2,2.5-3.7,2.5H488c-1.1,0-1.4-.3-1.7-1.7a124.7,124.7,0,0,0-5.2-20.2C480.55,113.68,480.15,112.38,479.65,111.08Z"/><path class="cls-2" d="M542.45,158.78c17.2,0,34.5.1,51.7-.1,2.5,0,5,2.5,5.7,5.1,1.2,4.2.8,8.3.1,12.5-.5,3.2-1.4,6.2-3.4,8.4a4.22,4.22,0,0,1-3.3,1.6H490c-.9,0-1.6.3-1.4-1.7.6-7.2.3-14.5.3-21.7,0-1.1-.2-2.2-.2-3.3,0-.7.2-1,.8-.9h.9C507.75,158.78,525.05,158.78,542.45,158.78Z"/><path class="cls-1" d="M1328.65,276.68h-60.5c-3.5,0-3.5,0-2.4-3.9q13.2-49.8,26.1-99.6c5.3-20,10.4-39.9,15.7-59.9,2.9-10.6,5.5-21,8.1-31.6.6-2,1.2-2.9,3.1-2.9,13.8.2,27.9,0,41.7,0,2,0,2.4.4,1.8,2.9-4.7,17.7-9.4,35.6-14,53.3-7.1,27.3-14.3,54.6-21.2,81.8-1.8,7.3-3.7,14.7-5.7,22-.6,2-.2,2.6,1.6,2.6,13.4,0,27.1.4,40.5-.2,11-.6,21.8,0,32.8-.4,2,0,2.6.4,2,3.1-2,9.8-3.9,19.5-5.5,29.5-.4,2.4-1.2,3.3-3.5,3.3Z"/><path class="cls-2" d="M481.65,231.08c.7-2.5,1.3-4.9,1.9-7.3a149.06,149.06,0,0,0,3.5-17.9c.1-1,.4-1.5,1.4-1.5h93.6c1.6,0,2.3,1.1,2.8,2.5a34.63,34.63,0,0,1,1.2,19.4c-.8,3.2-2.6,4.7-5.3,4.7h-97.6A7.08,7.08,0,0,1,481.65,231.08Z"/><path class="cls-2" d="M893.45,284.68h23L891,390.28H869l17.8-73.7.4,4.6-33.1,50.4h-12.3l-9.2-49,3.5-6.1-17.8,73.7h-22.4l25.5-105.6H845l10.1,57.4Z"/><path class="cls-2" d="M940.35,284.68h17.3l9,105.6h-24.4l-2-69.2-35.4,69.2h-24.4ZM911.85,357h39.3l-4.1,16.9h-39.3Z"/><path class="cls-2" d="M985.25,284.68h19.4l17,70.5-3.4,2.8,17.7-73.3h22.4L1033,390.18h-19.6l-17.6-66.4,3.3-2.9-16.7,69.3h-22.5Z"/><path class="cls-2" d="M1097.85,284.68h17.3l9,105.6h-24.4l-2-69.2-35.4,69.2h-24.5Zm-28.5,72.3h39.3l-4.1,16.9h-39.3Z"/><path class="cls-2" d="M1214.25,333.28l-8.3,31.6a29.32,29.32,0,0,1-8.3,14.2,39.7,39.7,0,0,1-15.7,9.1,69.45,69.45,0,0,1-21.8,3.2c-8.3,0-15.1-1-20.5-3.1s-9.1-5-11.2-8.9-2.5-8.5-1.1-13.9l14.3-54.8a31.56,31.56,0,0,1,8.4-14.6,40.57,40.57,0,0,1,15.8-9.4,66.67,66.67,0,0,1,21.8-3.2c8,0,14.6,1,19.7,3.1s8.7,5.1,10.7,9.1,2.2,8.7.8,14.2l-2.1,8.1h-27.5l2.1-8.1a7.21,7.21,0,0,0-.1-4.4,5.2,5.2,0,0,0-3-2.8,12.12,12.12,0,0,0-5.4-1,19.26,19.26,0,0,0-6.5,1.1,12.87,12.87,0,0,0-4.9,3.1,11.48,11.48,0,0,0-2.7,4.8l-14.3,54.8a5,5,0,0,0,.4,4,6.77,6.77,0,0,0,3.6,2.6,19.09,19.09,0,0,0,6.3.9,25.27,25.27,0,0,0,7-.9,11.46,11.46,0,0,0,5.1-2.8,9.59,9.59,0,0,0,2.7-4.4l3.8-14.5h-13.2l4.5-17.3h39.6v.2Z"/><path class="cls-2" d="M1242.05,284.68h24.6l-25.5,105.6h-24.6Zm11,0h53.2l-4.2,17.6h-53.2Zm-10.7,44.4h48.3l-4.2,17.5h-48.3Zm-10.6,43.6H1285l-4.2,17.6h-53.2Z"/><path class="cls-2" d="M1319,284.58h24.1l-25.5,105.7h-24.1Zm.5,43.7h26a20.12,20.12,0,0,0,5.7-.8,10.85,10.85,0,0,0,4.1-2.4,8.52,8.52,0,0,0,2.1-3.7l2.8-11.8a6.22,6.22,0,0,0-.2-4.1,5.51,5.51,0,0,0-2.9-2.7,13.64,13.64,0,0,0-5.3-.9h-26l4.2-17.3h24.5c7.8,0,14.3.9,19.3,2.8s8.6,4.6,10.7,8.2,2.5,7.9,1.2,13l-3,12.3a26.62,26.62,0,0,1-7.6,13.3,37.46,37.46,0,0,1-14.8,8.5,68.53,68.53,0,0,1-20.7,2.9h-24.5Zm16.7,14.1,23.4-3.3,10.7,51.3h-26.4Z"/><path class="cls-1" d="M209.35,389.88h-23.2l36.5-103.7h23.2Z"/><path class="cls-1" d="M260.55,286.18h18.3l7.7,69.2-3.5,2.8,25.3-71.9h21.2l-36.5,103.6h-18.4l-8.7-65.2,3.4-2.9-23.9,68h-21.3Z"/><path class="cls-1" d="M310.35,287.68H335l-12.1,71.6,38.2-71.6h24.6l-61.6,103.7H299Z"/><path class="cls-1" d="M388.85,286.18h23.2l-36.5,103.7h-23.2Zm10.3,0h50.2l-6.1,17.3h-50.2Zm-15.3,43.6h45.5l-6,17.2h-45.5Zm-15.1,42.8H419l-6.1,17.3h-50.2Z"/><path class="cls-1" d="M461.35,286.18h18.3l7.7,69.2-3.5,2.8,25.3-71.9h21.2l-36.5,103.6h-18.4l-8.7-65.2,3.4-2.9-23.9,68h-21.4Z"/><path class="cls-1" d="M535.55,286.18h68.2l-6,17h-68.2Zm19.4,8.7h23.2l-33.4,95h-23.2Z"/><path class="cls-1" d="M578.45,386.88c-4.5-1.9-7.5-4.7-9-8.3s-1.3-8,.5-13.2l20.1-57a31.69,31.69,0,0,1,8.8-13.2,39.25,39.25,0,0,1,14.9-8.3,64.37,64.37,0,0,1,19.8-2.9c7.3,0,13.2,1,17.8,2.9s7.5,4.7,9,8.3,1.3,8.1-.5,13.2l-20.1,57a32.44,32.44,0,0,1-8.7,13.2,40.64,40.64,0,0,1-14.9,8.3,64.37,64.37,0,0,1-19.8,2.9C589,389.78,583.05,388.88,578.45,386.88Zm30.5-15.8a12.83,12.83,0,0,0,5-3.1,13.06,13.06,0,0,0,3-4.8l18.5-52.6a7.47,7.47,0,0,0,.4-4.8,5,5,0,0,0-2.8-3.1,13.62,13.62,0,0,0-5.8-1.1,19.26,19.26,0,0,0-6.5,1.1,12.45,12.45,0,0,0-4.9,3.1,13.06,13.06,0,0,0-3,4.8l-18.5,52.6a7.51,7.51,0,0,0-.4,4.8,5,5,0,0,0,2.8,3.1,12.83,12.83,0,0,0,5.7,1.1A22.1,22.1,0,0,0,609,371.08Z"/><path class="cls-1" d="M681,286.18h22.8l-36.5,103.7h-22.8Zm-4.7,42.9h24.5a19.22,19.22,0,0,0,5.5-.8,10.28,10.28,0,0,0,4.2-2.4,8.5,8.5,0,0,0,2.4-3.7l4.1-11.5a6,6,0,0,0,.3-4.1,4.38,4.38,0,0,0-2.4-2.6,11.59,11.59,0,0,0-4.9-.9h-24.5l6-17h23.1c7.4,0,13.3.9,17.9,2.7s7.6,4.5,9.1,8.1,1.4,7.8-.4,12.7l-4.3,12.1a32.11,32.11,0,0,1-8.7,13.1,40.64,40.64,0,0,1-14.9,8.3,64.37,64.37,0,0,1-19.8,2.9h-23.1Zm14.1,13.7,22.4-3.3,4,50.3h-24.9Z"/><path class="cls-1" d="M772,350.18l-14,39.7h-23.1l14-39.7-3-63.9h24.2l-2.4,42.9,27.3-42.9h24.2Z"/><text class="cls-3" transform="translate(2931 352.44)"> </text><text class="cls-4" transform="translate(1676.12 356.98)">ES<tspan class="cls-5" x="387.78" y="0">P</tspan><tspan class="cls-6" x="569.33" y="0">A</tspan><tspan class="cls-7" x="767.12" y="0">CE</tspan></text><text class="cls-8" transform="translate(2938.78 356.98)">ADMINISTR<tspan class="cls-9" x="1707.2" y="0">A</tspan><tspan x="1896.87" y="0">TEUR</tspan></text></g></g></svg>