<svg xmlns="http://www.w3.org/2000/svg" viewBox="0 0 1398.54 327.01"><defs><style>.cls-1{fill:#002866;}.cls-2{fill:#efb31e;}</style></defs><g id="Layer_2" data-name="Layer 2"><g id="Layer_1-2" data-name="Layer 1"><path class="cls-1" d="M311.55,133.4c22.3,0,44.6-.1,66.9.1,3.6,0,6.1-1.9,8-5.3a24,24,0,0,0,2.9-11.6,30.46,30.46,0,0,0-1.9-12.4c-1.1-2.9-2.5-5.6-4.7-7.4a4.9,4.9,0,0,0-3.2-1.2H253.85c-2.4,0-2.3,0-1.6-2.7q6.15-24.15,12.4-48.2c3.2-12.3,6.4-24.7,9.5-37,.6-2.2,1.1-4.3,1.6-6.5.2-.7.5-1.1,1.1-1.1h1q57.75,0,115.5.1a92.14,92.14,0,0,1,12.8,1.1A87.34,87.34,0,0,1,422.05,5,69.88,69.88,0,0,1,442,15.3a65.79,65.79,0,0,1,14.5,14.8,86,86,0,0,1,11.2,21.5,123.18,123.18,0,0,1,6,24.1c.6,4,1.1,8.1,1.4,12.2a229,229,0,0,1,.7,24.8,162.2,162.2,0,0,1-1.8,20.9,152.8,152.8,0,0,1-3.5,16.6,96.35,96.35,0,0,1-12.3,27.5,74.71,74.71,0,0,1-44.8,31.8,114.48,114.48,0,0,1-11.4,2.2c-3.3.4-6.7.4-10,.6-5.2.4-10.3.2-15.5.2H223.55c-2.3,0-2.1.3-1.5-2.3,3-11.7,6-23.4,9-35,2.9-11.2,5.7-22.4,8.6-33.6.5-2.1,1.1-4.1,1.5-6.2.3-1.3.8-1.8,2-1.8Q277.5,133.45,311.55,133.4Z"/><path class="cls-1" d="M80.25,324.2H1c-1,.2-1.1-.5-.8-1.4.7-2.9,1.5-5.8,2.2-8.6,3.1-12.2,6.2-24.3,9.3-36.5,2.5-9.7,4.9-19.5,7.4-29.2,1.9-7.7,3.9-15.3,5.8-23,.4-1.6,1-2,2.3-2q42.15,0,84.3.1c1.4,0,2-.4,2.4-2.1,2.9-11.5,5.9-22.9,8.9-34.4,2.1-8.1,4.2-16.1,6.3-24.2,3.3-12.6,6.5-25.2,9.8-37.7,2.1-8.1,4.2-16.2,6.3-24.4,3.3-12.5,6.5-25.1,9.7-37.6,3.1-12,6.2-23.9,9.3-35.9,2.3-8.7,4.5-17.4,6.7-26.1.2-.7.5-1.1,1.1-1.1h87.7c1.1-.2,1.3.2,1,1.5-3.5,13-6.9,26-10.3,39-3,11.2-5.9,22.5-8.9,33.7s-5.9,22.6-8.9,33.8c-2.2,8.5-4.5,17-6.7,25.5s-4.5,16.9-6.7,25.4-4.5,16.9-6.7,25.4c-2.2,8.2-4.3,16.4-6.5,24.6l-6.6,25.2c-3.1,11.7-6.1,23.3-9.2,35-1.9,7.1-3.5,14.3-5.6,21.3a105.11,105.11,0,0,1-10.3,24.3c-3.3,5.4-7.8,8.4-13.3,9.3a29.68,29.68,0,0,1-5.2.3C130.65,324.2,105.45,324.2,80.25,324.2Z"/><path class="cls-1" d="M726.67,128.16c3.26-12.42,6.31-24,9.36-35.63,3.26-13,6.52-25.85,10-38.88,3.26-12.42,6.31-24.84,9.57-37.06.61-2.24,1.42-2.44,3-2.44H801c3,0,3.26,0,2.24,3.87-2.44,10.18-5.09,20.56-7.53,30.74-4.69,19.34-9.37,38.48-14.05,57.82-2.65,11-5.5,22-8.14,32.78a1.65,1.65,0,0,0-.21,1.42c.41.41.82-.2,1-.4,6.92-7.94,13.64-16.09,20.56-23.82,8.35-9.37,16.7-18.94,25-28.51,5.3-6.1,10.59-12,15.68-18.12,11-12.82,22.19-25.44,33.19-38.07l14-15.88a4.27,4.27,0,0,1,3.47-1.83h46.62c2.24,0,2.44.81,1.83,3.26-7.53,27.48-14.86,55.17-22.19,82.66-7.13,26.46-14.25,52.93-21.38,79.6-2.65,9.77-5.29,19.54-7.94,29.52-.61,2-1.22,2.85-3.26,2.85H838c-2.64,0-2.85-.41-1.83-3.46,2.65-8.75,5.3-17.51,7.94-26.06.41-1.63.41-2.24-1.22-2.44-3.46-.21-6.92-.82-10.18-.61-11,.4-21.78-.61-32.78-.82-4.68,0-8.14,1.63-11.6,5.5-8.15,9.16-16.7,17.91-25,26.87a3.22,3.22,0,0,1-2.45,1H710.38c-1.42,0-2-.61-2.64-2-6.52-17.11-13.24-34-20-50.9-3.66-9.16-7.12-18.33-10.79-27.49-2.44-6.31-5.09-12.62-7.53-19.14-.41-.81-.61-2-1.42-2.64-1.84,6.72-3.67,13.43-5.3,20.15-2.85,10.59-5.7,21.38-8.35,32.17-4.07,15.47-8.14,31-12,46.42-.81,2.85-1.83,3.66-4.27,3.66q-21.69-.3-43.37,0c-2.24,0-2.64-.81-2-3.25,3.66-13.85,7.33-27.69,11-41.74,8.35-31.35,16.49-62.91,24.63-94.26,3.87-14.66,7.74-29.32,11.61-44.18q1.53-5.8,3-11.61c.41-1.83,1.23-2.64,2.85-2.64h36.85c1.43,0,2.24.61,2.85,2.24,6.32,17.1,12.63,34.2,18.94,51.51C711.4,87,718.12,105.77,725,124.5A38.56,38.56,0,0,1,726.67,128.16ZM861,103.93c-.2-.2-.41-.2-.41-.4-11.6,13.23-23.41,26.26-35,39.49.2.21.2.41.4.82h25.86c2.24,0,2.85-1,3.26-3.46,1.22-7.74,2.44-15.48,3.86-23.42C859.61,112.89,860.43,108.41,861,103.93Z"/><path class="cls-1" d="M1122.25,14.66h46.42c2.85,0,2.85.2,2,3.46-3.46,12.22-7.12,24.43-10.38,36.65-.81,2.85-2.65,2.85-4.48,2.85-4.89,0-10,.2-14.86,0-2.44,0-4.89.81-7.33.61-1.63,0-1.63,1.83-2,3.05-3.66,13.85-7.53,27.49-11.19,41.33-3.87,14.66-7.74,29.11-11.61,43.77-.41,1.84-.61,2.65,1.43,3.26,3.86,1,6.92.41,10.18-3.26,7.94-9.16,16.28-17.51,24.43-26.46,5.09-5.5,10.18-11.2,15.27-16.9,6.71-7.33,13.64-14.46,20.36-21.79,5.09-5.49,10.18-11.19,15.26-16.69,6.72-7.33,13.65-14.46,20.36-21.79,5.3-5.7,10.39-11.4,15.48-16.89,3.05-3.46,6.31-6.72,9.36-10.18.61-.82,1.43-.82,2.45-.82H1289c2.44,0,2.24,1.22,1.63,3.26q-4.89,18-9.77,36c-6.11,22.59-12,45.19-17.92,68-5.9,22.19-11.81,44.38-17.71,66.77q-2.74,10.4-5.5,20.77c-.61,2-1.42,2.85-3.26,2.85H1193.3c-2.24,0-2.85-.61-2-3.46,1.83-6.52,3.46-13.23,5.29-19.75,1-3.87,1-3.87-2.24-3.87-11.2,0-22.4-.2-33.59,0-7.54.21-14.87-.81-22.4-.81a3.9,3.9,0,0,0-3.66,2.24c-4.89,7.94-9.78,15.67-14.86,23.41-.82,1.43-1.84,2.24-3.47,2h-70.85c-2.64,0-2.24-1.43-1.83-3.67l15.27-56.8c7.13-26.67,14.25-53.14,21.38-79.81,1-4.07,2-8.35,3.26-12.62.61-1.83.2-2.44-1.43-2.44h-18.73c-1.83,0-2.24-.62-1.63-2.85,3.46-12.22,6.72-24.64,10-37.06.61-2,1.42-2.85,3.25-2.85C1091.1,14.86,1106.57,14.66,1122.25,14.66ZM1178,146c.41.2.61.4,1,.4h28.71c1.83,0,2.24-1.22,2.44-3,1.42-11.81,3-23.62,4.48-35.22.41-3.06.61-6.11,1-9a.7.7,0,0,1-.41-.2C1202.67,114.62,1190.45,130.3,1178,146Z"/><path class="cls-2" d="M28.35,211.4c1.1-4.3,2.1-8.4,3.2-12.6,2.5-9.9,5-19.8,7.6-29.7,2.1-8.2,4.1-16.4,6.2-24.5.9-3.7,1.9-7.4,2.8-11.1.2-.8.5-1,1-.9h70.6c-1.2,4.4-2.3,8.6-3.4,12.9-2.8,10.7-5.6,21.3-8.5,32-1.7,6.6-3.5,13.1-5.2,19.7-1.2,4.4-2.3,8.8-3.4,13.2-.2.7-.3,1.2-1.2,1.2H29A.85.85,0,0,0,28.35,211.4Z"/><path class="cls-2" d="M437.85.1h1.8q89.7,0,179.4-.1c3.4,0,5.3,2.8,5.9,5.5a26.92,26.92,0,0,1-2.2,18.1,4.47,4.47,0,0,1-4.2,2.8q-73.65-.15-147.4,0c-2.2,0-3.4-1.1-4.5-2.9a72.52,72.52,0,0,0-8-10.1,44.86,44.86,0,0,0-11.4-8.7,70.36,70.36,0,0,0-8.8-4.1C438.05.6,438,.6,437.85.1Z"/><path class="cls-2" d="M439.55,212.4c1-1.1,2.1-.7,2.9-.8a32.6,32.6,0,0,0,12.8-5.3,44,44,0,0,0,7.8-6.6,67.79,67.79,0,0,0,11.5-17c.2-.4.4-.6.8-.5h94.3c2,0,3.5,1.3,4.2,3.5a34.8,34.8,0,0,1,1.5,13.6c-.4,4.1-1.1,8.2-3.9,11.1a5.55,5.55,0,0,1-4,2H439.55Z"/><path class="cls-1" d="M1005.39,14.66h48c3.06,0,3.06,0,2,3.66-3.26,12-6.51,23.82-9.57,35.84-.61,2.44-1.42,3.05-3.66,3.05-16.29-.2-32.78,0-49.07-.2-2.24,0-3,.61-3.87,3.46-3.46,15.06-7.33,29.93-11,44.79-.61,2.44-.2,2.85,1.83,2.85h48.46c2.85,0,2.85,0,2,3.25-2.64,10-5.5,20-7.94,29.93-.81,3.06-2,3.67-4.27,3.67-15.68-.21-31.36,0-46.83-.21-2.24,0-3.26,1-3.87,3.67-4.27,17.71-8.75,35.42-13,53.14-.61,2.64-1.63,5.29-1.83,7.94-.41,2.44-1.43,2.64-3.05,2.64H904.4c-2,0-2.44-.81-1.83-3l18.94-70.24c5.9-22.4,12-44.59,17.91-67,4.89-18.12,9.77-36.24,14.46-54.56.61-2.24,1.42-3.06,3.25-3.06C973.22,14.86,989.3,14.66,1005.39,14.66Z"/><path class="cls-2" d="M479.65,46.7H607c2.9,0,5.2,2.1,5.9,5.4a25.38,25.38,0,0,1-2.2,17.8c-.9,1.7-2,2.5-3.7,2.5H488c-1.1,0-1.4-.3-1.7-1.7a124.7,124.7,0,0,0-5.2-20.2C480.55,49.3,480.15,48,479.65,46.7Z"/><path class="cls-2" d="M542.45,94.4c17.2,0,34.5.1,51.7-.1,2.5,0,5,2.5,5.7,5.1,1.2,4.2.8,8.3.1,12.5-.5,3.2-1.4,6.2-3.4,8.4a4.22,4.22,0,0,1-3.3,1.6H490c-.9,0-1.6.3-1.4-1.7.6-7.2.3-14.5.3-21.7,0-1.1-.2-2.2-.2-3.3,0-.7.2-1,.8-.9h.9C507.75,94.4,525.05,94.4,542.45,94.4Z"/><path class="cls-1" d="M1328.69,212.35h-60.47c-3.46,0-3.46,0-2.44-3.87,8.75-33.19,17.51-66.37,26.06-99.56,5.29-20,10.38-39.9,15.68-59.85,2.85-10.59,5.49-21,8.14-31.56.61-2,1.22-2.85,3-2.85,13.85.2,27.9,0,41.74,0,2,0,2.44.41,1.83,2.85-4.68,17.71-9.36,35.63-14,53.34-7.12,27.28-14.25,54.56-21.17,81.84-1.83,7.33-3.66,14.66-5.7,22-.61,2-.2,2.65,1.63,2.65,13.44,0,27.08.41,40.51-.21,11-.61,21.79,0,32.78-.4,2,0,2.65.4,2,3.05-2,9.77-3.87,19.55-5.5,29.52-.41,2.45-1.22,3.26-3.46,3.26C1369.41,212.35,1349.05,212.35,1328.69,212.35Z"/><path class="cls-2" d="M481.65,166.7c.7-2.5,1.3-4.9,1.9-7.3a149.06,149.06,0,0,0,3.5-17.9c.1-1,.4-1.5,1.4-1.5h93.6c1.6,0,2.3,1.1,2.8,2.5a34.63,34.63,0,0,1,1.2,19.4c-.8,3.2-2.6,4.7-5.3,4.7h-97.6A7.08,7.08,0,0,1,481.65,166.7Z"/><path class="cls-2" d="M893.43,220.3h23.05L891,325.92h-22l17.77-73.73.37,4.64-33.11,50.42H841.77l-9.15-49,3.46-6.1L818.3,325.92H795.85L821.32,220.3H845l10.1,57.38Z"/><path class="cls-2" d="M940.33,220.3h17.28l9,105.62H942.18l-2-69.23-35.36,69.23H880.39Zm-28.47,72.35h39.33l-4.06,16.85H907.79Z"/><path class="cls-2" d="M985.27,220.3h19.37l17,70.46-3.37,2.83,17.68-73.29h22.45l-25.45,105.54h-19.57l-17.57-66.39,3.29-2.91-16.71,69.3H959.82Z"/><path class="cls-2" d="M1097.84,220.3h17.28l9,105.62h-24.43l-2-69.23-35.37,69.23H1037.9Zm-28.47,72.35h39.33l-4.06,16.85h-39.33Z"/><path class="cls-2" d="M1214.24,268.89l-8.27,31.6a30.17,30.17,0,0,1-8.31,14.24,40.47,40.47,0,0,1-15.71,9.12,69.45,69.45,0,0,1-21.76,3.16q-12.4,0-20.45-3.05t-11.22-8.87q-3.16-5.8-1-13.87l14.34-54.77a31.38,31.38,0,0,1,8.41-14.64,40.25,40.25,0,0,1,15.78-9.37,67.79,67.79,0,0,1,21.77-3.23q12,0,19.73,3.12t10.73,9.08q3,6,.8,14.24l-2.13,8.13h-27.5l2.13-8.13a6.65,6.65,0,0,0-.15-4.4,5.56,5.56,0,0,0-3-2.83,13.13,13.13,0,0,0-5.4-1,18.37,18.37,0,0,0-6.49,1.09,12.81,12.81,0,0,0-4.86,3.12,10.84,10.84,0,0,0-2.66,4.8l-14.34,54.77a5,5,0,0,0,.42,4,6.36,6.36,0,0,0,3.57,2.61,19.13,19.13,0,0,0,6.35.91,24.08,24.08,0,0,0,7-.94,13.16,13.16,0,0,0,5.09-2.76,8.93,8.93,0,0,0,2.65-4.36l3.78-14.46h-13.16l4.53-17.29Z"/><path class="cls-2" d="M1242.11,220.3h24.63l-25.47,105.62h-24.63Zm10.92,0h53.24L1302,237.88h-53.24Zm-10.7,44.38h48.27l-4.22,17.51h-48.27Zm-10.53,43.66H1285l-4.23,17.58h-53.25Z"/><path class="cls-2" d="M1319,220.22h24.13l-25.48,105.7h-24.14Zm.48,43.73h26a18.16,18.16,0,0,0,5.72-.83,10.39,10.39,0,0,0,4.1-2.4,7.7,7.7,0,0,0,2.09-3.74l2.84-11.77a6.37,6.37,0,0,0-.19-4.14,5.26,5.26,0,0,0-2.89-2.65,13.36,13.36,0,0,0-5.29-.91h-26l4.17-17.29h24.53q11.73,0,19.35,2.8t10.68,8.21q3.06,5.42,1.25,13l-3,12.34a27,27,0,0,1-7.59,13.33,36.87,36.87,0,0,1-14.75,8.47,67.76,67.76,0,0,1-20.67,2.9h-24.53Zm16.68,14,23.35-3.34,10.69,51.29h-26.43Z"/><path class="cls-1" d="M209.33,325.51H186.11l36.47-103.65H245.8Z"/><path class="cls-1" d="M260.6,221.86h18.25L286.54,291,283,293.79l25.31-71.93H329.5L293.05,325.44H274.61l-8.72-65.16,3.44-2.85-23.93,68H224.14Z"/><path class="cls-1" d="M310.4,223.35H335l-12.17,71.58,38.2-71.58h24.62L324.11,327H299Z"/><path class="cls-1" d="M388.87,221.86h23.22L375.61,325.51H352.39Zm10.3,0h50.18l-6.07,17.25H393.1Zm-15.33,43.55h45.5l-6,17.18H377.8Zm-15.08,42.85H419l-6.07,17.25H362.69Z"/><path class="cls-1" d="M461.34,221.86h18.25L487.28,291l-3.51,2.78,25.32-71.93h21.16L493.79,325.44H475.35l-8.72-65.16,3.44-2.85-23.93,68H424.89Z"/><path class="cls-1" d="M535.6,221.82h68.16l-6,17H529.63Zm19.41,8.7h23.22l-33.42,95H521.59Z"/><path class="cls-1" d="M578.5,322.55q-6.81-2.88-9-8.34t.51-13.15l20.07-57a31.82,31.82,0,0,1,8.76-13.19,40.17,40.17,0,0,1,14.88-8.34,64.12,64.12,0,0,1,19.77-2.85q10.95,0,17.77,2.85t9,8.34q2.19,5.49-.52,13.19l-20.07,57a31.51,31.51,0,0,1-8.75,13.15A40.53,40.53,0,0,1,616,322.55a63.33,63.33,0,0,1-19.79,2.89Q585.3,325.44,578.5,322.55ZM609,306.69a13.35,13.35,0,0,0,5-3.07,12.61,12.61,0,0,0,3-4.84l18.52-52.61a7.74,7.74,0,0,0,.37-4.78,5.05,5.05,0,0,0-2.81-3.07,13.26,13.26,0,0,0-5.75-1.07,18.68,18.68,0,0,0-6.47,1.07,13.62,13.62,0,0,0-4.91,3.07,12.42,12.42,0,0,0-3,4.78L594.4,298.78a7.74,7.74,0,0,0-.39,4.84,5,5,0,0,0,2.75,3.07,13,13,0,0,0,5.71,1.07A19,19,0,0,0,609,306.69Z"/><path class="cls-1" d="M681,221.78h22.75l-36.5,103.73H644.47Zm-4.71,42.92h24.53a17.38,17.38,0,0,0,5.49-.82,11.12,11.12,0,0,0,4.15-2.35,9.07,9.07,0,0,0,2.42-3.67l4.06-11.55a6.6,6.6,0,0,0,.31-4.07,4.26,4.26,0,0,0-2.41-2.6,11.58,11.58,0,0,0-4.89-.89H685.39l6-17h23.12q11.06,0,17.9,2.75t9.1,8.05q2.25,5.32-.35,12.73l-4.27,12.12a31.41,31.41,0,0,1-8.72,13.08,40.29,40.29,0,0,1-14.91,8.31,64.58,64.58,0,0,1-19.82,2.85H670.29Zm14.07,13.76,22.41-3.28,4,50.33h-24.9Z"/><path class="cls-1" d="M772,285.8l-14,39.71H734.82l14-39.71-3-63.94H770l-2.37,42.91,27.27-42.91h24.16Z"/></g></g></svg>