<?xml version="1.0" encoding="utf-8"?>
<!-- Generator: Adobe Illustrator 26.0.1, SVG Export Plug-In . SVG Version: 6.00 Build 0)  -->
<svg version="1.1" xmlns="http://www.w3.org/2000/svg" xmlns:xlink="http://www.w3.org/1999/xlink" x="0px" y="0px"
	 viewBox="0 0 500 500" style="enable-background:new 0 0 500 500;" xml:space="preserve">
<style type="text/css">
	.st0{fill:#FAFAFA;}
	.st1{fill:#213164;}
	.st2{fill:#E0E0E0;}
	.st3{fill:#FFA8A7;}
	.st4{fill:#263238;}
	.st5{fill:#37474F;}
	.st6{fill:#F0F0F0;}
	.st7{fill:#EBEBEB;}
	.st8{opacity:0.1;fill:#F0B321;}
	.st9{fill:#F28F8F;}
	.st10{fill:#455A64;}
	.st11{opacity:0.4;}
	.st12{fill:#F0B321;}
	.st13{fill:#F2A71B;}
	.st14{fill:#B16668;}
	.st15{fill:#BA68C8;}
	.st16{opacity:0.7;fill:#FFFFFF;}
	.st17{opacity:0.4;fill:#FFFFFF;}
	.st18{opacity:0.6;fill:#FFFFFF;}
	.st19{opacity:0.6;fill:#BA68C8;}
	.st20{opacity:0.3;fill:#FFFFFF;}
	.st21{opacity:0.1;}
	.st22{fill:#022859;}
	.st23{opacity:0.1;fill:#FFFFFF;}
	.st24{opacity:0.25;fill:#022859;}
	.st25{fill:#FFFFFF;}
</style>
<g id="Floor">
	<ellipse id="Floor_00000160151211258969163600000004186087420310611588_" class="st0" cx="250" cy="372.1" rx="240.9" ry="119.9"/>
</g>
<g id="Plants">
</g>
<g id="Shadows">
	<ellipse id="Shadow_00000072974309603863909670000009128854171732154266_" class="st1" cx="399.5" cy="375.6" rx="78" ry="45"/>
	<path id="Shadow_31_" class="st1" d="M140.3,377.7l100-57.6c1.7-1,4.4-1,6.1,0l148.1,85.5c1.7,1,1.7,2.6,0,3.5l-100,57.6
		c-1.7,1-4.4,1-6.1,0l-148.1-85.5C138.6,380.2,138.6,378.7,140.3,377.7z"/>
	<polygon id="Shadow_22_" class="st2" points="101.5,357.1 21.4,403.4 121.7,461.4 201.7,415 	"/>
</g>
<g id="Character">
	<g id="Chartacter_1_">
		<g id="Bottom_5_">
			<g>
				<path class="st3" d="M442.8,350.6c-0.8-12.1-1.3-16.8-2.5-38.4v0c-0.1-5.5-0.3-11.4-0.7-16.7c-1.2-17.7-3.5-21.9-5-28
					c-1.5-6.1-2.8-17.4-5.1-55.5c-1.3-21.1-4.3-32.8-7-43H368c-5.6,23.9-7.2,75.5-7,100.1c0.1,12.5,0.2,77.3-0.1,82.5
					c-0.3,5.5-3.1,8.9-5.2,11.2c-4.5,4.8-7.7,6.8-13.3,11c0.8,2.2,12.6,2.1,16,0.4c5.4-2.6,12.3-6.9,14.1-8.3
					c4.6-3.4,6.7-8.3,6.7-13.5c0,0,0.2-1.2,0.2-1.4c0.1-3,7.7-45.9,9.6-56.2c1.5-8-0.1-23.4-0.1-23.4l5.8-37.9c0,0,6.5,25.2,10,40.5
					c2.6,11.3,8.9,29.1,13,47.1l0,0c4.8,18.3,5.2,19.9,8.1,33c1.4,6.6,2.7,32.8,4.3,37.4c5.2,14.8,17.4,4.8,18.1-3.3
					C448.5,382.9,443,353.2,442.8,350.6z"/>
			</g>
			<g>
				<path class="st4" d="M331,380.9c-0.3,0-0.7,3.5,1,4.9c2,1.6,7.8,4.3,15.4,3.1c7.6-1.2,11.6-3.6,14.6-6.2c3-2.6,7.1-6.3,10.5-7.2
					c3.2-0.8,8.3-2.7,9.3-3.7c1-1,0.7-5.4,0.7-5.4L331,380.9z"/>
				<path id="XMLID_792_" class="st5" d="M379.3,351.1c0,0,1,0.4,1.3,1.5c0.3,1.2,0.3,2.7,0.9,4.7c0.8,2.7,1.4,8.4,1,10.6
					c-0.4,2.3-7.2,4.3-10.5,5.7c-3.4,1.4-7.2,4.1-10.6,7.1c-3.5,3-10.9,6.2-15.8,6.4c-7.5,0.3-12.5-1.6-14.1-4.3
					c-2-3.3-0.5-6.9,8.1-11.1c1.6-0.8,7.3-4.4,9.2-5.6c2-1.4,4-2.9,5.8-4.5c0.9-0.8,1.8-1.7,2.6-2.7c0.7-0.8,1.7-1.8,2.1-2.9
					c0.1-0.2,0.2-0.5,0.2-0.7c0.2-0.7,0.4-1.3,0.5-2c0.1-0.7,0.2-1.8,0.9-2.2c0.8-0.5,2.2-0.5,3.1-0.4c1.1,0.1,3.6,0.7,4.7,1
					c1.8,0.5,3.1,0.9,3.9,2.1c0.6,0.9,0.7,2.1,0.8,3.1c0,0.5,0,1,0.1,1.5c0,0.2-0.1,0.6,0.2,0.5c0.3-0.1,0.6-0.9,0.7-1.1
					c0.2-0.6,0.4-1.2,0.6-1.7c0.3-0.6,0.5-1.4,1-1.9c1.4-1.2,2.8-1,3.2-1.5C379.1,352.4,379.2,351.5,379.3,351.1z"/>
				<path class="st0" d="M338.1,372.3c10.9,0.5,14.5,8.7,15.1,12.9c-2.7,1-5.5,1.7-7.7,1.8c-7.5,0.3-12.8-1.6-14.4-4.3
					C329.3,379.6,330.4,375.4,338.1,372.3z"/>
				<g>
					<g>
						<path class="st6" d="M354.4,373.6c0.1,0,0.2,0,0.3-0.1c0.2-0.2,0.2-0.5,0.1-0.8c-1.6-1.8-6-5.8-9.9-5.2
							c-0.3,0-0.5,0.3-0.5,0.6c0,0.3,0.3,0.5,0.6,0.5c3.7-0.5,7.8,3.4,9,4.9C354.1,373.5,354.3,373.6,354.4,373.6z"/>
					</g>
					<g>
						<path class="st6" d="M359.1,370.7c0.1,0,0.2,0,0.3-0.1c0.2-0.2,0.2-0.5,0.1-0.8c-1.6-1.8-6-5.8-9.9-5.2
							c-0.3,0-0.5,0.3-0.5,0.6c0,0.3,0.3,0.5,0.6,0.5c3.7-0.5,7.8,3.4,9,4.9C358.8,370.7,358.9,370.7,359.1,370.7z"/>
					</g>
					<g>
						<path class="st6" d="M363.3,367.5c0.1,0,0.2,0,0.3-0.1c0.2-0.2,0.2-0.5,0.1-0.8c-1.6-1.8-6-5.8-9.9-5.2
							c-0.3,0-0.5,0.3-0.5,0.6c0,0.3,0.3,0.5,0.6,0.5c3.7-0.5,7.8,3.4,9,4.9C363,367.4,363.2,367.5,363.3,367.5z"/>
					</g>
					<g>
						<path class="st6" d="M367.5,364.2c0.1,0,0.2,0,0.3-0.1c0.2-0.2,0.3-0.5,0.1-0.8c-2.2-2.6-6.9-5.8-10.9-5.3
							c-0.3,0-0.5,0.3-0.5,0.6c0,0.3,0.3,0.5,0.6,0.5c3.6-0.5,8,2.6,9.9,4.9C367.2,364.2,367.4,364.2,367.5,364.2z"/>
					</g>
				</g>
			</g>
			<g>
				<path class="st4" d="M428.2,387.5c0.5,5,1.4,8.3,3.4,11.2c1.9,2.9,5.3,3.7,8.7,2.6c3.4-1,7.6-3.5,8.4-7.9
					c0.8-4.4,1.2-7.4,0.2-12L428.2,387.5z"/>
				<path id="XMLID_00000070839855756055649120000001285603217677786770_" class="st5" d="M442.8,350.6c1.4,0,1.3,6.7,2.4,13.5
					c1.2,7.2,2.4,10.1,3.4,16c1.2,6.8,0.2,9.8-2,14.1c-2.2,4.2-10.5,8.6-14.9,2.9c-3.6-4.7-4-10-4-16.8c0-7-0.9-11.7-1.7-17
					c-0.8-5.5-2.2-10.3-1-11c0.1,0.7,1.1,4.5,1.4,5.4c0.2,0.4,0.7,1.3,0.9-0.1c0-0.4-0.1-1.4-0.1-1.8c0-1.2,0.8-1.4,1.2-1.7
					c1-0.6,3.2-1.4,5.9-1.6c2.7-0.1,5.1-0.3,6.7,0.4c0.9,0.4,1,1.3,1.1,2.2c0.2,1,0.2,1.7,0.5,1.4
					C443.3,356,442.7,351.3,442.8,350.6z"/>
				<path class="st0" d="M449.2,383.9c0.4,4.2-0.5,7.1-2.2,10.4c-2.2,4.2-11.1,8.7-15.6,3c-2.2-2.8-2.9-6.3-3.3-9.8
					C430.5,382.9,445.1,380.2,449.2,383.9z"/>
				<g>
					<g>
						<path class="st6" d="M430.9,380c0.1,0,0.1,0,0.2-0.1c0.1,0,6.4-3,12.8-1.8c0.3,0,0.6-0.1,0.6-0.4c0.1-0.3-0.1-0.6-0.4-0.6
							c-6.8-1.3-13.3,1.8-13.5,1.9c-0.3,0.1-0.4,0.5-0.2,0.7C430.5,379.9,430.7,380,430.9,380z"/>
					</g>
					<g>
						<path class="st6" d="M443.4,373.1c0.2,0,0.4-0.2,0.4-0.4c0.1-0.3-0.1-0.6-0.4-0.6c-6.4-1.9-13.3,1.7-13.5,1.8
							c-0.3,0.1-0.3,0.5-0.2,0.7c0.1,0.2,0.5,0.3,0.7,0.2c0.1,0,6.7-3.4,12.7-1.7C443.2,373.1,443.3,373.1,443.4,373.1z"/>
					</g>
					<g>
						<path class="st6" d="M443,368.3c0.2,0,0.4-0.2,0.4-0.4c0.1-0.3-0.1-0.6-0.3-0.7c-7-2.2-13.5,1.6-13.8,1.8
							c-0.2,0.2-0.3,0.5-0.1,0.7c0.2,0.2,0.5,0.3,0.7,0.1c0.1,0,6.3-3.7,12.9-1.6C442.8,368.3,442.9,368.3,443,368.3z"/>
					</g>
					<g>
						<path class="st7" d="M442.4,363.6c0.2,0,0.4-0.2,0.4-0.4c0.1-0.3-0.1-0.6-0.3-0.7c-6.6-2.1-13.6,1.8-13.9,1.9
							c-0.2,0.2-0.3,0.5-0.2,0.7c0.2,0.2,0.5,0.3,0.7,0.2c0.1,0,6.8-3.8,13-1.8C442.3,363.6,442.3,363.6,442.4,363.6z"/>
					</g>
				</g>
			</g>
			<g>
				<path class="st5" d="M426.9,169c2,14.9,2.7,18.5,4.9,51.7c2.2,32.1,2.3,36.9,2.7,40.7c0.7,8.9,4.7,11.9,5.8,32.9
					c1.1,19.2,1.7,42.9,1.7,42.9s-2.6,3.6-9.9,4.2c-6.7,0.6-10.1-1.9-10.1-1.9s-12.5-44.8-16-56c-4.7-15.3-11.4-42.2-11.4-42.2
					l-4.4,30.7c0,0,1.4,14.7-1.4,28.6c-3.5,17.2-7.2,36-7.2,36s-4.4,1.8-10.2,1.3c-7.9-0.8-10.5-2.6-10.5-2.6s-2.2-52.1-2.2-71.1
					c0-19,0.2-65.6,1.3-95.2H426.9z"/>
				<path class="st4" d="M394.5,241.3L389,208c0,0-11-2.9-18.1-10.3c0.5,5.5,10.3,12.6,14.9,13.7l6.1,29.5l-1.9,31.1L394.5,241.3z"
					/>
				<path class="st4" d="M407.3,174.2c1.7,2.7,3,5.7,4.1,8.7c1.1,3,2,6.1,2.8,9.3c0.7,3.1,1.3,6.3,1.7,9.5c0.4,3.2,0.7,6.4,0.6,9.6
					c-0.8-3.1-1.5-6.2-2.2-9.3c-0.7-3.1-1.4-6.2-2.2-9.3c-0.7-3.1-1.5-6.2-2.3-9.2C409.1,180.3,408.2,177.2,407.3,174.2z"/>
				<path class="st4" d="M411.5,175.3c1.6,1.5,3,3.1,4.4,4.9c1.3,1.7,2.5,3.6,3.5,5.5c1,1.9,2,3.9,2.7,6c0.7,2.1,1.3,4.2,1.5,6.4
					l-2.9-5.8c-1-1.9-2-3.8-3-5.6c-1-1.9-2.1-3.7-3.1-5.6C413.5,179.2,412.4,177.3,411.5,175.3z"/>
				<path class="st4" d="M407.1,213.4c1.4,10,2.6,20,3.9,29.9c1.3,10,3.7,21,5.5,30.8c1.9,9.8,11.7,51.5,13.2,61.4
					c-2.3-9.8-13.3-51.1-15.2-61.1c-1.8-9.9-4.1-21-5.1-31C408.4,233.5,407.7,223.4,407.1,213.4z"/>
				<path class="st4" d="M369.8,213.8l-1.6,26.2c-0.2,4.4-0.5,8.7-0.7,13.1c-0.2,4.4-0.5,8.7-0.4,13.1c0.1,4.3,0.4,46.2-0.2,55
					c-1-9.8-1.5-46.1-1.8-54.9c0-8.9,0.8-17.6,1.6-26.3C367.4,231.2,368.4,222.5,369.8,213.8z"/>
				<path class="st5" d="M382.3,332.4l-1.5,9.1c0,0-3.7,2.3-11.3,1.5s-8.8-3.3-8.8-3.3v-8.6c0,0,1.8,1.8,8.8,2.6
					C376.6,334.6,382.3,332.4,382.3,332.4z"/>
				<path class="st5" d="M441.8,330.9l0.7,9.2c0,0-3,3.1-10.6,4.1c-7.6,1-9.3-1.1-9.3-1.1l-2-8.3c0,0,2.2,1.3,9.2,0.4
					C436.7,334.3,441.8,330.9,441.8,330.9z"/>
			</g>
		</g>
		<g id="Top_16_">
			<g id="aRM">
				<polygon class="st8" points="266.6,67.4 197.2,18.9 43.6,107.5 43.6,248.5 197.2,159.8 286.1,94.3 				"/>
				<path class="st3" d="M372.5,89.9c-8.1,1.5-12.9,3.3-19.3,12.9c-5.4,8-16.5,22.5-16.5,22.5s-14.8-12.9-17-16.7
					c-3.3-5.6-27.8-4.3-22.2,3.8c1.6,2.3,6.1,3.9,8.5,6.9c5.7,7.3,11.7,18.6,17.2,25.2c5.9,7.1,11.2,11.1,14.2,11.1
					c3.8,0,9.6-6.2,11.2-8.1c6.4-7.4,19.8-23.1,19.8-23.1L372.5,89.9z"/>
				<path class="st9" d="M311.6,112.5c-0.5-0.2-1.1-0.9-1.3-1.4c-0.3-0.6-0.4-1.3-0.5-1.9c-0.2-1.5-0.4-2.9-0.6-4.4
					c-0.2-1.4-0.4-2.8-0.6-4.1c-0.2-1.1-0.6-2.2-1.4-3c-0.5-0.5-1.5,0.2-0.9,0.7c0.9,0.9,1.1,2.3,1.3,3.5c0.2,1.6,0.5,3.2,0.7,4.8
					c0.2,1.4,0.3,3,0.8,4.3c0.5,1.3,1.3,1.9,2.6,2.2C312,113.2,311.8,112.6,311.6,112.5z"/>
				<path class="st10" d="M372.5,89.2c-8.2,1.5-11.5,2.7-16.5,8.8c-5,6.1-15.7,22.2-15.7,22.2s1.8,6.3,6.8,11.2
					c5,4.9,9.7,6.8,9.7,6.8l12.8-13.7L372.5,89.2z"/>
				<g>
					<g id="Barcode_Lector">
						<g>
							<path class="st5" d="M307,80.5c-1.4,0.8-1,3.4,0.1,9.5s3.1,19.3,3.1,19.3s-3.1,1.3-5.6,2.5c-2.5,1.1-6.7,2.2-8.7,0.2
								c-2-1.9,0.1-4.3,3.5-5.9l-4.6-16.4c0,0-0.1-3,5-5.8C304.8,81,307,80.5,307,80.5z"/>
							<path class="st10" d="M296.8,86c-2.1,2-2,3.7-2,3.7l4.6,16.4c0.4,1.3,1.5,4,3.6,2.8c2.1-1.2,4.3-6.3,2.1-12.7
								C303.2,90.3,299,87.1,296.8,86z"/>
							<path class="st11" d="M307,80.5c0,0-2.2,0.6-7.3,3.4c-5.1,2.9-5,5.8-5,5.8l0.4,1.5c1.9-1.3,4.6-3.2,6.7-5
								c2.6-2.1,3.4-3.1,4.3-3.7C306.2,81.4,306.4,80.8,307,80.5z"/>
						</g>
						<g>
							<path class="st10" d="M298.8,66.2c0.1-0.6-0.6-0.8-3.3-1.3c-6.6-1.1-14.3-1.6-22.3,0.8l-2.1,0.6L288.3,83l-0.8,3.3
								c0,0,12.3-3.5,16.4-4.7c4.1-1.2,5.7-2.6,6.3-4.9l0.3-1.2l-6.5-6.3L298.8,66.2z"/>
							<path class="st5" d="M308.5,69.6c-1.3-1.2-4.2-2-6.6-2.6c-1.8-0.4-3.2-0.8-3.2-0.8s-6.7,1.3-2.7,5.3c4,4,15.1,1.2,14.1,5.2
								C311.2,72.5,310.7,71.7,308.5,69.6z"/>
							<path class="st12" d="M295.9,67.4L295.9,67.4c-1.2,0.8-1.8,2.2,0.2,4.2c1.4,1.4,3.7,2,6.1,2.3c-2.7-0.7-5-2.6-5.6-3.6
								C295.9,69.3,295.3,68,295.9,67.4z"/>
							<path class="st5" d="M305.4,81.1c-0.4,1.6-10.3,8.6-15.8,11.7c-1.9,1-3.5,1.8-4.8,2.3c-2.3,0.9-4.9,0.4-6.7-1.3l-10.6-10.3
								c-1.6-1.5-2.2-3.8-1.7-5.9l1-4.2c0.3-1.3-0.2-2.5-0.9-3.5c-0.7-1.1-0.2-2.5,1-2.9c1.2-0.3,2.5-0.7,3.7-1
								c2.4-0.7,5.3,1.6,11.7,7.8c6.4,6.2,7.5,9.3,6.8,12L305.4,81.1z"/>
							<path class="st4" d="M289.2,85.8c-0.8,3.1-1.4,7-2.7,8.5c1.1-0.9,1.5-1,3.4-8.8L289.2,85.8z"/>
							<path class="st4" d="M266,69.9c0.7,1,1.2,2.3,0.9,3.5l-1,4.2c-0.5,2.1,0.1,4.4,1.7,5.9l10.6,10.3c1.8,1.7,4.4,2.2,6.7,1.3
								c1.3-0.5,2.9-1.3,4.8-2.3c0.4-0.2,0.8-0.5,1.3-0.7c-0.1,0.1-6.3,2.9-8.1,2.8c-2.5-0.1-3.7-1-6.1-3.4c-2.6-2.6-7.7-7.6-8.8-9
								c-0.4-0.5-0.9-1.8-0.2-2.3c1.8-1.1,3.8-1,4.3-0.6c1.4,1.3,11.3,11,11.3,11c0.7-2.8-0.1-5.6-3.5-9.4
								c-3.4-3.9-8.8-8.6-11.2-10.7c-2.5-2.1-2.5-2.8-1.6-3.4C265.8,67.4,265.3,68.8,266,69.9z"/>
							<path class="st12" d="M283.3,90.6c0,0,0.8-2.6-1.4-5.9c-2.5-3.8-8.1-8.9-10.2-10.9l-1.1,4.5L283.3,90.6z"/>
							<path class="st4" d="M285.3,72l1.3,1.3c0.9,0.9,2.5,1.3,3.6,1s1.3-1.3,0.4-2.1l-1.3-1.3c-0.9-0.9-2.5-1.3-3.6-1
								C284.6,70.2,284.4,71.1,285.3,72z"/>
						</g>
					</g>
					<g>
						<path class="st9" d="M306.4,86l0.7,4.6l5.7,0.6C310.5,89,306.4,86,306.4,86z"/>
						<path class="st9" d="M308.1,106c0.2-0.8-0.8-2.6-1.6-2.8c2.1-0.5,2.4-1.5,2.2-2.5c-0.2-1-1.8-2.2-1.8-2.2s1-0.3,1.3-1.1
							c0.3-0.8-0.6-2.3-2.1-3.1c-1.5-0.7-4.2-0.3-5.7-0.4c-1.6-0.1-5.3-3-5.3-3l-0.3-1.2l-4.6,2.8c0,0,0.8,0.8,0.5,1.9
							c-0.3,1.1-1.1,2.5-0.5,3.5c0.6,1,0.7,1.2,0.4,2.3c-0.6,1.2-0.4,2.2,0,3c0,0,0.5,1,0,1.9c-0.5,0.8,0.1,2.1,0.7,2.5
							s4,2.8,5.8,3.5c1.8,0.6,2.1,0.3,4-0.1c1.9-0.4,3.8-0.9,3.8-1.6c0-0.7-0.7-1.3-1.7-1.6c0.5-0.1,1-0.2,1.4-0.3
							C306.7,106.8,307.9,106.8,308.1,106z"/>
						<path class="st3" d="M319.7,108.6c-3.6-5.6-2.7-13.8-4.3-15.6c-1.5-1.9-8.6-4.6-10-4.6c-2.2,0-5.4,3.7-7.4,6.1
							c-1.4,1.6,0.5,2.6,2.1,2.6c2.8,0,5-2.1,5-2.1l3,1.4c0,0,2.2,14.8,2.3,14.5C310.5,110.6,319.7,108.6,319.7,108.6z"/>
					</g>
				</g>
				<path class="st9" d="M336.7,125.3c3,2.9,6.9,6.9,7.6,10.9c1.5-5.3-3.6-10.5-5.9-13.2L336.7,125.3z"/>
			</g>
			<path id="Chest_00000114789054041174476480000002565183309398780052_" class="st10" d="M407.9,86.4c4.2,0.9,9.5,2,14.9,3.4
				c5.4,1.5,6.1,1.8,7.9,2.4c0,0,2.8,12.3,1.2,41.6c-0.2,4.3-3.4,16-3.9,25c-0.7,12.2-0.3,17.6,0.8,28.1c0,0-10.7,10.3-40.4,8.1
				c-23.3-1.8-29.3-11.9-29.3-11.9s0.3-37.3,0.9-54.4c0.8-22.6,7.6-35.6,12.7-39.5l15.3-2.5L407.9,86.4z"/>
			<g id="Head_1_">
				<g>
					<g id="XMLID_541_">
						<g id="XMLID_00000080178676494918776400000012178384223656864951_">
							<path class="st5" d="M414,38.2c0,0,3.6,0.3,5.9,4.8c1.2,2.3,2,6.4-1.2,18.3c-2.1,7.6-4.6,11-5.7,13.1
								c-1.1,2.1-3.4,2.7-3.4,2.7l0.2-9.1l0.3-6.4c0,0-5.1-4.7-5.6-9.2c-0.6-5.9,1.7-9.2,1.7-9.2L414,38.2z"/>
							<path class="st5" d="M415.2,38.5c-0.9-5.1-7.4-11.2-19.9-11.9c-10.3-0.5-16,3.2-19.9,9c-4,6.1-1.2,13.8-1.2,13.8l32.3-2.1
								L415.2,38.5z"/>
							<path class="st3" d="M418.2,70.7c-4.7,2.3-6.9-1.4-6.9-1.4L410.6,88c-9.1,12.1-33.3,7.8-23.4-1.3l0-4.3c0,0-1.6,0-4.1-0.4
								c-4.2-0.7-7.1-3.4-8.4-8c-1.8-6.7-1.3-21.2-0.2-29.2c0.3-2.2,1.9-4.9,3.9-5.9c5-2.5,9.7,1.1,16.7,3.8
								c2.9,1.1,9.9,1.6,11.8,0.8c-2.4,2.7-2.4,11.2,1.2,14.7c0.6,1.2,1.3,1.9,1.8,2.3c1.5,1.3,2.8-2.1,4.1-3.4
								c1.3-1.3,6.1-2.5,8.2,1.9C424.3,63.6,422.6,68.5,418.2,70.7z"/>
							<path class="st13" d="M387.3,86.7c0,0-13.2,6.3-17.1,21.4c-3.9,15-5,58.3-5.1,72.6c-0.1,14.2,0,19.5,0,19.5s0-1.2-8.1-4.5
								c0-16.7,1.2-72.6,3.6-83.9c3.9-18.5,12-22.6,12-22.6L387.3,86.7z"/>
							<g>
								<path class="st0" d="M357.5,162.6c-0.1,1.9-0.1,3.8-0.2,5.7c2.6,1.6,5.4,2.7,7.9,3.5c0-1.8,0.1-3.7,0.1-5.7
									C362.8,165.2,359.9,164,357.5,162.6z"/>
								<path class="st0" d="M357.2,177c0,1.8-0.1,3.5-0.1,5.2c2.6,1.6,5.4,2.6,8,3.3c0-1.5,0-3.1,0-4.9c0,0,0-0.1,0-0.1
									C362.6,179.8,359.8,178.7,357.2,177z"/>
							</g>
							<path class="st13" d="M410.7,86l-0.1,2c0,0-3.3,9.5-5.6,21.9c-1.2,6.8-1.7,14.7-2.3,21.7c-1.3,17.1-1.6,58-1.6,72.1
								c9.9,1.9,23.6,0,29.8-4.6c-1.2-18.8-2.3-28.5-1.3-42.7c1.1-14.9,7.3-42.7,1.5-64.8C425.9,90.3,417.5,87.8,410.7,86z"/>
							<path class="st0" d="M429.7,180.9c-5.2,4.2-17.1,7.6-28.5,7.3c0,1.9,0,3.6,0,5.3c0,0,18.7,0.8,28.8-7.4
								C429.9,184.3,429.8,182.5,429.7,180.9z"/>
							<path class="st0" d="M401.4,172.4c0,1.8,0,3.6-0.1,5.3c13.7,0.7,23.4-3,28-5.3c-0.1-2-0.1-3.9-0.1-5.8
								C423.1,169.9,413.2,173.3,401.4,172.4z"/>
							<path class="st9" d="M387.3,82.4c5.5,0,10.4-0.7,13.6-2.1c3.2-1.4,6.1-5.7,7.1-10.1c0,3.5-1.5,9.7-6.4,12.3
								c-4.9,2.6-10.6,2.7-14.2,2.8L387.3,82.4z"/>
						</g>
						<g id="XMLID_542_">
							<path id="XMLID_552_" class="st5" d="M394.9,50.3l4.6,2.1c0.6-1.3,0-2.8-1.3-3.4C396.9,48.4,395.5,49,394.9,50.3z"/>
							<path id="XMLID_545_" class="st5" d="M376.8,51l4.8-1.7c-0.4-1.3-1.8-2.1-3.2-1.6C377.1,48.2,376.4,49.7,376.8,51z"/>
							<path class="st4" d="M397.4,55.7c-0.1,1.1-1.1,2-2.2,1.9c-1.1-0.1-2-1.1-1.9-2.2c0.1-1.1,1.1-2,2.2-1.9
								C396.6,53.6,397.5,54.6,397.4,55.7z"/>
							<path class="st4" d="M381.9,55c-0.1,1.1-1.1,2-2.2,1.9c-1.1-0.1-2-1.1-1.9-2.2c0.1-1.1,1.1-2,2.2-1.9
								C381.1,52.9,382,53.9,381.9,55z"/>
							<path id="XMLID_00000070834791852507661070000007200470087308975783_" class="st9" d="M389.1,52l-1.6,13l-7.4-2.8
								C382.8,57.7,385.8,54.3,389.1,52z"/>
						</g>
					</g>
				</g>
				<path id="XMLID_00000170995339706687306580000008265994555697498811_" class="st14" d="M392.9,68.6l-5.4,1.6
					c0.4,1.5,1.9,2.4,3.4,2C392.4,71.7,393.3,70.1,392.9,68.6z"/>
				<path class="st9" d="M392.3,69.5c0.2,0,0.5,0,0.7,0c-0.1,1.2-0.9,2.3-2.1,2.7c-0.3,0.1-0.6,0.1-0.9,0.1
					C389.9,71,390.9,69.8,392.3,69.5z"/>
			</g>
			<g>
				<g id="Box_00000011721767395025011030000017424001097688600704_">
					<g>
						<polygon class="st15" points="281.9,143.3 323.7,155.7 343.8,137.1 302,124.7 						"/>
						<polygon class="st16" points="281.9,143.3 323.7,155.7 343.8,137.1 302,124.7 						"/>
						<polygon class="st15" points="281.9,143.3 328.6,200.4 370.4,212.8 323.7,155.7 						"/>
						<polygon class="st17" points="281.9,143.3 328.6,200.4 370.4,212.8 323.7,155.7 						"/>
						<polygon class="st15" points="343.8,137.1 390.5,194.2 370.4,212.8 323.7,155.7 						"/>
						<polygon class="st18" points="343.8,137.1 390.5,194.2 370.4,212.8 323.7,155.7 						"/>
					</g>
					<path class="st4" d="M305.8,150.4l-6-1.8l46.7,57.1l6,1.8L305.8,150.4z"/>
					<path class="st10" d="M308.6,140.5l-8.8,8.1l6,1.8l8.8-8.1L308.6,140.5z"/>
				</g>
				<path id="Shadow_00000175316348009380865680000013636810664049604511_" class="st19" d="M381.2,182.9l-15.1-18.4
					c-1,0.3-1.8,1-2.9,1.2c-1.7,0.3-3.3,0.4-5,0.4c-3.4-0.1-6.8-0.8-10.1-1.6c-1.8-0.5-3.6-1-5.5-1.5c-1-0.3-2.5-0.4-2.9,0.6
					c-0.3,0.8,0.2,1.6,0.8,2.2c3.5,3.4,8.8,3.7,13,6.1c0.3,0.2,0.7,0.5,0.6,0.8c-0.1,0.3-0.4,0.4-0.8,0.5c-3.9,0.7-13.3,1.4-17,2.6
					c-0.7,0.2-1.5,0.7-1.5,1.4c0,0.5,0.4,0.9,0.9,1.2c0.9,0.6,1.9,0.9,2.9,1.1c-0.5,0.7-0.2,1.7,0.5,2.2c0.6,0.5,1.5,0.7,2.3,0.9
					c1.3,0.3,2.7,0.5,4,0.6c0,0.6-0.8,0.5-1.4,0.7c-0.7,0.2-0.9,1.1-0.6,1.8s0.8,1.1,1.4,1.5c1.6,1.1,3.5,2.1,5.5,2
					c0.9-0.1,1.7-0.3,2.5-0.5c6.6-2,18.5-5,25.4-5.4C379.3,183,380.3,183,381.2,182.9z"/>
				<g id="Arm_00000076587835727760392600000014363084205341173182_">
					<g>
						<path class="st3" d="M379.1,166.3c-2.7,0.4-5.3-1.5-7.4-4.3c-2.1-2.8-3-5.4-7-6.1c-4.1-0.7-6.3-0.9-6.3-0.9l3.6,4.4
							c0,0,3.2,4.1-0.6,5.1c-2.4,0.6-5,0.6-9.4-0.8c-7.2-2.3-11.1-4-11.9-1.8c-0.8,2.2,1.4,2.8,4.1,4c2.6,1.2,9.1,3.5,10.7,4.3
							c1.6,0.8,1.8,1.6-1.5,2.1c-3.3,0.6-14,1.4-16.2,1.7c-2.2,0.2-3.2,1.8-2.1,2.7s5,1.5,5,1.5s-2.1,2.7,2,3.4
							c4.1,0.7,13.8-0.2,14.4-0.1c0.6,0.1-6.6,2.5-7.6,2.6c-1,0-5-1.5-5.5-0.7c-0.5,0.9,0.1,1.9,1.7,2.5c1.6,0.7,3.9,2.5,5.6,2.1
							s10.6-3.6,13.2-4.1s15.9-3.5,15.9-3.5L379.1,166.3z"/>
						<path class="st3" d="M430.7,92.3c-6.4,3.8-11.6,14.1-12.7,23.8c-1.1,9.7-3.4,34.6-3.4,34.6s-21.9,9.6-27.7,11.5
							c-5.7,1.9-12,3.2-15.2-0.2l2.2,19.8c0,0,22.2-3.5,32.6-5.5c11-2.1,18-4.1,21.4-5.5c6-2.4,7.6-2.8,9.5-13.3
							c1.6-9,3.3-26.3,4.5-35.1C443.1,113.6,444.5,96.2,430.7,92.3z"/>
						<g>
							<path class="st9" d="M340,178.2c1.7,0,3.4-0.1,5.1-0.2l5.1-0.3l2.6-0.1c0.9,0,1.7-0.1,2.5-0.2l5.1-0.6c-1.7,0.4-3.3,0.7-5,1
								c-1.7,0.3-3.4,0.2-5.1,0.3c-1.7,0.1-3.4,0.2-5.1,0.2C343.5,178.3,341.7,178.4,340,178.2z"/>
						</g>
					</g>
					<path class="st10" d="M430.2,91.5c4.1,1,8.7,2.9,10.9,9.1c2.2,6.2,2.5,9.9,1.5,21.8c-1,11.9-2.7,22.8-2.7,22.8
						s-3.5,1.3-11.9,0.7c-8.4-0.6-13.1-4.4-13.1-4.4s1.7-18.7,2.5-26.6C418.2,107,421.6,95.7,430.2,91.5z"/>
				</g>
			</g>
		</g>
	</g>
</g>
<g id="Cargo_Car_00000110442395377405425330000002376550636179373460_">
	<g id="Cargo_Car">
		<g id="Cargo_Car_00000049216572566111687060000010411969207720558231_">
			<path class="st2" d="M238.3,184.5L187.2,214c-5.6,3.2-10.2,11.2-10.2,17.7v112.9l-4.8,2.7V227.8c0-6.5,4.6-14.4,10.2-17.7
				l56.1-32.4c5.6-3.2,10.2-0.6,10.2,5.9v119.5l-4.8,2.8l0-118.2C244,184.2,241.4,182.7,238.3,184.5z"/>
			<g>
				<path id="XMLID_1103_" class="st10" d="M283.3,436.1c0-5.8-4.1-12.9-9.1-15.8c-2.6-1.5-5-1.6-6.7-0.5l0,0l-6.2,3.5l13.1,22.2
					l6.1-3.5l0,0C282.3,441.1,283.3,439.1,283.3,436.1z"/>
				<path id="XMLID_1101_" class="st5" d="M267.8,424c5,2.9,9.1,10,9.1,15.8c0,5.8-4.1,8.2-9.1,5.3c-5-2.9-9.1-10-9.1-15.8
					C258.7,423.4,262.8,421,267.8,424z"/>
				<path id="XMLID_965_" class="st4" d="M264.7,432.7c0-2.3,1.4-3.3,3.1-2.3c1.7,1,3.1,3.6,3.1,5.9s-1.4,3.3-3.1,2.3
					C266.1,437.6,264.7,435,264.7,432.7z"/>
				<path id="XMLID_791_" class="st6" d="M278.5,414.2c0,0,0,10.4-5,14.1c-0.9,0.7-1.9,1.2-2.5,1.7c-1.3,1.1-0.4,3,1.1,3.8
					c2.2,1.2,14.4-2,19.6-12L278.5,414.2z"/>
				<path id="XMLID_00000075869363902382811600000007796465822918753688_" class="st0" d="M273.8,417c0,0,0,10.4-5,14.1
					c-0.9,0.7-1.9,1.2-2.5,1.7c-1.3,1.1-0.4,3,1.1,3.8c2.2,1.2,14.4-2,19.6-12L273.8,417z"/>
				<path id="XMLID_00000116226200012608262160000013105484361708520340_" class="st4" d="M267.8,433.5c0.5,0.3,0.9,1,0.9,1.5
					s-0.4,0.8-0.9,0.5c-0.5-0.3-0.9-1-0.9-1.5S267.3,433.2,267.8,433.5z"/>
			</g>
			<g>
				<path id="XMLID_00000132078431282522929480000006394142773421432764_" class="st10" d="M184.2,378.9c0-5.8-4.1-12.9-9.1-15.8
					c-2.6-1.5-5-1.6-6.7-0.5l0,0l-6.2,3.5l13.1,22.2l6.1-3.5l0,0C183.1,383.9,184.2,381.8,184.2,378.9z"/>
				<path id="XMLID_487_" class="st5" d="M168.7,366.7c5,2.9,9.1,10,9.1,15.8c0,5.8-4.1,8.2-9.1,5.3c-5-2.9-9.1-10-9.1-15.8
					C159.6,366.2,163.6,363.8,168.7,366.7z"/>
				<path id="XMLID_481_" class="st4" d="M165.6,375.5c0-2.3,1.4-3.3,3.1-2.3c1.7,1,3.1,3.6,3.1,5.9c0,2.3-1.4,3.3-3.1,2.3
					C167,380.4,165.6,377.8,165.6,375.5z"/>
				<path id="XMLID_478_" class="st6" d="M179.4,357c0,0,0,10.4-5,14.1c-0.9,0.7-1.9,1.2-2.5,1.7c-1.3,1.1-0.4,3,1.1,3.8
					c2.2,1.2,14.4-2,19.6-12L179.4,357z"/>
				<path id="XMLID_474_" class="st0" d="M174.7,359.7c0,0,0,10.4-5,14.1c-0.9,0.7-1.9,1.2-2.5,1.7c-1.3,1.1-0.4,3,1.1,3.8
					c2.2,1.2,14.4-2,19.6-12L174.7,359.7z"/>
				<path id="XMLID_473_" class="st4" d="M168.7,376.3c0.5,0.3,0.9,1,0.9,1.5c0,0.6-0.4,0.8-0.9,0.5c-0.5-0.3-0.9-1-0.9-1.5
					C167.8,376.2,168.2,376,168.7,376.3z"/>
			</g>
			<g>
				<polygon class="st10" points="167.5,350.1 253.5,300.4 387.4,377.7 301.3,427.4 				"/>
				<polygon class="st5" points="167.5,350.1 167.5,355.6 301.3,432.9 301.3,427.4 				"/>
				<polygon class="st4" points="387.4,377.7 387.4,383.2 301.3,432.9 301.3,427.4 				"/>
			</g>
		</g>
		<g id="Items">
			<polygon id="Shadow_00000021114496738056266990000012496730647514966145_" class="st5" points="175,349.8 250.4,393.4 330,347.5 
				254.4,304 			"/>
			<g id="Box_00000101076251124536332000000002614332343053741755_">
				<g id="XMLID_4745_">
					<polygon id="XMLID_4746_" class="st12" points="322.7,299.8 253.7,259.9 181,301.9 250,341.8 					"/>
					<polygon id="XMLID_4743_" class="st20" points="330.7,303.5 261.7,263.6 188.9,305.6 258,345.6 					"/>
				</g>
				<g id="XMLID_4740_">
					<polygon id="XMLID_4741_" class="st13" points="250,390.1 322.7,348 322.7,299.8 250,341.8 					"/>
				</g>
				<g>
					<g id="XMLID_4707_">
						<g id="XMLID_4712_">
							<path id="XMLID_4715_" class="st10" d="M258.5,372.6c-0.3,0-0.6-0.1-0.8-0.2c-0.6-0.4-1-1.2-1-2.2v-6.5c0,0,0,0,0,0v-0.5
								l0.3,0.1l5.1-3v7.3c0,1.9-1.1,4-2.5,4.8C259.2,372.5,258.8,372.6,258.5,372.6z M257.5,364.1v6.1c0,0.7,0.2,1.3,0.6,1.5
								c0.4,0.2,0.8,0,1.1-0.1c1.1-0.7,2.1-2.5,2.1-4.1V367h-1.9l-0.4-2.6L257.5,364.1z M260.1,366.2h1.2v-4.5l-3.1,1.8l1.5,0.3
								L260.1,366.2z"/>
						</g>
						<g id="XMLID_4710_">
							<path id="XMLID_4711_" class="st10" d="M259.4,377.9c-0.2,0-0.4-0.2-0.4-0.4V372c0-0.2,0.2-0.4,0.4-0.4
								c0.2,0,0.4,0.2,0.4,0.4v5.5C259.8,377.7,259.6,377.9,259.4,377.9z"/>
						</g>
						<g id="XMLID_4708_">
							<path id="XMLID_4709_" class="st10" d="M257,379.2c-0.1,0-0.3-0.1-0.4-0.2c-0.1-0.2,0-0.4,0.1-0.6l4.8-2.8
								c0.2-0.1,0.4-0.1,0.6,0.2c0.1,0.2,0,0.4-0.1,0.6l-4.8,2.8C257.2,379.2,257.1,379.2,257,379.2z"/>
						</g>
					</g>
					<g id="XMLID_4700_">
						<g id="XMLID_4705_">
							<path id="XMLID_4706_" class="st10" d="M274.1,369.8c-0.2,0-0.3,0-0.5-0.1c-0.3-0.2-0.5-0.5-0.5-1v-1.1
								c0-0.2,0.2-0.4,0.4-0.4c0.2,0,0.4,0.2,0.4,0.4v1.1c0,0.2,0,0.3,0.1,0.3c0,0,0.1,0,0.3-0.1c0.4-0.2,0.8-1,0.8-1.9v-7.3
								c0-0.2,0.2-0.4,0.4-0.4c0.2,0,0.4,0.2,0.4,0.4v7.3c0,1.1-0.5,2.2-1.2,2.6C274.5,369.7,274.3,369.8,274.1,369.8z"/>
						</g>
						<g id="XMLID_4701_">
							<path id="XMLID_4702_" class="st10" d="M269.7,363.4v-0.7c0-3.4,2.4-7.4,5.3-9.1c1.5-0.9,2.9-1,4-0.4
								c1.1,0.6,1.7,1.9,1.7,3.6v0.2L269.7,363.4z M277.5,353.6c-0.6,0-1.3,0.2-2.1,0.6c-2.5,1.4-4.5,4.7-4.8,7.7l9.3-5.3
								c0-1.3-0.5-2.2-1.3-2.7C278.2,353.7,277.9,353.6,277.5,353.6z"/>
						</g>
					</g>
					<g id="XMLID_4631_">
						<g id="XMLID_4695_">
							<g id="XMLID_4698_">
								<path id="XMLID_4699_" class="st10" d="M288.8,361.3c-0.2,0-0.4-0.2-0.4-0.4v-14c0-0.2,0.2-0.4,0.4-0.4
									c0.2,0,0.4,0.2,0.4,0.4v14C289.3,361.2,289.1,361.3,288.8,361.3z"/>
							</g>
							<g id="XMLID_4696_">
								<path id="XMLID_4697_" class="st10" d="M287.6,350.1c-0.1,0-0.1,0-0.2,0c-0.2-0.1-0.3-0.3-0.2-0.5l1.5-3.4l1.6,1.9
									c0.2,0.2,0.1,0.4,0,0.6c-0.2,0.1-0.4,0.1-0.6,0l-0.8-0.9l-0.9,2.2C288,350,287.8,350.1,287.6,350.1z"/>
							</g>
						</g>
						<g id="XMLID_4638_">
							<g id="XMLID_4693_">
								<path id="XMLID_4694_" class="st10" d="M292.7,359.2c-0.2,0-0.4-0.2-0.4-0.4v-14c0-0.2,0.2-0.4,0.4-0.4
									c0.2,0,0.4,0.2,0.4,0.4v14C293.1,359,292.9,359.2,292.7,359.2z"/>
							</g>
							<g id="XMLID_1085_">
								<path id="XMLID_4690_" class="st10" d="M291.5,347.9c-0.1,0-0.1,0-0.2,0c-0.2-0.1-0.3-0.3-0.2-0.5l1.5-3.4l1.6,1.9
									c0.2,0.2,0.1,0.4,0,0.6c-0.2,0.1-0.4,0.1-0.6,0l-0.8-0.9l-0.9,2.2C291.8,347.8,291.6,347.9,291.5,347.9z"/>
							</g>
						</g>
					</g>
				</g>
				<g id="XMLID_4558_">
					<polygon id="XMLID_4564_" class="st13" points="250,390.1 181,350.2 181,301.9 250,341.8 					"/>
					<polygon id="XMLID_4557_" class="st21" points="250,390.9 181,351 181,302.7 250,342.7 					"/>
					<g>
						<g id="XMLID_00000114067040373815809190000001850506882919618983_">
							<path id="XMLID_00000018206676250662661530000013569572713097352882_" class="st0" d="M189.7,331.1l20.3,11.7
								c0.5,0.3,0.9,1,0.9,1.6l0,14.1c0,1.2-0.8,1.6-1.8,1.1l-20.3-11.7c-0.5-0.3-0.9-1-0.9-1.6l0-14.1
								C187.9,331,188.7,330.5,189.7,331.1z"/>
						</g>
						<g id="XMLID_00000049920315634863923360000004057365707795451549_">
							<g id="XMLID_00000160868580884276106700000006143558090634126725_">
								<polygon id="XMLID_00000003822057184405684770000017305301394838611343_" class="st10" points="189.2,333.3 189.9,333.7 
									189.9,346.1 189.2,345.7 								"/>
							</g>
							<g id="XMLID_00000101806921161136552820000005421246906048849050_">
								<polygon id="XMLID_00000052099610112674705400000014320899784658461109_" class="st10" points="192,334.9 193.2,335.6 
									193.2,348.1 192,347.4 								"/>
							</g>
							<g id="XMLID_00000085212458994363404660000007789678938020649630_">
								<polygon id="XMLID_00000023278664559206755860000017817391600822459320_" class="st10" points="194.8,336.5 195.5,336.9 
									195.5,349.4 194.8,349 								"/>
							</g>
							<g id="XMLID_00000035526105603147685980000003507655146565784196_">
								<polygon id="XMLID_00000147198934116455666930000017864843717066141886_" class="st10" points="196.9,337.7 198.3,338.6 
									198.3,351 196.9,350.2 								"/>
							</g>
							<g id="XMLID_00000149350957571692802730000011120578336260425102_">
								<polygon id="XMLID_00000110451282809875877310000002157593965119950976_" class="st10" points="200.4,339.8 201.1,340.2 
									201.1,352.6 200.4,352.2 								"/>
							</g>
							<g id="XMLID_00000050626400814151767450000009815684019025501834_">
								<polygon id="XMLID_00000004524127612751033270000017422287731221693887_" class="st10" points="202.4,340.9 203.9,341.8 
									203.9,354.2 202.4,353.4 								"/>
							</g>
							<g id="XMLID_00000062889037510719480960000013984333909029817272_">
								<polygon id="XMLID_00000181051548338294230230000003299777339390300084_" class="st10" points="206,343 206.7,343.4 
									206.7,355.8 206,355.4 								"/>
							</g>
							<g id="XMLID_00000171697541541767678910000003083566283672348804_">
								<polygon id="XMLID_00000124146797093370047700000016092419665395368635_" class="st10" points="207.6,343.9 208,344.1 
									208,356.6 207.6,356.4 								"/>
							</g>
							<g id="XMLID_00000060741332899351741060000013149402746001476248_">
								<polygon id="XMLID_00000116205976533674740270000002413975953524236168_" class="st10" points="204.8,342.3 205.1,342.5 
									205.1,355 204.8,354.8 								"/>
							</g>
							<g id="XMLID_00000164485871847661963480000001401207497763207868_">
								<polygon id="XMLID_00000031888275235103760600000003548657344943565725_" class="st10" points="199.1,339 199.4,339.2 
									199.4,351.7 199.1,351.5 								"/>
							</g>
							<g id="XMLID_00000118397001250988956750000007955578738391342997_">
								<polygon id="XMLID_00000037685573703831536260000000765082594324380094_" class="st10" points="196,337.3 196.4,337.5 
									196.4,349.9 196,349.7 								"/>
							</g>
							<g id="XMLID_00000028297109199463049740000012828493766329886628_">
								<polygon id="XMLID_00000093169800402906675460000000792217330120990137_" class="st10" points="193.8,336 194.1,336.2 
									194.1,348.7 193.8,348.5 								"/>
							</g>
							<g id="XMLID_00000172416895967675544670000000088899079592368010_">
								<polygon id="XMLID_00000181780237883337641030000003248692577335220898_" class="st10" points="190.8,334.2 191.1,334.4 
									191.1,346.8 190.8,346.6 								"/>
							</g>
							<g id="XMLID_00000109022350266588601880000008023808990054712212_">
								<polygon id="XMLID_00000005967894333087739290000017937420072269420708_" class="st10" points="208.8,344.6 209.5,345 
									209.5,357.5 208.8,357.1 								"/>
							</g>
						</g>
					</g>
				</g>
				<g>
					<g id="XMLID_4554_">
						<polygon id="XMLID_4555_" class="st5" points="210,326 214.7,328.7 214.7,321.4 210,318.7 						"/>
					</g>
					<g id="XMLID_4547_">
						<polygon id="XMLID_00000142887793096528312890000004616145427970630280_" class="st10" points="214.7,321.4 287.4,279.3 
							282.7,276.6 210,318.7 						"/>
					</g>
				</g>
			</g>
			<polygon id="Shadow_00000134214376247410460880000011430188367936745349_" class="st21" points="182,301.4 238.1,333.7 
				309.8,292.3 253.7,259.9 			"/>
			<g id="Box_00000168086092608075083450000004212706278154340483_">
				<g id="XMLID_28325_">
					<g id="XMLID_28343_">
						<polygon id="XMLID_28977_" class="st12" points="304.1,245.8 248.2,213.6 182.1,251.8 238,284 						"/>
						<polygon id="XMLID_00000140008928779859771970000014803559230401156497_" class="st16" points="306.3,242.8 250.4,210.6 
							184.3,248.8 240.2,281 						"/>
					</g>
					<g id="XMLID_28342_">
						<polygon id="XMLID_28975_" class="st12" points="238,330.4 304.1,292.2 304.1,245.8 238,284 						"/>
						<polygon id="XMLID_1091_" class="st18" points="239.3,328.4 305.4,290.2 305.4,243.8 239.3,282.1 						"/>
					</g>
					<g>
						<g id="XMLID_28327_">
							<g id="XMLID_28326_">
								<path id="XMLID_28569_" class="st10" d="M247,312.5c-0.3,0-0.5-0.1-0.7-0.2c-0.6-0.3-0.9-1-0.9-1.9v-5.7c0,0,0,0,0,0v-0.4
									l0.3,0.1l4.5-2.6v6.4c0,1.6-1,3.4-2.2,4.2C247.6,312.4,247.3,312.5,247,312.5z M246.1,305.2v5.3c0,0.6,0.2,1.1,0.5,1.3
									c0.3,0.2,0.7,0,1-0.1c1-0.6,1.8-2.2,1.8-3.5v-0.5h-1.7l-0.3-2.2L246.1,305.2z M248.4,306.9h1V303l-2.7,1.6l1.3,0.2
									L248.4,306.9z"/>
							</g>
							<g id="XMLID_28329_">
								<path id="XMLID_28568_" class="st10" d="M247.8,317.1c-0.2,0-0.4-0.2-0.4-0.4v-4.8c0-0.2,0.2-0.4,0.4-0.4
									c0.2,0,0.4,0.2,0.4,0.4v4.8C248.1,316.9,248,317.1,247.8,317.1z"/>
							</g>
							<g id="XMLID_28357_">
								<path id="XMLID_28567_" class="st10" d="M245.7,318.3c-0.1,0-0.2-0.1-0.3-0.2c-0.1-0.2,0-0.4,0.1-0.5l4.2-2.4
									c0.2-0.1,0.4,0,0.5,0.1c0.1,0.2,0,0.4-0.1,0.5l-4.2,2.4C245.8,318.3,245.7,318.3,245.7,318.3z"/>
							</g>
						</g>
						<g id="XMLID_28339_">
							<g id="XMLID_28341_">
								<path id="XMLID_28566_" class="st10" d="M260.5,310c-0.1,0-0.3,0-0.4-0.1c-0.3-0.2-0.4-0.5-0.4-0.9v-1
									c0-0.2,0.2-0.4,0.4-0.4c0.2,0,0.4,0.2,0.4,0.4v1c0,0.1,0,0.2,0.1,0.2c0,0,0.1,0,0.2-0.1c0.3-0.2,0.7-0.9,0.7-1.6v-6.4
									c0-0.2,0.2-0.4,0.4-0.4c0.2,0,0.4,0.2,0.4,0.4v6.4c0,0.9-0.4,1.9-1,2.2C260.9,310,260.7,310,260.5,310z"/>
							</g>
							<g id="XMLID_28340_">
								<path id="XMLID_28563_" class="st10" d="M256.7,304.5v-0.6c0-2.9,2.1-6.5,4.6-7.9c1.3-0.7,2.5-0.9,3.5-0.3
									c0.9,0.5,1.5,1.7,1.5,3.2v0.2L256.7,304.5z M263.5,296c-0.5,0-1.1,0.2-1.8,0.6c-2.1,1.2-3.9,4.1-4.2,6.7l8-4.6
									c0-1.1-0.4-1.9-1.1-2.3C264.1,296.1,263.8,296,263.5,296z"/>
							</g>
						</g>
						<g id="XMLID_28332_">
							<g id="XMLID_28336_">
								<g id="XMLID_28338_">
									<path id="XMLID_28562_" class="st10" d="M273.4,302.7c-0.2,0-0.4-0.2-0.4-0.4v-12.2c0-0.2,0.2-0.4,0.4-0.4
										c0.2,0,0.4,0.2,0.4,0.4v12.2C273.7,302.5,273.6,302.7,273.4,302.7z"/>
								</g>
								<g id="XMLID_28337_">
									<path id="XMLID_28561_" class="st10" d="M272.3,292.9c0,0-0.1,0-0.1,0c-0.2-0.1-0.3-0.3-0.2-0.5l1.3-2.9l1.4,1.6
										c0.1,0.1,0.1,0.4,0,0.5c-0.2,0.1-0.4,0.1-0.5,0l-0.7-0.8l-0.8,1.9C272.6,292.9,272.5,292.9,272.3,292.9z"/>
								</g>
							</g>
							<g id="XMLID_28333_">
								<g id="XMLID_28335_">
									<path id="XMLID_28560_" class="st10" d="M276.7,300.8c-0.2,0-0.4-0.2-0.4-0.4v-12.2c0-0.2,0.2-0.4,0.4-0.4
										c0.2,0,0.4,0.2,0.4,0.4v12.2C277,300.7,276.9,300.8,276.7,300.8z"/>
								</g>
								<g id="XMLID_28334_">
									<path id="XMLID_28559_" class="st10" d="M275.6,291.1c0,0-0.1,0-0.1,0c-0.2-0.1-0.3-0.3-0.2-0.5l1.3-2.9l1.4,1.6
										c0.1,0.1,0.1,0.4,0,0.5c-0.2,0.1-0.4,0.1-0.5,0l-0.7-0.8l-0.8,1.9C275.9,291,275.8,291.1,275.6,291.1z"/>
								</g>
							</g>
						</g>
					</g>
					<g id="XMLID_28331_">
						<polygon id="XMLID_1090_" class="st12" points="238,330.4 182.1,298.2 182.1,251.8 238,284 						"/>
						<polygon id="XMLID_1089_" class="st17" points="237.1,327.4 181.2,295.2 181.2,248.8 237.1,281 						"/>
						<g>
							<g id="XMLID_00000058559666445689754930000009782576259704840358_">
								<path id="XMLID_00000015320239877542810130000006329994561430426784_" class="st0" d="M189.7,278.2l20.3,11.7
									c0.5,0.3,0.9,1,0.9,1.6l0,14.1c0,1.2-0.8,1.6-1.8,1.1l-20.3-11.7c-0.5-0.3-0.9-1-0.9-1.6l0-14.1
									C187.9,278.1,188.7,277.6,189.7,278.2z"/>
							</g>
							<g id="XMLID_00000059285513740985983520000001339797227657647247_">
								<g id="XMLID_00000106833488151059516950000004709136223812652988_">
									<polygon id="XMLID_00000086678395744486939860000013987081416059746961_" class="st10" points="189.2,280.4 189.9,280.8 
										189.9,293.2 189.2,292.8 									"/>
								</g>
								<g id="XMLID_00000152246007494388907500000010642742488126103955_">
									<polygon id="XMLID_00000011001694090998693410000011262208674260231615_" class="st10" points="192,282 193.2,282.7 
										193.2,295.2 192,294.5 									"/>
								</g>
								<g id="XMLID_00000099657584041063831170000011402396720976777911_">
									<polygon id="XMLID_00000054953844870863449920000017258957606887786682_" class="st10" points="194.8,283.6 195.5,284 
										195.5,296.5 194.8,296.1 									"/>
								</g>
								<g id="XMLID_00000043451670862557154470000013634191758881721272_">
									<polygon id="XMLID_00000160909735622998035090000009943735844213900965_" class="st10" points="196.9,284.8 198.3,285.7 
										198.3,298.1 196.9,297.3 									"/>
								</g>
								<g id="XMLID_00000152242301762657008190000006316963051923206017_">
									<polygon id="XMLID_00000111894013795939201180000007587194080841362594_" class="st10" points="200.4,286.9 201.1,287.3 
										201.1,299.7 200.4,299.3 									"/>
								</g>
								<g id="XMLID_00000139985536481946169880000014524956596408517532_">
									<polygon id="XMLID_00000116194295406506704360000016133552796324533950_" class="st10" points="202.4,288 203.9,288.9 
										203.9,301.3 202.4,300.5 									"/>
								</g>
								<g id="XMLID_00000024704680523232877800000015034058727979004827_">
									<polygon id="XMLID_00000164488954026698828690000011556352084021200793_" class="st10" points="206,290.1 206.7,290.5 
										206.7,302.9 206,302.5 									"/>
								</g>
								<g id="XMLID_00000039812300669165519530000008359269767019257765_">
									<polygon id="XMLID_00000096755185596989172520000016062682156272225190_" class="st10" points="207.6,291 208,291.2 
										208,303.7 207.6,303.5 									"/>
								</g>
								<g id="XMLID_00000020389113462621161760000009958241792055100032_">
									<polygon id="XMLID_00000098180470708827481340000006612662992708078467_" class="st10" points="204.8,289.4 205.1,289.6 
										205.1,302.1 204.8,301.9 									"/>
								</g>
								<g id="XMLID_00000063602633664502576040000009121117352401878715_">
									<polygon id="XMLID_00000182506728719048786400000012055449006817817218_" class="st10" points="199.1,286.1 199.4,286.3 
										199.4,298.8 199.1,298.6 									"/>
								</g>
								<g id="XMLID_00000083795534458093441830000004402184177775812769_">
									<polygon id="XMLID_00000075859466209482806610000000601656172993384066_" class="st10" points="196,284.4 196.4,284.6 
										196.4,297 196,296.8 									"/>
								</g>
								<g id="XMLID_00000027564790246701212940000007093229268993580677_">
									<polygon id="XMLID_00000175285245913674378090000016495093265879797931_" class="st10" points="193.8,283.1 194.1,283.3 
										194.1,295.8 193.8,295.6 									"/>
								</g>
								<g id="XMLID_00000052789159440628289890000009082256768681129132_">
									<polygon id="XMLID_00000134967263071552410710000011204166500773260731_" class="st10" points="190.8,281.3 191.1,281.5 
										191.1,293.9 190.8,293.7 									"/>
								</g>
								<g id="XMLID_00000074419815818697043370000008645513122379370139_">
									<polygon id="XMLID_00000036937992787311887770000010419502395887302034_" class="st10" points="208.8,291.7 209.5,292.1 
										209.5,304.6 208.8,304.2 									"/>
								</g>
							</g>
						</g>
					</g>
					<g id="XMLID_28328_">
						<polygon id="XMLID_1086_" class="st5" points="205.2,273.2 210.4,276.2 210.4,268.1 205.2,265 						"/>
						<polygon id="XMLID_28272_" class="st22" points="210.4,268.1 276.5,229.8 271.3,226.8 205.2,265 						"/>
					</g>
				</g>
			</g>
		</g>
	</g>
</g>
<g id="Boxes">
	<g id="Boxes_2_">
		<g id="Box_11_">
			<g id="Box_12_">
				<g id="Back_box_3_">
					<g id="XMLID_5955_">
						<polygon id="XMLID_5956_" points="35.2,403.4 103.8,363.8 190.1,413.6 121.5,453.2 						"/>
					</g>
					<polygon id="XMLID_5954_" class="st5" points="103.8,363.8 103.8,296 33.8,336.4 92.4,370.4 					"/>
					<g id="XMLID_5952_">
						<polygon id="XMLID_5953_" class="st4" points="103.8,296 103.8,363.8 132.9,380.6 191.4,346.6 						"/>
					</g>
				</g>
				<g id="Front_Box_3_">
					<g id="XMLID_5945_">
						<polygon id="XMLID_5946_" class="st4" points="33.8,336.4 33.8,402.6 121.5,453.2 121.5,387.2 						"/>
					</g>
					<g id="XMLID_00000018935668212111739420000000792202679511053698_">
						<polygon class="st5" points="121.5,387.2 121.5,453.2 191.4,412.7 191.4,346.6 						"/>
						<polygon id="XMLID_5940_" class="st10" points="121.5,387.2 122.8,450.6 173.7,423 121.5,453.2 						"/>
					</g>
				</g>
				<g>
					<g id="XMLID_00000022540788077828539330000003347876688964576938_">
						<g id="XMLID_00000011712358678212350150000014037053716611775370_">
							<path id="XMLID_00000175287701130107135150000009952447626953522569_" class="st2" d="M129.8,431.9c-0.3,0-0.5-0.1-0.7-0.2
								c-0.6-0.3-0.9-1.1-0.9-2v-5.8c0,0,0,0,0,0v-0.4l0.3,0.1l4.6-2.7v6.5c0,1.7-1,3.5-2.3,4.3
								C130.5,431.8,130.2,431.9,129.8,431.9z M129,424.3v5.4c0,0.7,0.2,1.2,0.5,1.3c0.3,0.2,0.7,0,1-0.1c1-0.6,1.9-2.3,1.9-3.6
								v-0.5h-1.7l-0.3-2.3L129,424.3z M131.3,426.1h1.1v-4l-2.7,1.6l1.4,0.2L131.3,426.1z"/>
						</g>
						<g id="XMLID_00000051376687380586684850000007931574186335032490_">
							<path id="XMLID_00000035491673112128245790000014899891048488574385_" class="st2" d="M130.7,436.6c-0.2,0-0.4-0.2-0.4-0.4
								v-4.9c0-0.2,0.2-0.4,0.4-0.4c0.2,0,0.4,0.2,0.4,0.4v4.9C131,436.4,130.9,436.6,130.7,436.6z"/>
						</g>
						<g id="XMLID_00000025412261682024413130000009517867979317545396_">
							<path id="XMLID_00000111876777058636021000000002310403104379523730_" class="st2" d="M128.5,437.8c-0.1,0-0.3-0.1-0.3-0.2
								c-0.1-0.2,0-0.4,0.1-0.5l4.3-2.5c0.2-0.1,0.4,0,0.5,0.1c0.1,0.2,0,0.4-0.1,0.5l-4.3,2.5C128.7,437.8,128.6,437.8,128.5,437.8
								z"/>
						</g>
					</g>
					<g id="XMLID_3972_">
						<g id="XMLID_00000011004169104084193090000005201517479747346049_">
							<path id="XMLID_00000032633663389349503340000003962714259517278904_" class="st2" d="M143.7,429.4c-0.1,0-0.3,0-0.4-0.1
								c-0.3-0.2-0.4-0.5-0.4-0.9v-1c0-0.2,0.2-0.4,0.4-0.4s0.4,0.2,0.4,0.4v1c0,0.2,0,0.2,0.1,0.2c0,0,0.1,0,0.2-0.1
								c0.3-0.2,0.7-0.9,0.7-1.7v-6.5c0-0.2,0.2-0.4,0.4-0.4c0.2,0,0.4,0.2,0.4,0.4v6.5c0,1-0.4,1.9-1,2.3
								C144.1,429.3,143.9,429.4,143.7,429.4z"/>
						</g>
						<g id="XMLID_3973_">
							<path id="XMLID_00000134230512560368648620000003836942724202163872_" class="st2" d="M139.9,423.6V423c0-3,2.1-6.7,4.7-8.1
								c1.3-0.8,2.6-0.9,3.6-0.3c1,0.6,1.5,1.7,1.5,3.2v0.2L139.9,423.6z M146.8,414.9c-0.6,0-1.2,0.2-1.8,0.6
								c-2.2,1.3-4,4.2-4.3,6.9l8.3-4.8c0-1.1-0.4-2-1.1-2.4C147.5,415,147.1,414.9,146.8,414.9z"/>
						</g>
					</g>
					<g id="XMLID_3961_">
						<g id="XMLID_3967_">
							<g id="XMLID_3970_">
								<path id="XMLID_3971_" class="st2" d="M156.9,421.8c-0.2,0-0.4-0.2-0.4-0.4v-12.5c0-0.2,0.2-0.4,0.4-0.4s0.4,0.2,0.4,0.4
									v12.5C157.3,421.7,157.1,421.8,156.9,421.8z"/>
							</g>
							<g id="XMLID_3968_">
								<path id="XMLID_3969_" class="st2" d="M155.9,411.8c0,0-0.1,0-0.1,0c-0.2-0.1-0.3-0.3-0.2-0.5l1.3-3l1.5,1.7
									c0.1,0.2,0.1,0.4,0,0.5c-0.2,0.1-0.4,0.1-0.5,0l-0.7-0.8l-0.8,1.9C156.1,411.7,156,411.8,155.9,411.8z"/>
							</g>
						</g>
						<g id="XMLID_3962_">
							<g id="XMLID_3965_">
								<path id="XMLID_3966_" class="st2" d="M160.3,419.9c-0.2,0-0.4-0.2-0.4-0.4V407c0-0.2,0.2-0.4,0.4-0.4
									c0.2,0,0.4,0.2,0.4,0.4v12.5C160.7,419.7,160.5,419.9,160.3,419.9z"/>
							</g>
							<g id="XMLID_3963_">
								<path id="XMLID_3964_" class="st2" d="M159.3,409.9c0,0-0.1,0-0.1,0c-0.2-0.1-0.3-0.3-0.2-0.5l1.3-3l1.5,1.7
									c0.1,0.2,0.1,0.4,0,0.5c-0.2,0.1-0.4,0.1-0.5,0l-0.7-0.8l-0.8,1.9C159.5,409.8,159.4,409.9,159.3,409.9z"/>
							</g>
						</g>
					</g>
				</g>
				<g>
					<g id="XMLID_3959_">
						<path id="XMLID_3960_" class="st0" d="M48.8,383.4l19.1,11c0.5,0.3,0.9,0.9,0.9,1.5l0,13.3c0,1.1-0.8,1.5-1.7,1l-19.1-11
							c-0.5-0.3-0.9-0.9-0.9-1.5l0-13.3C47.1,383.3,47.9,382.8,48.8,383.4z"/>
					</g>
					<g id="XMLID_3842_">
						<g id="XMLID_3934_">
							<polygon id="XMLID_3958_" class="st10" points="48.4,385.4 49,385.8 49,397.5 48.4,397.2 							"/>
						</g>
						<g id="XMLID_3912_">
							<polygon id="XMLID_3927_" class="st10" points="51,387 52.1,387.6 52.1,399.4 51,398.7 							"/>
						</g>
						<g id="XMLID_3901_">
							<polygon id="XMLID_3906_" class="st10" points="53.6,388.5 54.3,388.9 54.3,400.6 53.6,400.2 							"/>
						</g>
						<g id="XMLID_3897_">
							<polygon id="XMLID_3898_" class="st10" points="55.6,389.6 56.9,390.4 56.9,402.1 55.6,401.3 							"/>
						</g>
						<g id="XMLID_3891_">
							<polygon id="XMLID_3896_" class="st10" points="58.9,391.6 59.6,391.9 59.6,403.6 58.9,403.3 							"/>
						</g>
						<g id="XMLID_3874_">
							<polygon id="XMLID_3885_" class="st10" points="60.8,392.6 62.2,393.5 62.2,405.2 60.8,404.3 							"/>
						</g>
						<g id="XMLID_3865_">
							<polygon id="XMLID_3868_" class="st10" points="64.2,394.6 64.9,395 64.9,406.7 64.2,406.3 							"/>
						</g>
						<g id="XMLID_3861_">
							<polygon id="XMLID_3862_" class="st10" points="65.7,395.5 66.1,395.7 66.1,407.4 65.7,407.2 							"/>
						</g>
						<g id="XMLID_3857_">
							<polygon id="XMLID_3860_" class="st10" points="63,394 63.4,394.2 63.4,405.9 63,405.7 							"/>
						</g>
						<g id="XMLID_3851_">
							<polygon id="XMLID_3855_" class="st10" points="57.7,390.8 58,391 58,402.8 57.7,402.6 							"/>
						</g>
						<g id="XMLID_3849_">
							<polygon id="XMLID_3850_" class="st10" points="54.8,389.2 55.1,389.4 55.1,401.1 54.8,400.9 							"/>
						</g>
						<g id="XMLID_3847_">
							<polygon id="XMLID_3848_" class="st10" points="52.7,388 53,388.2 53,399.9 52.7,399.7 							"/>
						</g>
						<g id="XMLID_3845_">
							<polygon id="XMLID_3846_" class="st10" points="49.8,386.3 50.2,386.5 50.2,398.2 49.8,398 							"/>
						</g>
						<g id="XMLID_3843_">
							<polygon id="XMLID_3844_" class="st10" points="66.9,396.1 67.5,396.5 67.5,408.2 66.9,407.9 							"/>
						</g>
					</g>
				</g>
			</g>
			<polygon class="st10" points="103.8,296 33.8,336.4 121.5,387.2 191.4,346.6 			"/>
			<polygon class="st23" points="33.8,336.4 121.5,384.6 191.4,346.6 121.5,387.2 			"/>
			<polygon class="st22" points="62.9,319.7 150.6,370.3 161.3,364.1 73.7,313.4 			"/>
			<g>
				<polygon class="st15" points="161.3,364.1 161.3,377.8 160,377 158.7,379.4 157.3,378.6 156,380.9 154.6,380.1 153.3,382.5 
					151.9,381.7 150.6,384 150.6,370.3 				"/>
				<polygon class="st24" points="161.3,364.1 161.3,377.8 160,377 158.7,379.4 157.3,378.6 156,380.9 154.6,380.1 153.3,382.5 
					151.9,381.7 150.6,384 150.6,370.3 				"/>
			</g>
		</g>
		<polygon class="st21" points="100.4,300.4 39.4,335.7 116.2,380.1 177.2,344.8 		"/>
		<g id="Box_9_">
			<g id="Box_10_">
				<g id="Back_box_2_">
					<g id="XMLID_3840_">
						<polygon id="XMLID_3841_" points="51,337.4 102,307.9 166.9,345.3 115.9,374.8 						"/>
					</g>
					<polygon id="XMLID_3839_" class="st5" points="102,301.6 102,243.4 49.8,273.5 100.4,302.7 					"/>
					<g id="XMLID_3837_">
						<polygon id="XMLID_3838_" class="st4" points="102,243.4 102,301.6 117.7,310.7 168.1,281.5 						"/>
					</g>
				</g>
				<g id="Front_Box_2_">
					<g id="XMLID_3835_">
						<polygon id="XMLID_3836_" class="st4" points="49.8,273.5 49.8,336.7 115.9,374.8 115.9,311.7 						"/>
					</g>
					<g id="XMLID_3833_">
						<polygon class="st5" points="115.9,311.7 115.9,374.8 168.1,344.6 168.1,281.5 						"/>
						<polygon id="XMLID_3834_" class="st10" points="115.9,311.7 117,372.6 160.8,348.8 115.9,374.8 						"/>
					</g>
				</g>
				<g>
					<g id="XMLID_3822_">
						<g id="XMLID_3827_">
							<path id="XMLID_3829_" class="st2" d="M123.1,356.5c-0.2,0-0.4-0.1-0.6-0.2c-0.5-0.3-0.8-0.9-0.8-1.7v-5c0,0,0,0,0,0v-0.4
								l0.3,0l3.9-2.3v5.6c0,1.4-0.9,3-1.9,3.7C123.6,356.4,123.3,356.5,123.1,356.5z M122.3,350v4.7c0,0.6,0.2,1,0.5,1.2
								c0.3,0.2,0.6,0,0.9-0.1c0.9-0.5,1.6-1.9,1.6-3.1v-0.4h-1.5l-0.3-2L122.3,350z M124.3,351.5h0.9v-3.5l-2.4,1.4l1.2,0.2
								L124.3,351.5z"/>
						</g>
						<g id="XMLID_3825_">
							<path id="XMLID_3826_" class="st2" d="M123.8,360.5c-0.2,0-0.3-0.1-0.3-0.3V356c0-0.2,0.1-0.3,0.3-0.3c0.2,0,0.3,0.1,0.3,0.3
								v4.2C124.1,360.4,123.9,360.5,123.8,360.5z"/>
						</g>
						<g id="XMLID_3823_">
							<path id="XMLID_3824_" class="st2" d="M121.9,361.6c-0.1,0-0.2-0.1-0.3-0.2c-0.1-0.2,0-0.3,0.1-0.4l3.7-2.1
								c0.1-0.1,0.3,0,0.4,0.1c0.1,0.2,0,0.3-0.1,0.4l-3.7,2.1C122,361.6,122,361.6,121.9,361.6z"/>
						</g>
					</g>
					<g id="XMLID_3815_">
						<g id="XMLID_3820_">
							<path id="XMLID_3821_" class="st2" d="M135,354.3c-0.1,0-0.2,0-0.3-0.1c-0.2-0.1-0.4-0.4-0.4-0.8v-0.9c0-0.2,0.1-0.3,0.3-0.3
								c0.2,0,0.3,0.1,0.3,0.3v0.9c0,0.1,0,0.2,0.1,0.2c0,0,0.1,0,0.2-0.1c0.3-0.2,0.6-0.8,0.6-1.4v-5.6c0-0.2,0.1-0.3,0.3-0.3
								c0.2,0,0.3,0.1,0.3,0.3v5.6c0,0.8-0.4,1.7-0.9,2C135.4,354.2,135.2,354.3,135,354.3z"/>
						</g>
						<g id="XMLID_3816_">
							<path id="XMLID_3817_" class="st2" d="M131.7,349.4v-0.5c0-2.6,1.8-5.7,4-7c1.1-0.7,2.2-0.8,3.1-0.3c0.8,0.5,1.3,1.5,1.3,2.8
								v0.2L131.7,349.4z M137.6,341.9c-0.5,0-1,0.2-1.6,0.5c-1.9,1.1-3.5,3.6-3.7,5.9l7.1-4.1c0-1-0.4-1.7-1-2.1
								C138.2,342,137.9,341.9,137.6,341.9z"/>
						</g>
					</g>
					<g id="XMLID_3793_">
						<g id="XMLID_3799_">
							<g id="XMLID_3813_">
								<path id="XMLID_3814_" class="st2" d="M146.4,347.8c-0.2,0-0.3-0.1-0.3-0.3v-10.8c0-0.2,0.1-0.3,0.3-0.3
									c0.2,0,0.3,0.1,0.3,0.3v10.8C146.7,347.7,146.6,347.8,146.4,347.8z"/>
							</g>
							<g id="XMLID_3803_">
								<path id="XMLID_3804_" class="st2" d="M145.5,339.2c0,0-0.1,0-0.1,0c-0.2-0.1-0.2-0.3-0.2-0.4l1.1-2.6l1.3,1.5
									c0.1,0.1,0.1,0.3,0,0.4c-0.1,0.1-0.3,0.1-0.4,0l-0.6-0.7l-0.7,1.7C145.7,339.1,145.6,339.2,145.5,339.2z"/>
							</g>
						</g>
						<g id="XMLID_3794_">
							<g id="XMLID_3797_">
								<path id="XMLID_3798_" class="st2" d="M149.3,346.1c-0.2,0-0.3-0.1-0.3-0.3v-10.8c0-0.2,0.1-0.3,0.3-0.3
									c0.2,0,0.3,0.1,0.3,0.3v10.8C149.6,346,149.5,346.1,149.3,346.1z"/>
							</g>
							<g id="XMLID_3795_">
								<path id="XMLID_3796_" class="st2" d="M148.4,337.5c0,0-0.1,0-0.1,0c-0.2-0.1-0.2-0.3-0.2-0.4l1.1-2.6l1.3,1.5
									c0.1,0.1,0.1,0.3,0,0.4c-0.1,0.1-0.3,0.1-0.4,0l-0.6-0.7l-0.7,1.7C148.6,337.4,148.5,337.5,148.4,337.5z"/>
							</g>
						</g>
					</g>
				</g>
			</g>
			<polygon class="st10" points="102,243.4 49.8,273.5 115.9,311.7 168.1,281.5 			"/>
			<polygon class="st23" points="49.8,273.5 115.6,309.5 168.1,281.5 115.9,311.7 			"/>
			<polygon class="st22" points="73,260.1 139.1,298.2 148.4,292.9 82.3,254.8 			"/>
			<g>
				<polygon class="st15" points="148.4,292.9 148.4,304.7 147.3,304 146.1,306 144.9,305.3 143.8,307.4 142.6,306.7 141.4,308.7 
					140.3,308 139.1,310.1 139.1,298.2 				"/>
				<polygon class="st24" points="148.4,292.9 148.4,304.7 147.3,304 146.1,306 144.9,305.3 143.8,307.4 142.6,306.7 141.4,308.7 
					140.3,308 139.1,310.1 139.1,298.2 				"/>
			</g>
			<g>
				<g id="XMLID_00000029729200220154627880000015492336984448932232_">
					<path id="XMLID_00000116228616757967141630000004043781887081889702_" class="st0" d="M60.5,321.3l19.1,11
						c0.5,0.3,0.9,0.9,0.9,1.5l0,13.3c0,1.1-0.8,1.5-1.7,1l-19.1-11c-0.5-0.3-0.9-0.9-0.9-1.5l0-13.3
						C58.8,321.2,59.6,320.8,60.5,321.3z"/>
				</g>
				<g id="XMLID_00000071556897766285717360000003017971605195334334_">
					<g id="XMLID_00000111159925948975804620000001923030061858548113_">
						<polygon id="XMLID_00000047776667196254673630000014606896389930962103_" class="st10" points="60,323.4 60.7,323.8 
							60.7,335.5 60,335.1 						"/>
					</g>
					<g id="XMLID_00000012474437150918159310000013137538790242188714_">
						<polygon id="XMLID_00000132062291910595366930000018109704647828576394_" class="st10" points="62.7,324.9 63.8,325.6 
							63.8,337.3 62.7,336.7 						"/>
					</g>
					<g id="XMLID_00000152252515992460937660000010746488926434637964_">
						<polygon id="XMLID_00000096021283163122782870000002152780224980115349_" class="st10" points="65.3,326.5 66,326.8 66,338.6 
							65.3,338.2 						"/>
					</g>
					<g id="XMLID_00000089536254833875337220000003671115475504616328_">
						<polygon id="XMLID_00000178165279043452486020000012477961891707102141_" class="st10" points="67.3,327.6 68.6,328.4 
							68.6,340.1 67.3,339.3 						"/>
					</g>
					<g id="XMLID_00000131332844840770716610000007037446072319646121_">
						<polygon id="XMLID_00000170267318874986582710000018234994445739886976_" class="st10" points="70.6,329.5 71.3,329.9 
							71.3,341.6 70.6,341.2 						"/>
					</g>
					<g id="XMLID_00000048466034926473103950000005751455014593617304_">
						<polygon id="XMLID_00000062876514430574855530000017477357540167878016_" class="st10" points="72.5,330.6 73.9,331.4 
							73.9,343.1 72.5,342.3 						"/>
					</g>
					<g id="XMLID_00000042717297976321689920000003868162211856724104_">
						<polygon id="XMLID_00000156586291642453571970000013741090155918278066_" class="st10" points="75.9,332.6 76.6,332.9 
							76.6,344.7 75.9,344.3 						"/>
					</g>
					<g id="XMLID_00000079461899748368540400000006565830200562768043_">
						<polygon id="XMLID_00000147926017003562017090000002056022331301049535_" class="st10" points="77.4,333.4 77.7,333.6 
							77.7,345.3 77.4,345.2 						"/>
					</g>
					<g id="XMLID_00000024690531042518478760000009537867737703435173_">
						<polygon id="XMLID_00000034080305321186099710000011363362588987006879_" class="st10" points="74.7,331.9 75,332.1 75,343.8 
							74.7,343.7 						"/>
					</g>
					<g id="XMLID_00000150818316301626209370000013197399464605552048_">
						<polygon id="XMLID_00000172411631810294371330000000232709188823070638_" class="st10" points="69.4,328.8 69.7,329 
							69.7,340.7 69.4,340.5 						"/>
					</g>
					<g id="XMLID_00000113314342886167070740000014778871574952257162_">
						<polygon id="XMLID_00000076593646080491036640000012920441531423434937_" class="st10" points="66.5,327.1 66.8,327.3 
							66.8,339 66.5,338.9 						"/>
					</g>
					<g id="XMLID_00000139999009149961233590000004943217189822923442_">
						<polygon id="XMLID_00000156585097359923376540000004253677118352206750_" class="st10" points="64.4,326 64.7,326.2 
							64.7,337.9 64.4,337.7 						"/>
					</g>
					<g id="XMLID_00000157289437595956443690000015845460561976464028_">
						<polygon id="XMLID_00000083802042393201623750000007121621496910757524_" class="st10" points="61.5,324.3 61.8,324.4 
							61.8,336.2 61.5,336 						"/>
					</g>
					<g id="XMLID_00000083803849222486311500000003065493440114636469_">
						<polygon id="XMLID_00000170967778086411610850000015487879052897319591_" class="st10" points="78.6,334.1 79.2,334.5 
							79.2,346.2 78.6,345.8 						"/>
					</g>
				</g>
			</g>
		</g>
	</g>
</g>
<g id="Barcode_00000032642487197284219360000005159971175390458547_">
	<g id="Barcode">
		<g>
			<polygon class="st25" points="197.2,159.8 43.6,248.5 43.6,107.5 197.2,18.9 			"/>
			<path class="st2" d="M43.6,249.5c-0.2,0-0.4,0-0.5-0.1c-0.3-0.2-0.5-0.5-0.5-0.9V107.5c0-0.4,0.2-0.7,0.5-0.9L196.6,18
				c0.3-0.2,0.7-0.2,1.1,0c0.3,0.2,0.5,0.5,0.5,0.9v140.9c0,0.4-0.2,0.7-0.5,0.9L44.1,249.4C44,249.5,43.8,249.5,43.6,249.5z
				 M44.7,108.1v138.5l151.4-87.4V20.7L44.7,108.1z M197.2,159.8L197.2,159.8L197.2,159.8z"/>
		</g>
		<path class="st13" d="M127.2,73.8l-3.5,2l0,82.7l3.5-2L127.2,73.8z M61.9,223.7l1.7-1l0-112.4l-1.7,1V223.7z M70.7,106.4l-3.5,2
			l0,82.7l3.5-2L70.7,106.4z M90.1,193.6c-0.5-0.4-1.1-0.5-1.7-0.5c-0.7,0-1.4,0.3-2.1,0.7c-0.8,0.5-1.5,1-2,1.6
			c-0.5,0.6-0.8,1-0.9,1.2l0.5-8.1l6.5-3.7c0.3-0.2,0.5-0.5,0.5-1v-0.6c0-0.5-0.2-0.7-0.5-0.5l-7.3,4.2c-0.3,0.2-0.5,0.5-0.5,1.1
			l-0.7,11.7c0,0.2,0,0.4,0.1,0.5c0.1,0.1,0.2,0.1,0.4,0l0.4-0.2c0.2-0.1,0.5-0.4,0.6-0.7c0.2-0.3,0.4-0.7,0.6-1.1
			c0.2-0.4,0.5-0.8,0.9-1.2c0.4-0.4,0.8-0.8,1.4-1.1c0.6-0.3,1.1-0.5,1.6-0.5c0.5,0,0.9,0.1,1.3,0.4c0.4,0.3,0.6,0.7,0.9,1.3
			c0.2,0.6,0.3,1.3,0.3,2.2c0,1-0.1,1.9-0.3,2.8c-0.2,0.9-0.5,1.7-0.9,2.4c-0.4,0.7-0.8,1.3-1.3,1.9c-0.5,0.5-1,1-1.6,1.3
			c-0.4,0.2-0.8,0.4-1.2,0.5c-0.4,0.1-0.8,0-1.1-0.1c-0.3-0.1-0.6-0.4-0.9-0.8c-0.2-0.4-0.4-0.9-0.6-1.6c-0.1-0.3-0.1-0.5-0.2-0.5
			c-0.1,0-0.2,0-0.3,0l-0.4,0.2c-0.1,0.1-0.2,0.2-0.3,0.4c-0.1,0.2-0.1,0.4-0.1,0.6c0,0.8,0.1,1.5,0.4,2.1c0.2,0.6,0.6,1.1,1,1.5
			c0.4,0.4,1,0.5,1.6,0.5c0.6,0,1.4-0.2,2.2-0.7c0.8-0.4,1.5-1,2.1-1.7c0.7-0.7,1.2-1.6,1.7-2.5c0.5-1,0.9-2,1.2-3.2
			c0.3-1.2,0.4-2.4,0.4-3.8c0-1.3-0.1-2.3-0.4-3.1C91,194.5,90.6,194,90.1,193.6z M77.4,192.4c-0.4-0.5-1-0.8-1.7-0.9
			c-0.7-0.1-1.5,0.1-2.3,0.6c-0.9,0.5-1.7,1.2-2.4,2.1c-0.7,0.9-1.2,1.8-1.7,2.8c-0.4,1-0.8,2.1-1,3.1c-0.2,1.1-0.3,2.1-0.3,3.1
			c0,1,0.1,1.9,0.3,2.7c0.2,0.8,0.5,1.5,1,2c0.4,0.5,1,0.8,1.7,0.9c0.7,0.1,1.5-0.1,2.4-0.7c0.5-0.3,1-0.7,1.5-1.1l-3.6,9.7
			c0,0.1-0.1,0.1-0.1,0.2c0,0.1,0,0.2,0,0.3c0,0.2,0,0.4,0.1,0.5c0.1,0.1,0.2,0.1,0.3,0l0.4-0.3c0.2-0.1,0.4-0.3,0.5-0.5
			c0.1-0.2,0.2-0.4,0.2-0.6l4.6-12.7c0.1-0.4,0.3-0.8,0.4-1.3c0.2-0.5,0.3-1,0.4-1.6c0.1-0.6,0.2-1.2,0.3-1.8c0.1-0.6,0.1-1.3,0.1-2
			c0-1-0.1-1.9-0.3-2.7C78.2,193.6,77.8,192.9,77.4,192.4z M77,200.5c-0.2,0.8-0.5,1.6-0.9,2.3c-0.4,0.7-0.8,1.4-1.3,1.9
			c-0.5,0.6-1,1-1.5,1.3c-0.5,0.3-1,0.5-1.5,0.4c-0.5,0-0.9-0.2-1.2-0.5c-0.4-0.3-0.6-0.7-0.9-1.4c-0.2-0.6-0.3-1.4-0.3-2.3
			c0-0.9,0.1-1.8,0.3-2.6c0.2-0.9,0.5-1.7,0.9-2.4c0.4-0.7,0.8-1.3,1.2-1.9c0.5-0.5,1-1,1.5-1.3c0.5-0.3,1-0.5,1.5-0.5
			c0.5,0,0.9,0.2,1.3,0.5c0.4,0.3,0.6,0.8,0.9,1.4c0.2,0.6,0.3,1.4,0.3,2.3S77.2,199.7,77,200.5z M90.3,178.1l1.7-1l0-82.7l-1.7,1
			L90.3,178.1z M58,226l1.7-1l0-112.4l-1.7,1V226z M98.9,90.1l-3.5,2v82.7l3.5-2L98.9,90.1z M103.2,87.7l-1.7,1l0,82.7l1.7-1
			L103.2,87.7z M76.8,102.8l-1.7,1v82.7l1.7-1L76.8,102.8z M87.3,96.9l-6,3.4v82.7l6-3.4L87.3,96.9z M166,51.3l-1.7,1l0,82.7l1.7-1
			L166,51.3z M161.2,141.8l-8.7,5c-0.3,0.2-0.5,0.5-0.5,1.1v0.5c0,0.5,0.2,0.7,0.5,0.5l7.7-4.4l-5.8,24.4c0,0.2,0,0.3,0,0.3
			c0,0.2,0,0.4,0.1,0.5c0.1,0.1,0.2,0.1,0.3,0l0.5-0.3c0.2-0.1,0.3-0.3,0.4-0.5c0.1-0.2,0.2-0.5,0.2-0.7l5.7-24.1
			c0.1-0.3,0.1-0.5,0.1-0.7c0-0.2,0-0.4,0-0.7v-0.5C161.7,141.8,161.6,141.6,161.2,141.8z M145.5,175.1l1.7-1l0-111.6l-1.7,1V175.1z
			 M160,137.4l1.7-1l0-82.7l-1.7,1L160,137.4z M155.4,57.4l-3.5,2l0,82.7l3.5-2L155.4,57.4z M173.2,157l-7.5,4.3l5.3-11.3
			c0.8-1.7,1.4-3.2,1.8-4.5c0.4-1.3,0.6-2.7,0.6-4.2c0-0.9-0.1-1.7-0.3-2.5c-0.2-0.8-0.4-1.3-0.8-1.8c-0.4-0.4-0.9-0.7-1.5-0.7
			c-0.6,0-1.3,0.2-2.2,0.7c-0.9,0.5-1.6,1.1-2.2,1.9c-0.6,0.8-1.1,1.7-1.5,2.6c-0.4,0.9-0.7,1.9-0.9,2.8c-0.2,1-0.3,1.8-0.3,2.6
			c0,0.4,0.2,0.6,0.5,0.4l0.4-0.3c0.1-0.1,0.2-0.2,0.3-0.4c0.1-0.2,0.2-0.4,0.2-0.7c0.1-1.6,0.5-3,1.1-4.2c0.6-1.2,1.4-2.2,2.4-2.8
			c1.1-0.6,1.9-0.7,2.5-0.1c0.6,0.5,0.9,1.6,0.9,3.1c0,0.5,0,1-0.1,1.5c-0.1,0.5-0.2,1-0.3,1.5c-0.2,0.5-0.4,1.1-0.6,1.8
			c-0.3,0.6-0.6,1.4-1,2.2l-5.8,12.3c-0.2,0.4-0.4,0.8-0.4,1c-0.1,0.3-0.1,0.5-0.1,0.7v0.5c0,0.5,0.2,0.7,0.5,0.5l9.2-5.3
			c0.3-0.2,0.5-0.6,0.5-1.1v-0.5C173.7,157,173.6,156.8,173.2,157z M103.9,177.4c-0.4-0.6-1-1-1.6-1.1c-0.7-0.1-1.5,0.1-2.6,0.7
			c-1,0.6-1.9,1.3-2.6,2.3c-0.7,0.9-1.2,1.9-1.7,3c-0.4,1.1-0.7,2.3-0.9,3.6c-0.2,1.3-0.3,2.5-0.3,3.8c0,2,0,3.9,0,5.8
			c0,1.3,0.1,2.4,0.3,3.5c0.2,1,0.5,1.9,0.9,2.5c0.4,0.6,1,1,1.6,1.1c0.7,0.1,1.5-0.1,2.6-0.7c1-0.6,1.9-1.3,2.6-2.3
			c0.7-0.9,1.2-1.9,1.6-3c0.4-1.1,0.7-2.3,0.9-3.6c0.2-1.3,0.3-2.5,0.3-3.8c0-1.9,0-3.9,0-5.8c0-1.3-0.1-2.4-0.3-3.5
			C104.6,178.9,104.3,178,103.9,177.4z M103.7,189.8c0,2.4-0.4,4.5-1,6.2c-0.6,1.7-1.6,3-3,3.8c-1.3,0.8-2.3,0.7-3-0.3
			c-0.6-1-1-2.7-1-5c0-1,0-1.9,0-2.7c0-0.8,0-1.8,0-2.7c0-2.3,0.4-4.4,1-6.2c0.6-1.8,1.6-3,3-3.8c1.3-0.8,2.3-0.6,3,0.4
			c0.7,1,1,2.7,1,5c0,1,0,1.9,0,2.7C103.7,187.9,103.7,188.8,103.7,189.8z M170.8,131.2l3.5-2l0-82.7l-3.5,2L170.8,131.2z M179,43.8
			l0,111.9l3.5-2l0-111.9L179,43.8z M116.5,167.6l-8.7,5c-0.3,0.2-0.5,0.5-0.5,1.1v0.5c0,0.5,0.2,0.7,0.5,0.5l7.7-4.4l-5.8,24.4
			c0,0.2,0,0.3,0,0.3c0,0.2,0,0.4,0.1,0.5c0.1,0.1,0.2,0.1,0.3,0l0.5-0.3c0.2-0.1,0.3-0.3,0.4-0.5c0.1-0.2,0.2-0.5,0.2-0.7l5.7-24.1
			c0.1-0.3,0.1-0.5,0.1-0.7c0-0.2,0-0.4,0-0.7v-0.5C117,167.6,116.8,167.4,116.5,167.6z M117,162.3l1.7-1l0-82.7l-1.7,1L117,162.3z
			 M133.9,152.4l7.4-4.2l0-82.7l-7.4,4.2V152.4z M113,81.9l-6.9,3.9l0,82.7l6.9-3.9L113,81.9z M136.8,155.9l-0.4,0.2
			c-0.1,0.1-0.2,0.1-0.3,0.2c-0.1,0.1-0.2,0.2-0.3,0.4l-4.8,8.4c-0.1,0.2-0.2,0.4-0.2,0.6c0,0.2,0,0.4,0.1,0.5l0.2,0.3
			c0.2,0.3,0.4,0.2,0.7-0.3l4-7.1v20.6c0,0.5,0.2,0.7,0.5,0.5l0.4-0.2c0.3-0.2,0.5-0.5,0.5-1v-22.7
			C137.3,155.8,137.2,155.7,136.8,155.9z M128.5,182.8l-7.5,4.4l5.3-11.3c0.8-1.7,1.4-3.2,1.8-4.5c0.4-1.3,0.6-2.7,0.6-4.2
			c0-0.9-0.1-1.7-0.3-2.5c-0.2-0.8-0.4-1.3-0.8-1.8c-0.4-0.4-0.9-0.7-1.5-0.7c-0.6,0-1.3,0.2-2.2,0.7c-0.9,0.5-1.6,1.1-2.2,1.9
			c-0.6,0.8-1.1,1.7-1.5,2.6c-0.4,0.9-0.7,1.9-0.9,2.8c-0.2,1-0.3,1.8-0.3,2.6c0,0.4,0.2,0.6,0.5,0.4l0.4-0.3
			c0.1-0.1,0.2-0.2,0.3-0.4c0.1-0.2,0.2-0.4,0.2-0.7c0.1-1.6,0.5-3,1.1-4.2c0.6-1.2,1.4-2.2,2.4-2.8c1.1-0.6,1.9-0.7,2.5-0.1
			c0.6,0.5,0.9,1.6,0.9,3.1c0,0.5,0,1-0.1,1.5c-0.1,0.5-0.2,1-0.3,1.5c-0.2,0.5-0.4,1.1-0.6,1.8c-0.3,0.6-0.6,1.4-1,2.2l-5.8,12.3
			c-0.2,0.4-0.4,0.8-0.4,1c-0.1,0.3-0.1,0.5-0.1,0.7v0.5c0,0.5,0.2,0.7,0.5,0.5l9.2-5.3c0.3-0.2,0.5-0.6,0.5-1.1v-0.5
			C129,182.8,128.8,182.6,128.5,182.8z"/>
	</g>
</g>
</svg>
