<?xml version="1.0" encoding="utf-8"?>
<!-- Generator: Adobe Illustrator 26.0.1, SVG Export Plug-In . SVG Version: 6.00 Build 0)  -->
<svg version="1.1" id="Layer_1" xmlns="http://www.w3.org/2000/svg" xmlns:xlink="http://www.w3.org/1999/xlink" x="0px" y="0px"
	 viewBox="0 0 1920 1080" style="enable-background:new 0 0 1920 1080;" xml:space="preserve">
<style type="text/css">
	.st0{fill:#002866;}
	.st1{fill:#EFB31E;}
</style>
<g>
	<g>
		<path class="st0" d="M408.7,421.8c22.3,0,44.6-0.1,66.9,0.1c3.6,0,6.1-1.9,8-5.3c2-3.5,2.8-7.4,2.9-11.6c0.2-4.3-0.4-8.5-1.9-12.4
			c-1.1-2.9-2.5-5.6-4.7-7.4c-1-0.8-2-1.2-3.2-1.2c-41.9,0-83.8,0-125.7,0c-2.4,0-2.3,0-1.6-2.7c4.1-16.1,8.2-32.2,12.4-48.2
			c3.2-12.3,6.4-24.7,9.5-37c0.6-2.2,1.1-4.3,1.6-6.5c0.2-0.7,0.5-1.1,1.1-1.1c0.3,0,0.7,0,1,0c38.5,0,77,0,115.5,0.1
			c4.3,0,8.5,0.5,12.8,1.1c5.4,0.8,10.7,1.9,15.9,3.7c7,2.3,13.7,5.7,19.9,10.3c5.5,4,10.3,9,14.5,14.8c4.7,6.4,8.3,13.6,11.2,21.5
			c2.8,7.8,4.8,15.8,6,24.1c0.6,4,1.1,8.1,1.4,12.2c0.8,8.3,0.8,16.6,0.7,24.8c-0.1,7-0.8,14-1.8,20.9c-0.9,5.6-2,11.2-3.5,16.6
			c-2.8,10-6.8,19.2-12.3,27.5s-12.1,15.1-19.7,20.4c-7.8,5.5-16.2,9.1-25.1,11.4c-3.8,1-7.6,1.6-11.4,2.2c-3.3,0.4-6.7,0.4-10,0.6
			c-5.2,0.4-10.3,0.2-15.5,0.2c-51,0-101.9,0-152.9,0c-2.3,0-2.1,0.3-1.5-2.3c3-11.7,6-23.4,9-35c2.9-11.2,5.7-22.4,8.6-33.6
			c0.5-2.1,1.1-4.1,1.5-6.2c0.3-1.3,0.8-1.8,2-1.8C363.2,421.9,386,421.8,408.7,421.8z"/>
		<path class="st0" d="M177.4,612.6c-26.1,0-52.2,0-78.3,0c-0.3,0-0.7,0-1,0c-1,0.2-1.1-0.5-0.8-1.4c0.7-2.9,1.5-5.8,2.2-8.6
			c3.1-12.2,6.2-24.3,9.3-36.5c2.5-9.7,4.9-19.5,7.4-29.2c1.9-7.7,3.9-15.3,5.8-23c0.4-1.6,1-2,2.3-2c28.1,0,56.2,0,84.3,0.1
			c1.4,0,2-0.4,2.4-2.1c2.9-11.5,5.9-22.9,8.9-34.4c2.1-8.1,4.2-16.1,6.3-24.2c3.3-12.6,6.5-25.2,9.8-37.7
			c2.1-8.1,4.2-16.2,6.3-24.4c3.3-12.5,6.5-25.1,9.7-37.6c3.1-12,6.2-23.9,9.3-35.9c2.3-8.7,4.5-17.4,6.7-26.1
			c0.2-0.7,0.5-1.1,1.1-1.1c0.3,0,0.7,0,1,0c28.7,0,57.4,0,86.2,0c0.2,0,0.3,0,0.5,0c1.1-0.2,1.3,0.2,1,1.5c-3.5,13-6.9,26-10.3,39
			c-3,11.2-5.9,22.5-8.9,33.7c-3,11.3-5.9,22.6-8.9,33.8c-2.2,8.5-4.5,17-6.7,25.5s-4.5,16.9-6.7,25.4s-4.5,16.9-6.7,25.4
			c-2.2,8.2-4.3,16.4-6.5,24.6c-2.2,8.4-4.4,16.8-6.6,25.2c-3.1,11.7-6.1,23.3-9.2,35c-1.9,7.1-3.5,14.3-5.6,21.3
			c-2.6,8.6-5.8,16.9-10.3,24.3c-3.3,5.4-7.8,8.4-13.3,9.3c-1.7,0.3-3.4,0.3-5.2,0.3C227.8,612.6,202.6,612.6,177.4,612.6z"/>
		<path class="st0" d="M823.8,416.6c3.3-12.4,6.3-24,9.4-35.6c3.3-13,6.5-25.9,10-38.9c3.3-12.4,6.3-24.8,9.6-37.1
			c0.6-2.2,1.4-2.4,3.1-2.4c14,0,28.3,0,42.3,0c3.1,0,3.3,0,2.2,3.9c-2.4,10.2-5.1,20.6-7.5,30.7c-4.7,19.3-9.4,38.5-14,57.8
			c-2.6,11-5.5,22-8.1,32.8c-0.2,0.4-0.4,0.8-0.2,1.4c0.4,0.4,0.8-0.2,1-0.4c6.9-7.9,13.6-16.1,20.6-23.8c8.3-9.4,16.7-18.9,25-28.5
			c5.3-6.1,10.6-12,15.7-18.1c11-12.8,22.2-25.4,33.2-38.1c4.7-5.3,9.4-10.6,14-15.9c1-1.2,2-1.8,3.5-1.8c15.5,0,31.1,0,46.6,0
			c2.2,0,2.4,0.8,1.8,3.3c-7.5,27.5-14.9,55.2-22.2,82.7c-7.1,26.5-14.3,52.9-21.4,79.6c-2.6,9.8-5.3,19.5-7.9,29.5
			c-0.6,2-1.2,2.9-3.3,2.9c-14,0-27.9,0-41.9,0c-2.6,0-2.9-0.4-1.8-3.5c2.6-8.8,5.3-17.5,7.9-26.1c0.4-1.6,0.4-2.2-1.2-2.4
			c-3.5-0.2-6.9-0.8-10.2-0.6c-11,0.4-21.8-0.6-32.8-0.8c-4.7,0-8.1,1.6-11.6,5.5c-8.1,9.2-16.7,17.9-25,26.9c-0.8,0.8-1.6,1-2.4,1
			c-16.9,0-33.6,0-50.5,0c-1.4,0-2-0.6-2.6-2c-6.5-17.1-13.2-34-20-50.9c-3.7-9.2-7.1-18.3-10.8-27.5c-2.4-6.3-5.1-12.6-7.5-19.1
			c-0.4-0.8-0.6-2-1.4-2.6c-1.8,6.7-3.7,13.4-5.3,20.2c-2.9,10.6-5.7,21.4-8.3,32.2c-4.1,15.5-8.1,30.9-12,46.4
			c-0.8,2.9-1.8,3.7-4.3,3.7c-14.5-0.2-28.9-0.2-43.4,0c-2.2,0-2.6-0.8-2-3.3c3.7-13.8,7.3-27.7,11-41.7
			c8.3-31.4,16.5-62.9,24.6-94.3c3.9-14.7,7.7-29.3,11.6-44.2c1-3.9,2-7.7,3.1-11.6c0.4-1.8,1.2-2.6,2.9-2.6c12.2,0,24.6,0,36.9,0
			c1.4,0,2.2,0.6,2.9,2.2c6.3,17.1,12.6,34.2,18.9,51.5c6.9,18.7,13.6,37.5,20.6,56.2C822.6,413.5,823,414.7,823.8,416.6z
			 M958.2,392.3c-0.2-0.2-0.4-0.2-0.4-0.4c-11.6,13.2-23.4,26.3-35,39.5c0.2,0.2,0.2,0.4,0.4,0.8c8.6,0,17.3,0,25.9,0
			c2.2,0,2.9-1,3.3-3.5c1.2-7.7,2.4-15.5,3.9-23.4C956.8,401.3,957.6,396.8,958.2,392.3z"/>
		<path class="st0" d="M1219.4,303.1c15.5,0,30.9,0,46.4,0c2.9,0,2.9,0.2,2,3.5c-3.5,12.2-7.1,24.4-10.4,36.6
			c-0.8,2.9-2.6,2.9-4.5,2.9c-4.9,0-10,0.2-14.9,0c-2.4,0-4.9,0.8-7.3,0.6c-1.6,0-1.6,1.8-2,3.1c-3.7,13.8-7.5,27.5-11.2,41.3
			c-3.9,14.7-7.7,29.1-11.6,43.8c-0.4,1.8-0.6,2.6,1.4,3.3c3.9,1,6.9,0.4,10.2-3.3c7.9-9.2,16.3-17.5,24.4-26.5
			c5.1-5.5,10.2-11.2,15.3-16.9c6.7-7.3,13.6-14.5,20.4-21.8c5.1-5.5,10.2-11.2,15.3-16.7c6.7-7.3,13.6-14.5,20.4-21.8
			c5.3-5.7,10.4-11.4,15.5-16.9c3.1-3.5,6.3-6.7,9.4-10.2c0.6-0.8,1.4-0.8,2.4-0.8c15.3,0,30.3,0,45.6,0c2.4,0,2.2,1.2,1.6,3.3
			c-3.3,12-6.5,24-9.8,36c-6.1,22.6-12,45.2-17.9,68c-5.9,22.2-11.8,44.4-17.7,66.8c-1.8,6.9-3.7,13.8-5.5,20.8
			c-0.6,2-1.4,2.9-3.3,2.9c-14.5,0-28.7,0-43.2,0c-2.2,0-2.9-0.6-2-3.5c1.8-6.5,3.5-13.2,5.3-19.7c1-3.9,1-3.9-2.2-3.9
			c-11.2,0-22.4-0.2-33.6,0c-7.5,0.2-14.9-0.8-22.4-0.8c-1.6,0-2.6,0.6-3.7,2.2c-4.9,7.9-9.8,15.7-14.9,23.4c-0.8,1.4-1.8,2.2-3.5,2
			c-23.6,0-47.2,0-70.8,0c-2.6,0-2.2-1.4-1.8-3.7c5.1-18.9,10.2-37.9,15.3-56.8c7.1-26.7,14.3-53.1,21.4-79.8c1-4.1,2-8.3,3.3-12.6
			c0.6-1.8,0.2-2.4-1.4-2.4c-6.3,0-12.4,0-18.7,0c-1.8,0-2.2-0.6-1.6-2.9c3.5-12.2,6.7-24.6,10-37.1c0.6-2,1.4-2.9,3.3-2.9
			C1188.3,303.3,1203.7,303.1,1219.4,303.1z M1275.2,434.4c0.4,0.2,0.6,0.4,1,0.4c9.6,0,19.1,0,28.7,0c1.8,0,2.2-1.2,2.4-3.1
			c1.4-11.8,3.1-23.6,4.5-35.2c0.4-3.1,0.6-6.1,1-9c-0.2,0-0.4-0.2-0.4-0.2C1299.8,403,1287.6,418.7,1275.2,434.4z"/>
		<path class="st1" d="M125.5,499.8c1.1-4.3,2.1-8.4,3.2-12.6c2.5-9.9,5-19.8,7.6-29.7c2.1-8.2,4.1-16.4,6.2-24.5
			c0.9-3.7,1.9-7.4,2.8-11.1c0.2-0.8,0.5-1,1-0.9c0.1,0,0.2,0,0.4,0c23.1,0,46.2,0,69.3,0c0.2,0,0.5,0,0.9,0
			c-1.2,4.4-2.3,8.6-3.4,12.9c-2.8,10.7-5.6,21.3-8.5,32c-1.7,6.6-3.5,13.1-5.2,19.7c-1.2,4.4-2.3,8.8-3.4,13.2
			c-0.2,0.7-0.3,1.2-1.2,1.2c-23,0-46,0-69.1,0C126,499.9,125.8,499.8,125.5,499.8z"/>
		<path class="st1" d="M535,288.5c0.6,0,1.2,0,1.8,0c59.8,0,119.6,0,179.4-0.1c3.4,0,5.3,2.8,5.9,5.5c1.3,6.3,0.7,12.4-2.2,18.1
			c-1,1.9-2.3,2.8-4.2,2.8c-49.1-0.1-98.3-0.1-147.4,0c-2.2,0-3.4-1.1-4.5-2.9c-2.4-3.7-5.1-7-8-10.1c-3.4-3.7-7.3-6.4-11.4-8.7
			c-2.8-1.6-5.8-2.9-8.8-4.1C535.2,289,535.1,289,535,288.5z"/>
		<path class="st1" d="M536.7,500.8c1-1.1,2.1-0.7,2.9-0.8c4.6-0.8,8.8-2.6,12.8-5.3c2.8-1.8,5.4-4.1,7.8-6.6
			c4.6-4.9,8.4-10.6,11.5-17c0.2-0.4,0.4-0.6,0.8-0.5c0.3,0,0.7,0,1,0c31.1,0,62.2,0,93.3,0c2,0,3.5,1.3,4.2,3.5
			c1.4,4.4,1.9,9,1.5,13.6c-0.4,4.1-1.1,8.2-3.9,11.1c-1.2,1.2-2.4,2-4,2c-42.1,0-84.2,0-126.3,0
			C537.9,500.8,537.4,500.8,536.7,500.8z"/>
		<path class="st0" d="M1102.5,303.1c16.1,0,32.2,0,48,0c3.1,0,3.1,0,2,3.7c-3.3,12-6.5,23.8-9.6,35.8c-0.6,2.4-1.4,3.1-3.7,3.1
			c-16.3-0.2-32.8,0-49.1-0.2c-2.2,0-3.1,0.6-3.9,3.5c-3.5,15.1-7.3,29.9-11,44.8c-0.6,2.4-0.2,2.9,1.8,2.9c16.1,0,32.2,0,48.5,0
			c2.9,0,2.9,0,2,3.3c-2.6,10-5.5,20-7.9,29.9c-0.8,3.1-2,3.7-4.3,3.7c-15.7-0.2-31.4,0-46.8-0.2c-2.2,0-3.3,1-3.9,3.7
			c-4.3,17.7-8.8,35.4-13,53.1c-0.6,2.6-1.6,5.3-1.8,7.9c-0.4,2.4-1.4,2.6-3.1,2.6c-9.2,0-18.3,0-27.5,0c-5.9,0-12,0-17.9,0
			c-2,0-2.4-0.8-1.8-3.1c6.3-23.4,12.6-46.8,18.9-70.2c5.9-22.4,12-44.6,17.9-67c4.9-18.1,9.8-36.2,14.5-54.6
			c0.6-2.2,1.4-3.1,3.3-3.1C1070.4,303.3,1086.5,303.1,1102.5,303.1z"/>
		<path class="st1" d="M576.8,335.1c0.6,0,1.1,0,1.6,0c41.9,0,83.8,0,125.7,0c2.9,0,5.2,2.1,5.9,5.4c1.4,6.3,0.7,12.3-2.2,17.8
			c-0.9,1.7-2,2.5-3.7,2.5c-39.7,0-79.3,0-119,0c-1.1,0-1.4-0.3-1.7-1.7c-1.2-6.9-2.9-13.7-5.2-20.2
			C577.7,337.7,577.3,336.4,576.8,335.1z"/>
		<path class="st1" d="M639.6,382.8c17.2,0,34.5,0.1,51.7-0.1c2.5,0,5,2.5,5.7,5.1c1.2,4.2,0.8,8.3,0.1,12.5
			c-0.5,3.2-1.4,6.2-3.4,8.4c-0.9,1-1.9,1.6-3.3,1.6c-34.4,0-68.9,0-103.3,0c-0.9,0-1.6,0.3-1.4-1.7c0.6-7.2,0.3-14.5,0.3-21.7
			c0-1.1-0.2-2.2-0.2-3.3c0-0.7,0.2-1,0.8-0.9c0.3,0,0.6,0,0.9,0C604.9,382.8,622.2,382.8,639.6,382.8z"/>
		<path class="st0" d="M1425.8,500.7c-20.2,0-40.3,0-60.5,0c-3.5,0-3.5,0-2.4-3.9c8.8-33.2,17.5-66.4,26.1-99.6
			c5.3-20,10.4-39.9,15.7-59.9c2.9-10.6,5.5-21,8.1-31.6c0.6-2,1.2-2.9,3.1-2.9c13.8,0.2,27.9,0,41.7,0c2,0,2.4,0.4,1.8,2.9
			c-4.7,17.7-9.4,35.6-14,53.3c-7.1,27.3-14.3,54.6-21.2,81.8c-1.8,7.3-3.7,14.7-5.7,22c-0.6,2-0.2,2.6,1.6,2.6
			c13.4,0,27.1,0.4,40.5-0.2c11-0.6,21.8,0,32.8-0.4c2,0,2.6,0.4,2,3.1c-2,9.8-3.9,19.5-5.5,29.5c-0.4,2.4-1.2,3.3-3.5,3.3
			C1466.6,500.7,1446.2,500.7,1425.8,500.7z"/>
		<path class="st1" d="M578.8,455.1c0.7-2.5,1.3-4.9,1.9-7.3c1.5-5.8,2.7-11.8,3.5-17.9c0.1-1,0.4-1.5,1.4-1.5c31.2,0,62.4,0,93.6,0
			c1.6,0,2.3,1.1,2.8,2.5c2.1,6.3,2.8,12.8,1.2,19.4c-0.8,3.2-2.6,4.7-5.3,4.7c-32.5,0-65,0-97.6,0
			C579.8,455.1,579.4,455.1,578.8,455.1z"/>
	</g>
	<g>
		<path class="st1" d="M990.6,508.7h23l-25.5,105.6h-22l17.8-73.7l0.4,4.6l-33.1,50.4h-12.3l-9.2-49l3.5-6.1l-17.8,73.7H893
			l25.5-105.6h23.6l10.1,57.4L990.6,508.7z"/>
		<path class="st1" d="M1037.5,508.7h17.3l9,105.6h-24.4l-2-69.2l-35.4,69.2h-24.4L1037.5,508.7z M1009,581h39.3l-4.1,16.9h-39.3
			L1009,581z"/>
		<path class="st1" d="M1082.4,508.7h19.4l17,70.5l-3.4,2.8l17.7-73.3h22.4l-25.4,105.5h-19.6l-17.6-66.4l3.3-2.9l-16.7,69.3H1057
			L1082.4,508.7z"/>
		<path class="st1" d="M1195,508.7h17.3l9,105.6h-24.4l-2-69.2l-35.4,69.2h-24.4L1195,508.7z M1166.5,581h39.3l-4.1,16.9h-39.3
			L1166.5,581z"/>
		<path class="st1" d="M1311.4,557.3l-8.3,31.6c-1.4,5.5-4.2,10.3-8.3,14.2c-4.1,4-9.3,7-15.7,9.1c-6.4,2.1-13.6,3.2-21.8,3.2
			c-8.3,0-15.1-1-20.5-3.1c-5.4-2-9.1-5-11.2-8.9c-2.1-3.9-2.5-8.5-1.1-13.9l14.3-54.8c1.5-5.7,4.3-10.5,8.4-14.6
			c4.1-4.1,9.4-7.2,15.8-9.4c6.4-2.2,13.6-3.2,21.8-3.2c8,0,14.6,1,19.7,3.1c5.2,2.1,8.7,5.1,10.7,9.1c2,4,2.2,8.7,0.8,14.2
			l-2.1,8.1h-27.5l2.1-8.1c0.4-1.7,0.4-3.2-0.1-4.4c-0.5-1.2-1.5-2.2-3-2.8c-1.4-0.7-3.2-1-5.4-1c-2.4,0-4.5,0.4-6.5,1.1
			c-2,0.7-3.6,1.8-4.9,3.1c-1.3,1.4-2.2,3-2.7,4.8l-14.3,54.8c-0.4,1.5-0.3,2.8,0.4,4c0.7,1.1,1.9,2,3.6,2.6
			c1.7,0.6,3.8,0.9,6.3,0.9c2.6,0,4.9-0.3,7-0.9c2.1-0.6,3.8-1.5,5.1-2.8c1.3-1.2,2.2-2.7,2.7-4.4l3.8-14.5h-13.2l4.5-17.3H1311.4z"
			/>
		<path class="st1" d="M1339.3,508.7h24.6l-25.5,105.6h-24.6L1339.3,508.7z M1350.2,508.7h53.2l-4.2,17.6h-53.2L1350.2,508.7z
			 M1339.5,553.1h48.3l-4.2,17.5h-48.3L1339.5,553.1z M1329,596.7h53.2l-4.2,17.6h-53.2L1329,596.7z"/>
		<path class="st1" d="M1416.2,508.6h24.1l-25.5,105.7h-24.1L1416.2,508.6z M1416.6,552.4h26c2.1,0,4-0.3,5.7-0.8
			c1.7-0.6,3.1-1.4,4.1-2.4c1-1,1.7-2.3,2.1-3.7l2.8-11.8c0.4-1.6,0.3-3-0.2-4.1c-0.5-1.2-1.5-2-2.9-2.7c-1.4-0.6-3.2-0.9-5.3-0.9
			h-26l4.2-17.3h24.5c7.8,0,14.3,0.9,19.3,2.8c5.1,1.9,8.6,4.6,10.7,8.2c2,3.6,2.5,7.9,1.2,13l-3,12.3c-1.2,5.2-3.8,9.6-7.6,13.3
			c-3.8,3.7-8.7,6.5-14.8,8.5c-6,1.9-12.9,2.9-20.7,2.9h-24.5L1416.6,552.4z M1433.3,566.4l23.4-3.3l10.7,51.3h-26.4L1433.3,566.4z"
			/>
	</g>
	<path class="st0" d="M306.5,613.9h-23.2l36.5-103.7H343L306.5,613.9z"/>
	<path class="st0" d="M357.7,510.3H376l7.7,69.2l-3.5,2.8l25.3-71.9h21.2l-36.5,103.6h-18.4l-8.7-65.2l3.4-2.9l-23.9,68h-21.3
		L357.7,510.3z"/>
	<path class="st0" d="M407.6,511.8h24.6L420,583.3l38.2-71.6h24.6l-61.6,103.7h-25.1L407.6,511.8z"/>
	<path class="st0" d="M486,510.3h23.2l-36.5,103.7h-23.2L486,510.3z M496.3,510.3h50.2l-6.1,17.3h-50.2L496.3,510.3z M481,553.8
		h45.5l-6,17.2h-45.5L481,553.8z M465.9,596.7h50.2l-6.1,17.3h-50.2L465.9,596.7z"/>
	<path class="st0" d="M558.5,510.3h18.3l7.7,69.2l-3.5,2.8l25.3-71.9h21.2l-36.5,103.6h-18.4l-8.7-65.2l3.4-2.9l-23.9,68H522
		L558.5,510.3z"/>
	<path class="st0" d="M632.8,510.2h68.2l-6,17h-68.2L632.8,510.2z M652.2,518.9h23.2l-33.4,95h-23.2L652.2,518.9z"/>
	<path class="st0" d="M675.7,610.9c-4.5-1.9-7.5-4.7-9-8.3c-1.5-3.6-1.3-8,0.5-13.2l20.1-57c1.8-5.1,4.7-9.5,8.8-13.2
		c4-3.7,9-6.4,14.9-8.3c5.9-1.9,12.5-2.9,19.8-2.9c7.3,0,13.2,1,17.8,2.9c4.5,1.9,7.5,4.7,9,8.3c1.5,3.7,1.3,8.1-0.5,13.2l-20.1,57
		c-1.8,5.1-4.7,9.5-8.7,13.2c-4,3.6-9,6.4-14.9,8.3c-5.9,1.9-12.5,2.9-19.8,2.9C686.1,613.8,680.2,612.9,675.7,610.9z M706.1,595.1
		c2-0.7,3.6-1.7,5-3.1c1.3-1.3,2.3-2.9,3-4.8l18.5-52.6c0.7-1.9,0.8-3.4,0.4-4.8c-0.4-1.3-1.3-2.4-2.8-3.1c-1.5-0.7-3.4-1.1-5.8-1.1
		c-2.4,0-4.5,0.4-6.5,1.1c-1.9,0.7-3.6,1.7-4.9,3.1c-1.3,1.3-2.3,2.9-3,4.8l-18.5,52.6c-0.7,1.9-0.8,3.5-0.4,4.8
		c0.4,1.3,1.3,2.4,2.8,3.1s3.3,1.1,5.7,1.1C702,596.2,704.2,595.8,706.1,595.1z"/>
	<path class="st0" d="M778.1,510.2h22.8l-36.5,103.7h-22.8L778.1,510.2z M773.4,553.1h24.5c2,0,3.8-0.3,5.5-0.8
		c1.7-0.5,3-1.3,4.2-2.4c1.1-1,1.9-2.2,2.4-3.7l4.1-11.5c0.6-1.6,0.7-2.9,0.3-4.1s-1.2-2-2.4-2.6c-1.3-0.6-2.9-0.9-4.9-0.9h-24.5
		l6-17h23.1c7.4,0,13.3,0.9,17.9,2.7c4.6,1.8,7.6,4.5,9.1,8.1c1.5,3.5,1.4,7.8-0.4,12.7l-4.3,12.1c-1.8,5.1-4.7,9.4-8.7,13.1
		c-4,3.6-9,6.4-14.9,8.3c-5.9,1.9-12.5,2.9-19.8,2.9h-23.1L773.4,553.1z M787.5,566.9l22.4-3.3l4,50.3H789L787.5,566.9z"/>
	<path class="st0" d="M869.2,574.2l-14,39.7H832l14-39.7l-3-63.9h24.2l-2.4,42.9l27.3-42.9h24.2L869.2,574.2z"/>
</g>
</svg>
