<svg xmlns="http://www.w3.org/2000/svg" viewBox="0 0 613.55 324.35"><defs><style>.cls-1{fill:#002866;}.cls-2{fill:#efb31e;}</style></defs><g id="Layer_2" data-name="Layer 2"><g id="Layer_1-2" data-name="Layer 1"><path class="cls-1" d="M311.55,133.35c22.3,0,44.6-.1,66.9.1,3.6,0,6.1-1.9,8-5.3a24,24,0,0,0,2.9-11.6,30.46,30.46,0,0,0-1.9-12.4c-1.1-2.9-2.5-5.6-4.7-7.4a4.9,4.9,0,0,0-3.2-1.2H253.85c-2.4,0-2.3,0-1.6-2.7q6.15-24.15,12.4-48.2c3.2-12.3,6.4-24.7,9.5-37,.6-2.2,1.1-4.3,1.6-6.5.2-.7.5-1.1,1.1-1.1h1q57.75,0,115.5.1a92.14,92.14,0,0,1,12.8,1.1A87.34,87.34,0,0,1,422.05,5,69.88,69.88,0,0,1,442,15.25a65.79,65.79,0,0,1,14.5,14.8,86,86,0,0,1,11.2,21.5,123.18,123.18,0,0,1,6,24.1c.6,4,1.1,8.1,1.4,12.2a229,229,0,0,1,.7,24.8,162.2,162.2,0,0,1-1.8,20.9,152.8,152.8,0,0,1-3.5,16.6,96.35,96.35,0,0,1-12.3,27.5,74.71,74.71,0,0,1-44.8,31.8,114.48,114.48,0,0,1-11.4,2.2c-3.3.4-6.7.4-10,.6-5.2.4-10.3.2-15.5.2H223.55c-2.3,0-2.1.3-1.5-2.3,3-11.7,6-23.4,9-35,2.9-11.2,5.7-22.4,8.6-33.6.5-2.1,1.1-4.1,1.5-6.2.3-1.3.8-1.8,2-1.8Q277.5,133.4,311.55,133.35Z"/><path class="cls-1" d="M80.25,324.15H1c-1,.2-1.1-.5-.8-1.4.7-2.9,1.5-5.8,2.2-8.6,3.1-12.2,6.2-24.3,9.3-36.5,2.5-9.7,4.9-19.5,7.4-29.2,1.9-7.7,3.9-15.3,5.8-23,.4-1.6,1-2,2.3-2q42.15,0,84.3.1c1.4,0,2-.4,2.4-2.1,2.9-11.5,5.9-22.9,8.9-34.4,2.1-8.1,4.2-16.1,6.3-24.2,3.3-12.6,6.5-25.2,9.8-37.7,2.1-8.1,4.2-16.2,6.3-24.4,3.3-12.5,6.5-25.1,9.7-37.6,3.1-12,6.2-23.9,9.3-35.9,2.3-8.7,4.5-17.4,6.7-26.1.2-.7.5-1.1,1.1-1.1h87.7c1.1-.2,1.3.2,1,1.5-3.5,13-6.9,26-10.3,39-3,11.2-5.9,22.5-8.9,33.7s-5.9,22.6-8.9,33.8c-2.2,8.5-4.5,17-6.7,25.5s-4.5,16.9-6.7,25.4-4.5,16.9-6.7,25.4c-2.2,8.2-4.3,16.4-6.5,24.6l-6.6,25.2c-3.1,11.7-6.1,23.3-9.2,35-1.9,7.1-3.5,14.3-5.6,21.3a105.11,105.11,0,0,1-10.3,24.3c-3.3,5.4-7.8,8.4-13.3,9.3a29.68,29.68,0,0,1-5.2.3C130.65,324.15,105.45,324.15,80.25,324.15Z"/><path class="cls-1" d="M250.67,280.13l4.3-16.34c1.49-6,3-11.87,4.57-17.85,1.5-5.69,2.9-11.39,4.39-17,.28-1,.66-1.12,1.41-1.12h19.42c1.41,0,1.5,0,1,1.78-1.12,4.67-2.33,9.43-3.45,14.1-2.15,8.88-4.3,17.66-6.45,26.53-1.21,5-2.52,10.09-3.74,15a.78.78,0,0,0-.09.65c.19.19.37-.09.47-.18,3.17-3.65,6.26-7.38,9.43-10.93,3.83-4.3,7.66-8.69,11.49-13.08,2.43-2.8,4.86-5.51,7.19-8.31,5.05-5.89,10.18-11.68,15.23-17.47l6.44-7.29a2,2,0,0,1,1.59-.84h21.39c1,0,1.12.38.84,1.5-3.45,12.61-6.82,25.31-10.18,37.92q-4.9,18.21-9.81,36.52c-1.21,4.49-2.43,9-3.64,13.55-.28.93-.56,1.3-1.49,1.3H301.76c-1.21,0-1.3-.18-.84-1.58,1.22-4,2.43-8,3.65-12,.18-.75.18-1-.56-1.12a42,42,0,0,0-4.67-.28c-5,.19-10-.28-15-.37a6.61,6.61,0,0,0-5.33,2.52c-3.73,4.2-7.66,8.22-11.49,12.33a1.47,1.47,0,0,1-1.12.46H243.2c-.66,0-.94-.28-1.22-.93-3-7.85-6.07-15.6-9.15-23.35-1.68-4.2-3.27-8.41-5-12.61-1.12-2.9-2.34-5.79-3.46-8.78-.18-.37-.28-.94-.65-1.22-.84,3.09-1.68,6.17-2.43,9.25-1.31,4.86-2.61,9.81-3.83,14.76-1.87,7.1-3.73,14.2-5.51,21.3-.37,1.3-.84,1.68-2,1.68q-9.94-.15-19.9,0c-1,0-1.21-.38-.93-1.5,1.68-6.35,3.36-12.7,5-19.14,3.83-14.39,7.57-28.87,11.31-43.25,1.77-6.73,3.54-13.45,5.32-20.27l1.4-5.33c.19-.84.56-1.21,1.31-1.21h16.9c.66,0,1,.28,1.31,1,2.9,7.84,5.79,15.69,8.69,23.63,3.18,8.59,6.26,17.19,9.43,25.78A16.66,16.66,0,0,1,250.67,280.13ZM312.32,269c-.09-.1-.19-.1-.19-.19-5.32,6.07-10.74,12.05-16.06,18.12.09.09.09.19.18.37h11.87c1,0,1.3-.46,1.49-1.58.56-3.55,1.12-7.1,1.78-10.75C311.67,273.13,312,271.07,312.32,269Z"/><path class="cls-1" d="M432.16,228.06h21.3c1.3,0,1.3.09.93,1.58-1.59,5.61-3.27,11.21-4.76,16.82-.38,1.31-1.22,1.31-2.06,1.31-2.24,0-4.57.09-6.82,0-1.12,0-2.24.37-3.36.28-.75,0-.75.84-.93,1.4-1.68,6.35-3.46,12.61-5.14,19-1.77,6.72-3.55,13.36-5.32,20.08-.19.84-.28,1.22.65,1.5a4.16,4.16,0,0,0,4.67-1.5c3.64-4.2,7.47-8,11.21-12.14,2.33-2.52,4.67-5.14,7-7.75,3.09-3.37,6.26-6.64,9.34-10,2.34-2.52,4.68-5.14,7-7.66,3.08-3.36,6.26-6.63,9.34-10,2.43-2.62,4.76-5.23,7.1-7.76,1.4-1.58,2.9-3.08,4.3-4.67.28-.37.65-.37,1.12-.37h20.92c1.12,0,1,.56.75,1.49q-2.25,8.28-4.49,16.54c-2.8,10.37-5.51,20.73-8.22,31.2-2.7,10.18-5.41,20.36-8.12,30.63l-2.52,9.53c-.28.93-.66,1.31-1.5,1.31h-19.8c-1,0-1.31-.28-.93-1.59.84-3,1.58-6.07,2.42-9.06.47-1.77.47-1.77-1-1.77-5.14,0-10.28-.1-15.42,0-3.45.09-6.81-.38-10.27-.38a1.79,1.79,0,0,0-1.68,1c-2.24,3.64-4.49,7.19-6.82,10.74a1.5,1.5,0,0,1-1.59.93H397c-1.22,0-1-.65-.84-1.68q3.5-13,7-26.06c3.27-12.23,6.54-24.38,9.81-36.61.47-1.87.93-3.83,1.49-5.79.28-.84.1-1.12-.65-1.12h-8.59c-.84,0-1-.28-.75-1.31,1.59-5.61,3.08-11.3,4.58-17,.28-.94.65-1.31,1.49-1.31C417.87,228.15,425,228.06,432.16,228.06Zm25.59,60.24c.19.1.28.19.47.19h13.17c.84,0,1-.56,1.12-1.4.66-5.42,1.4-10.84,2.06-16.16.18-1.4.28-2.8.46-4.11a.31.31,0,0,1-.18-.09C469.06,273.92,463.45,281.11,457.75,288.3Z"/><path class="cls-2" d="M28.35,211.35c1.1-4.3,2.1-8.4,3.2-12.6,2.5-9.9,5-19.8,7.6-29.7,2.1-8.2,4.1-16.4,6.2-24.5.9-3.7,1.9-7.4,2.8-11.1.2-.8.5-1,1-.9h70.6c-1.2,4.4-2.3,8.6-3.4,12.9-2.8,10.7-5.6,21.3-8.5,32-1.7,6.6-3.5,13.1-5.2,19.7-1.2,4.4-2.3,8.8-3.4,13.2-.2.7-.3,1.2-1.2,1.2H29A.85.85,0,0,0,28.35,211.35Z"/><path class="cls-2" d="M439.55,212.35c1-1.1,2.1-.7,2.9-.8a32.6,32.6,0,0,0,12.8-5.3,44,44,0,0,0,7.8-6.6,67.79,67.79,0,0,0,11.5-17c.2-.4.4-.6.8-.5h94.3c2,0,3.5,1.3,4.2,3.5a34.8,34.8,0,0,1,1.5,13.6c-.4,4.1-1.1,8.2-3.9,11.1a5.55,5.55,0,0,1-4,2H439.55Z"/><path class="cls-1" d="M378.54,228.06h22c1.4,0,1.4,0,.93,1.68-1.49,5.51-3,10.93-4.39,16.44-.28,1.12-.65,1.4-1.68,1.4-7.47-.09-15,0-22.51-.09-1,0-1.4.28-1.77,1.58-1.59,6.92-3.37,13.73-5.05,20.55-.28,1.12-.09,1.31.84,1.31h22.23c1.31,0,1.31,0,.94,1.5-1.22,4.57-2.52,9.15-3.65,13.73-.37,1.4-.93,1.68-2,1.68-7.19-.1-14.38,0-21.48-.1-1,0-1.5.47-1.78,1.69-2,8.12-4,16.25-6,24.37a25.29,25.29,0,0,0-.84,3.65c-.19,1.12-.66,1.21-1.41,1.21H332.21c-.93,0-1.12-.37-.84-1.4q4.35-16.11,8.69-32.22c2.71-10.28,5.51-20.46,8.22-30.74,2.24-8.31,4.48-16.62,6.63-25,.28-1,.66-1.4,1.5-1.4C363.79,228.15,371.17,228.06,378.54,228.06Z"/><path class="cls-2" d="M479.65,46.65H607c2.9,0,5.2,2.1,5.9,5.4a25.38,25.38,0,0,1-2.2,17.8c-.9,1.7-2,2.5-3.7,2.5H488c-1.1,0-1.4-.3-1.7-1.7a124.7,124.7,0,0,0-5.2-20.2C480.55,49.25,480.15,48,479.65,46.65Z"/><path class="cls-2" d="M542.45,94.35c17.2,0,34.5.1,51.7-.1,2.5,0,5,2.5,5.7,5.1,1.2,4.2.8,8.3.1,12.5-.5,3.2-1.4,6.2-3.4,8.4a4.22,4.22,0,0,1-3.3,1.6H490c-.9,0-1.6.3-1.4-1.7.6-7.2.3-14.5.3-21.7,0-1.1-.2-2.2-.2-3.3,0-.7.2-1,.8-.9h.9C507.75,94.35,525.05,94.35,542.45,94.35Z"/><path class="cls-1" d="M526.88,318.75H499.13c-1.58,0-1.58,0-1.12-1.77,4-15.23,8-30.45,12-45.68,2.43-9.15,4.76-18.3,7.19-27.46,1.31-4.85,2.52-9.62,3.74-14.48.28-.93.56-1.3,1.4-1.3,6.35.09,12.79,0,19.15,0,.93,0,1.12.18.84,1.3-2.15,8.13-4.3,16.35-6.45,24.48-3.27,12.51-6.54,25-9.71,37.55-.84,3.36-1.68,6.72-2.62,10.08-.28.94-.09,1.22.75,1.22,6.16,0,12.42.19,18.59-.09,5-.28,10,0,15-.19.93,0,1.21.19.93,1.4-.93,4.48-1.77,9-2.52,13.54-.19,1.12-.56,1.5-1.59,1.5C545.56,318.75,536.22,318.75,526.88,318.75Z"/><path class="cls-2" d="M481.65,166.65c.7-2.5,1.3-4.9,1.9-7.3a149.06,149.06,0,0,0,3.5-17.9c.1-1,.4-1.5,1.4-1.5h93.6c1.6,0,2.3,1.1,2.8,2.5a34.63,34.63,0,0,1,1.2,19.4c-.8,3.2-2.6,4.7-5.3,4.7h-97.6A7.08,7.08,0,0,1,481.65,166.65Z"/></g></g></svg>