<?xml version="1.0" encoding="utf-8"?>
<!-- Generator: Adobe Illustrator 26.0.1, SVG Export Plug-In . SVG Version: 6.00 Build 0)  -->
<svg version="1.1" id="Layer_1" xmlns="http://www.w3.org/2000/svg" xmlns:xlink="http://www.w3.org/1999/xlink" x="0px" y="0px"
	 viewBox="0 0 9578.9 6547.7" style="enable-background:new 0 0 9578.9 6547.7;" xml:space="preserve">
<style type="text/css">
	.st0{fill:#FBECDB;}
	.st1{fill:#EAD6C3;}
	.st2{fill:#213164;}
	.st3{fill:#739AEF;}
	.st4{fill:#313854;}
	.st5{fill:#F2A71B;}
	.st6{fill:#D8935D;}
	.st7{fill:#243962;}
	.st8{fill:#F0B321;}
	.st9{fill:#4A75CA;}
	.st10{fill:#2C488B;}
	.st11{fill:#FEB27E;}
	.st12{fill:#022859;}
	.st13{fill:#EE9B00;}
	.st14{fill:#ED9960;}
	.st15{fill:#E78B37;}
	.st16{fill:#D3671F;}
	.st17{fill:#E9D5C3;}
</style>
<g>
	<path class="st0" d="M1595.4,5178.2c-0.6-3.2-0.6-6.8-1.9-9.7c-9.7-21.2-19.8-42.1-29.6-63.3c-22.9-49.5-42.2-100.3-57.5-152.8
		c-7.2-24.9-12.7-50.1-17.7-75.4c-2.6-13.5-3.7-27.7-6-41.2c-4.9-29.9-2.3-59.7-3.4-89.6c-1-26.7,2.9-52.8,7.3-79
		c8.9-54.1,26.1-105.4,48.6-155.3c23-51.1,51.7-98.8,80.7-146.5c32.8-53.9,68.2-106.2,99.6-161c16.5-28.9,33.4-57.6,47.5-87.7
		c27.2-57.9,49.8-117.4,63.4-180c5.2-23.9,10.6-48.1,12.1-72.4c1.4-23.2,6.3-46,5.1-69.5c-1.2-23.3-0.3-46.6-0.3-70
		c0-10.7-5-20.6-4.1-31.5c0.8-9.9-1.6-19.7-2.6-29.6c-2.2-21.1-6.5-41.9-9.7-62.8c-3-20.3-8.1-40.3-13.5-60.1
		c-13.4-49.3-23.7-99.2-33-149.4c-3.8-20.7-9-41.5-9.2-62.8c-6.7-16.4-1.1-34.5-7.3-51.1c-1.3-3.5-0.4-7.9-0.5-11.9
		c-0.2-10,0.5-19.9-3.1-29.6c-1.5-4.2-0.8-9.2-0.9-13.9c-0.1-15.3-0.1-30.7-0.1-46c0-7.3-0.9-14.4-2.2-21.7
		c-3.2-17.1-3-34.6-0.2-51.6c1.3-7.9,2.4-15.7,2.4-23.7c0-12,0-24,0.1-36c0.1-8.6-0.8-17.3,2.8-25.6c0.8-1.8,1.1-4,0.9-5.9
		c-2-18.8,5.2-36.8,4.4-55.5c-0.4-10,3.1-19.6,4.6-29.4c7.7-51.1,18.6-101.7,32.5-151.4c14-49.9,30.7-98.9,52.1-146.3
		c11.7-26.1,22.1-52.8,35.5-78c18.6-35.2,38.5-69.8,59.6-103.7c24-38.3,51.1-74.4,78-110.6c8.7-11.7,19.9-21.6,28.2-33.5
		c13.1-18.6,31.8-32.2,44.3-51.2c2.5-3.8,6.3-6.8,9.6-10.1c15.1-15.1,29.1-31.4,45.5-44.9c20-16.5,37.2-36,58.1-51.6
		c11.1-8.3,20.4-18.9,31.7-27.2c21.3-15.8,41.3-33.4,62.8-48.9c26.4-19,53.6-36.9,80.7-54.9c26-17.2,53.4-32.4,80.2-48.3
		c23.5-13.9,47.9-26.3,72.2-38.3c25.6-12.6,50.7-26.3,77.5-36.6c27.3-10.5,53.6-23.4,80.9-33.8c40.3-15.3,80.8-30.2,122.4-42.2
		c33.8-9.8,67.5-19.9,101.7-28c32.8-7.8,65.6-16.5,98.9-21.8c29.4-4.7,58.5-10.7,88.3-13.7c23-2.3,46-5.5,69-8.1
		c16.6-1.9,33.2-1.3,49.5-3.6c49.8-7,99.7-2.1,149.5-3.6c18.6-0.5,37.3-0.2,56,0c11.9,0.1,23.9-0.8,35.6,3.1
		c4.8,1.6,10.6,0.7,15.9,0.8c10.6,0.2,21.3-1,31.6,3.3c1.8,0.7,3.9,0.5,5.9,0.7c44.9,3.3,89.3,10,133.5,19.1
		c31.2,6.4,62.4,12,93.1,20.5c42.2,11.8,84.3,23.6,125.4,39c50.6,18.9,99.9,40.1,147.9,64.8c47.4,24.4,92.5,52.4,136.3,82.6
		c6.7,4.6,15.7,8.1,17.7,17.8c-7.3,0.1-14.7,0.3-22,0.3c-80,0-159.9,0-239.9,0c-28.5,0-26.4-2-26.4,25.4c0,843.6,0,1687.1,0,2530.7
		c-4.6,0.3-9.3,0.8-13.9,0.8c-69.8-0.1-139.7,0-209.5-0.4c-22.9-0.1-21.2-1-21.3,21.7c-0.2,68.5-0.4,137-0.5,205.5
		c-4,0.3-7.9,0.7-11.9,0.7c-45.1,0-90.3-0.2-135.4-0.1c-19.9,0-39.8,0.5-59.7,0.8c-3.3-0.3-6.6-0.8-9.9-0.8
		c-67.3-0.2-134.5-0.3-201.8-0.3c-3.3,0-6.7,0.1-10,0.3c-3.8,0.2-6.1,2.4-6.4,6.2c-0.3,3.3-0.3,6.6-0.3,10
		c-1.1,83.2,0.7,166.4-1.7,249.7c-0.9,31.9-0.1,63.9-0.2,95.9c-0.1,14.6-0.6,29.3-0.9,43.9c-7.9,0.3-15.9,0.7-23.8,0.8
		c-26.5,0.3-53.1,0.5-79.6,0.8c-11.3-22.8-31-33.8-54.6-39.4c-7.1-1.7-14.2-3.8-21.4-4.7c-20.2-2.5-36.3-12-49.3-27.4
		c-1.7-2-3.6-3.9-5.4-5.8c-18.1-19.4-36.3-38.9-54.4-58.3c-14.7-66.3-28.1-132.9-40.5-199.6c-11.3-60.9-21.6-122-30.2-183.3
		c-5.3-37.6-8.9-75.4-13.4-113.1c-4.2-35.8-5.1-71.8-6.4-107.7c-1-25.9,0.4-52,4.2-77.7c6.1-40.8,13.3-81.5,19.6-122.3
		c6.6-42.8,10.8-85.9,14.3-129c2.9-35.9,3.7-71.9,5.7-107.8c3.4-63.4-0.3-126.5-2.6-189.8c-0.3-8.6-2.1-17.1-3.3-25.7
		c1.2-11.3-0.2-22.5-1.5-33.7c-3.6-32.3-7-64.7-10.7-97c-3.1-27.7-6.5-55.4-9.7-83.1c-4.9-42.2-11.9-84.1-19.2-126
		c4.4-1.5,8.7-3.2,13.1-4.5c12.4-3.8,21.4-10.3,21.6-24.9c0-4.5,1.8-9.1,2.9-13.6c3.9-16.7,7.9-33.5,11.9-50.2
		c7.9,0.7,15.6,1.9,23.4,4.1c17.8,4.9,35.8,9.1,53.9,13.2c41.2,9.4,82.5,18.3,123.6,27.9c23.1,5.4,45.9,12.3,68,21
		c-12.8,17-25.6,34-38.4,51c-3.6,4.8-7.4,9.4-10.8,14.3c-3.6,5.1-1.8,9.3,4.1,9.6c5.3,0.3,10.6,0.2,16,0.2c69.2,0,138.5,0,207.7,0
		c8.7,0,17.3-0.3,26,0.1c6.6,0.3,11.4-1.9,15.4-7.1c9.5-12,19.3-23.7,29.1-35.6c30.4-37,60.9-74,91.4-111
		c6.4,2.5,10.7,7.8,15.6,12.2c8.5,7.6,17.6,14.4,28,18.9c13.5,5.7,23,2.6,30.6-9.9c13.7-22.4,18-47,15.6-72.9
		c-0.9-9.9-5.5-17.8-16.5-19.9c-3.9-0.8-7.7-2.2-11.5-3.3c5.1-6.9,10-14,15.4-20.7c26-32,52.1-63.8,78.1-95.7c2.4-3,6.3-6,3.9-10.2
		c-2.1-3.7-6.7-3.8-10.7-3.8c-3.3,0-6.6,0-10,0c-20.6-0.1-41.2-0.3-61.8-0.4c0.2-5.3-1.4-9.1-7.5-9.3c-6.6-0.2-13.2-0.5-19.8-0.1
		c-8.4,0.5-13-2-15.5-10.9c-2.4-8.4-11-10.7-17.3-6.3c-2.1,1.5-4.8,3.3-5.4,5.5c-3.2,11.7-11.9,12.4-21.7,11.7
		c-3.9-0.3-7.9,0.2-11.9-0.1c-7.6-0.6-12.3,3.4-16.2,9.3c-22.4,0.2-44.9,1.2-67.3,0.4c-12-0.4-19.5,4-26.3,13.3
		c-11.2,15.5-23.5,30.2-35.3,45.3c-5.3-2.8-10.6-5.6-15.9-8.3c-23.7-12-47.7-23.5-70.5-37.4c-16.1-9.8-29.9-21.6-40-38
		c-14.4-23.3-26.8-47.6-37.5-72.7c-22.6-53.2-44-107-66-160.5c-11.4-27.7-21.6-55.8-36-82.2c-0.3-2-0.2-4.1-1-5.8
		c-12.6-28.5-28.6-55.2-43.6-82.5c-1.8-3.3-4.9-6.3-8.1-8.5c-29.5-20.5-60.7-37.4-95.2-47.9c-1.5-1.2-2.9-3-4.6-3.4
		c-10.6-2.3-12.7-9.6-12.1-19.1c0.6-9.7,0.9-19.3,3.2-29c2-8.1,5.9-16,4.8-24.8c4.3-14.5,8.7-29.1,13-43.6
		c5.8,1.4,11.9,1.9,17.2,4.3c12.9,5.9,23.2,0.3,33.1-6.6c5.4-3.8,9.5-9.1,13.4-14.5c19.7-27,33.1-57.2,46.7-87.4
		c3.2-7.1,6.2-14.7,5.8-22.9c5.3-2.1,7.6-7.1,10.3-11.5c10.8-17.4,19.1-35.8,24.9-55.4c26.3,2.5,52.5,5,78.8,7.4
		c3.3,0.3,6.6,1,9.8,0.7c7.1-0.6,10.9-9.4,6.3-15c-2.8-3.5-6.6-6.4-10.3-9.1c-16.8-12.8-35.2-23.4-53.3-34.2
		c0.4-4.6,0.5-9.3,1.3-13.9c5.1-30.4,4.6-60.9-1-91.1c-9.9-54.1-37.9-95.9-87.1-121.7c-29.1-15.3-60.6-23.4-93.5-25.2
		c-19.8-1.1-39.9-2.3-59.2,4.3c-4.6-0.7-8.9-0.4-12.3,3.4c-25.5,5.4-46.6,18.9-65.7,35.9c-31.6,28.1-51.9,63.6-66,103.1
		c-7.1,19.8-8.5,40.2-8.7,60.9c-0.1,5.7,1.9,10.4,5.3,14.6c-10.3,31-11.7,62.8-8,94.8c2,17.3,6.8,34,16.7,48.7
		c7.4,11,16.8,19.3,31.4,16.9c13.6-2.3,21.5,4.9,27,15.8c2.7,5.3,4,11.2,5.9,16.9c-1.5,7.1-1.3,14.4-3.7,21.5
		c-6.6,19.5-13.5,38.8-23.2,56.9c-9.4,17.5-20.2,34-34.2,48.5c-8.5,8.8-17.7,11.2-28.7,8.7c-6.5-1.5-12.8-3.3-19.6-2.1
		c-13.2-1.3-26.4-3.1-39.7-3.7c-24-1.1-47.7,1.5-71.3,5.9c-28.4,5.3-48.1,21.6-60.4,47.2c-4,8.4-7.9,17-10.4,25.9
		c-6.3,22.4-9.4,45.5-9.7,68.8c0,8.6-0.8,17.3,0.2,25.9c1.9,17.1,4.6,34.1,7.1,51.1c1.5,10.5,3.3,20.9,5,31.4
		c-0.2,10.6-0.4,21.2-0.5,31.9c-0.3,40.5-0.8,80.9-3.3,121.4c-2.2,35.7-8.3,69.7-25.4,101.4c-5.6,6.5-11.2,13-16.8,19.5
		c-29.9,34.7-58.6,70.3-82.4,109.6c-15.9,26.2-29.4,53.6-35.1,84c-3.8,20.6-3.6,41,10.6,58.6c-12.1,20.8-21,43-28.3,65.9
		c-18.1,57.3-22,116.2-19,175.8c2,39.9,4.4,79.8,5.9,119.7c2.2,54.6,3.5,109.2,5.7,163.7c3.5,87.8,7.4,175.7,11.4,263.5
		c2.2,48.6,5.1,97.1,10.9,145.4c2,16.5,3.3,33.1,5.2,49.7c0.9,8.3-0.8,15.5-4.9,22.9c-8.1,14.5-16,29.2-23.1,44.3
		c-39.1,83.8-57.6,172.6-64.1,264.3c-3.3,46.6-3.2,93.1-0.4,139.7c2.7,44.6,7.5,88.9,14.8,132.9c4.7,28.2,9.9,56.3,14.9,84.5
		c0.3,18.6-6,34.9-16.5,49.9c-1.5,2.2-2.8,4.5-4.2,6.7c-13.9,21-20.6,44.1-20.5,69.2c0,5.9,0.8,11.9-1.6,17.6
		c-7.3-0.2-14.6-0.6-21.9-0.6c-194.2,0-388.5,0-582.7-0.1C1610,5179,1602.7,5178.5,1595.4,5178.2z"/>
	<path class="st0" d="M6831.6,2928.1c6.3-0.5,11.6,2.2,17.1,4.7c67.7,31.6,131.7,69.6,192.5,112.8c27,19.1,52.5,40.5,78.6,61
		c27.7,21.8,53.1,46.1,78.9,70.1c13.1,12.2,27.2,23.4,39.4,36.5c20.8,22.4,41.8,44.7,62.6,67c24.9,26.6,48.1,54.9,71.2,83.1
		c18.8,23.1,37,46.9,54.3,71.1c24.7,34.5,49,69.4,72.5,104.9c13.9,21,25.8,43.4,38.9,65c20.7,34.2,37.2,70.7,54.9,106.4
		c13.9,28,26,56.7,35.9,86.5c6.7,20.2,15.1,39.8,21.3,60.1c13.7,44.3,25.8,89.1,33.9,134.9c3.6,20.2,9,40.2,10.7,60.5
		c1.4,17.2,6.4,34,5.2,51.4c-0.2,2.6-0.5,5.5,0.2,8c6.2,20.9,3.4,42.3,3.6,63.5c0.4,36.6,0.2,73.3,0,110c0,11.9,1.3,24-3.3,35.6
		c-0.7,1.8-0.4,3.9-0.6,5.9c-4.3,49.9-7.9,78.2-19.1,137.5c-13.2,70-33.1,138-57,204.9c-11.1,31.3-23.6,62.1-36.4,92.7
		c-11.3,27-24.2,53.4-37.4,79.4c-23.1,45.6-46,91.5-74.9,133.9c-10.1,14.8-18.1,31-28.1,45.9c-16.7,24.7-33.8,49.3-51.7,73.1
		c-19.5,26-40.1,51.1-60.1,76.7c-1.6,2-2.3,4.7-3.4,7.1c-7.3,0.3-14.6,0.8-21.9,0.8c-181,0-362.1,0-543.1,0.1
		c-7.3,0-14.6,0.5-21.9,0.7c-1.7-3.8-1.4-7.6-0.5-11.5c5.1-21.2,4.2-42.6,2.8-64.1c11.3-8.5,16.6-20.2,18.5-33.9
		c3-21.7,7.1-43.3,9.4-65.1c6.6-61.6,9.8-123.4,11.5-185.3c2.7-97.8,2.1-195.6-6.1-293.3c-3.1-36.5-7.4-72.8-13.4-108.9
		c-3.8-23-9.9-45.4-19.6-66.8c-6.6-14.5-12.2-29.5-17.9-44.4c-4.6-11.8-8.1-24-9-36.7c-1.8-24.6-3.9-49.1-4.6-73.7
		c-2.3-77.2-1.4-154.4-0.3-231.6c0.5-37.3,1.6-74.5,2.4-111.8c12.9,2.9,25.3,7.8,38.9,8.1c14.4,0.3,24-5.9,29.8-18.8
		c5.6-12.3,7.9-25.4,8.7-38.7c1.6-28.6,0.1-57.1-6.1-85.2c-3.4-15.2-2.6-30.2,0.4-45.5c6.5-33.2,12.6-66.5,18.2-99.9
		c4.8-28.1,8.2-56.5,13.1-84.6c6.9-39.3,10.5-78.9,13.9-118.6c2.7-31.8,2-63.8,0.7-95.7c0.2-7.3,0.5-14.6,0.5-21.8
		c0-39.8,0-79.6-0.1-119.3c-0.2-46.4-0.4-92.8-0.7-139.2c0-6,0-12-1-17.8C6831.2,2959.9,6831.2,2944,6831.6,2928.1z"/>
	<path class="st1" d="M3891.5,4544.4c0-843.6,0-1687.1,0-2530.7c0-27.4-2.1-25.4,26.4-25.4c80,0,159.9,0,239.9,0
		c7.3,0,14.7-0.2,22-0.3c8,0.1,16,0.4,24,0.4c285.9,0,571.8,0,857.7,0c5.3,0,10.7,0.1,16-0.2c7.7-0.4,9.6-2.2,10.1-9.4
		c0.3-5.3,0.2-10.7,0.2-16c0-70.6-0.1-141.3-0.1-211.9c0-23.9-0.8-22.8,23-22.8c114,0,227.9-0.1,341.9-0.1c23.8,0,23-1,23,22.8
		c0,70.6,0.1,141.3,0.1,211.9c0,4.7-0.1,9.3,0.1,14c0.4,9.8,1.9,11.2,12.1,11.6c5.3,0.2,10.7,0.1,16,0.1c107.3,0,214.6,0,321.9,0
		c6,0,12,0,18,0.3c4.7,0.3,7.2,3.3,7.3,7.8c0.3,6.7,0.3,13.3,0.3,20c0,318.6,0,637.1,0,955.7c0,6.7,0.1,13.3,0.2,20
		c0,85.7,0,171.4,0,257.1c-29.4,17.8-58.3,36.5-88.5,52.9c-14.9,8.1-31.9,11-49.8,7.6c-18.6-3.5-37.2-7.2-56.9-2.5
		c-24.9,5.9-43.6,18-54.9,41.1c-2,4.2-3.9,8.4-5.8,12.7c-6.8,0.4-13.5,0.7-20.3,1.1c0-86,0.1-172,0.1-258
		c0.1-83.8,0.1-167.7,0.2-251.5c0-26.4,1.5-24.5-25.2-24.6c-183.7,0-367.3,0-551,0c-25.3,0-50.6,0.1-75.9,0.2c-1.3,0-2.7-0.1-4-0.1
		c-322,0-643.9,0-965.9,0c-3.3,0-6.7-0.1-10,0.1c-10.2,0.5-11.6,1.8-12.1,11.6c-0.2,3.3-0.1,6.7-0.1,10c0,222.6,0,445.3,0,667.9
		c0,23.7-0.5,22.4,23.4,22.4c178,0,356,0,534,0c4.7,0,9.3,0.1,14-0.3c5.9-0.4,7.9-2.7,8.4-9c0.3-4,0.2-8,0.2-12
		c0-78.7,0-157.3,0-236c0-4.7,0.7-9.7-0.7-13.9c-4.2-11.7-3-23.7-3.1-35.6c-0.1-26,0-52-0.1-78c0-23.9-1.1-23.3,22.6-23.3
		c184.7,0,369.3,0,554,0c24.6,0,23.4-1.3,23.4,24.4c0,68,0,136,0,204c-7.3,0.2-14.5,0.6-21.8,0.7c-13.9,0.1-27.8-0.2-41.7,0.1
		c-11.5,0.3-22.4,2.7-29,13.8c-3.6,1.7-7,3.8-10.8,4.9c-44.8,13.3-84,59.4-82.1,114.7c1.3,37.8,0.3,75.7,0.2,113.6
		c0,6.6-0.6,13.2-1,19.8c-4.7,0-9.3-0.1-14-0.1c-317.3,0-634.6,0-952,0c-2,0-4,0-6,0c-17.7,0.3-17.7,0.3-18,17.8c0,1.3,0,2.7,0,4
		c0,86.7,0,173.3,0,260c0,4.7,0,9.3,0.3,14c0.3,4.5,2.7,7.6,7.4,7.8c6.7,0.3,13.3,0.3,20,0.3c179.3,0,358.6,0,538,0
		c5.3,0,10.7-0.1,16,0c12.9,0.4,13.9,1.3,14.3,13.4c0.2,5.3,0.1,10.7,0.1,16c0,117.3,0,234.7,0,352c0,6-0.1,12,0.3,18
		c0.4,5.9,2.7,7.9,9,8.4c3.3,0.3,6.7,0.2,10,0.2c64,0,128-0.1,192-0.1c1.6,29.4,1.2,58.8,0.4,88.3c-262.6,0-525.3-0.1-787.9-0.1
		c-4,0-8,0-12,0.3c-4.7,0.4-7.2,3.3-7.4,7.8c-0.3,5.3-0.3,10.7-0.3,16c0,30.7,0,61.3,0,92
		C3918.1,4545.6,3904.8,4545.6,3891.5,4544.4z M4239.5,2028.3c-95.3,0-190.5,0-285.8,0c-4,0-8-0.1-12,0.1c-7.7,0.5-9.6,2.2-10,9.5
		c-0.3,6-0.2,12-0.2,18c0,219.2,0,438.4,0,657.6c0,29.3-2.4,26.8,27,26.8c278.5,0,557,0,835.5,0c7.3,0,14.6-0.3,22-0.5
		c7.3,0.1,14.7,0.4,22,0.4c237.2,0,474.4,0,711.6,0c5.3,0,10.7,0.1,16-0.2c7.7-0.4,9.6-2.2,10-9.4c0.3-6,0.2-12,0.2-18
		c0-218.5,0-437.1,0-655.6c0-32.1,3.2-28.8-28.9-28.8c-426.4,0-852.8,0-1279.2,0C4258.1,2028.2,4248.8,2028.3,4239.5,2028.3z"/>
	<path class="st2" d="M6717.7,3852.8c-0.8,37.3-1.9,74.5-2.4,111.8c-1.1,77.2-2,154.4,0.3,231.6c0.7,24.6,2.8,49.2,4.6,73.7
		c0.9,12.7,4.5,24.9,9,36.7c5.7,14.9,11.4,29.9,17.9,44.4c9.7,21.4,15.7,43.8,19.6,66.8c6,36.1,10.3,72.4,13.4,108.9
		c8.2,97.7,8.7,195.5,6.1,293.3c-1.7,61.9-4.9,123.7-11.5,185.3c-2.3,21.8-6.4,43.4-9.4,65.1c-1.9,13.7-7.2,25.4-18.5,33.9
		c-3.3,0.4-6.8,0.2-9.8,1.5c-12.5,5.2-25.5,5.9-38.9,7.1c-16.5,1.4-32.6,3.4-49-0.3c-3.8-0.9-8-0.2-12-0.2c-10,0-20-0.2-29.9-0.1
		c-10.9,0.1-21-2.3-30.2-8.2c-2.7-1.7-6-2.5-9-3.7c-5.9-17.2-6.3-35.3-7.8-53.1c-6.2-70.3-15.5-140.3-25.9-210
		c-12.4-82.9-27-165.5-42.8-247.9c-1.3-6.7-3.6-12.7-6.6-18.7c-1.2-19.2-5.4-37.9-8.8-56.9c-8.7-48.2-19.9-95.9-30.2-143.8
		c-9.3-43.4-20.3-86.4-30.4-129.6c-10.5-45.1-20.4-90.4-31.4-135.4c-12.4-50.9-25.6-101.6-38.5-152.3c-7-27.6-14-55.2-21.2-82.8
		c-10.6-40.4-21.6-80.6-29.3-121.7c-2.8-14.8-4.6-30.1-13.5-43.3c-16.1-23.6-32.6-46.8-53.7-66.5c-14.1-13.2-31.2-19.9-49-25.5
		c-3-0.9-6.7-0.8-9.9-0.2c-18.4,3.8-33.5,12.5-42.6,29.8c-6.5,12.4-13,24.8-15,38.8c-0.4,2.8-1.5,5-3.6,6.8
		c-1.2-15.8-2.6-31.7-3.6-47.5c-1.6-28.6,1.1-57,2.7-85.5c2.9-53.6,5-107.3,7.1-161c0.9-23.2,0.8-46.4,1.1-69.6
		c0.2-20,0.4-39.9,0.7-59.9c0.1-6-0.4-12.2,1.2-17.8c2.4-8.6,2.2-17.1,2.2-25.7c0.2-71.2,0.3-142.4,0.4-213.6c0-6.6-0.6-13.3-1-19.9
		c0.5-14,1.2-27.9,1.3-41.9c0.2-30.6,0.2-61.2,0.2-91.8c0-6.6,0.1-13.2,1.9-19.8c2.7-10.3,9.2-15.8,19.1-18c2.6-0.6,5.3-0.3,7.9-0.8
		c7.2-1.3,9.4-3,9.7-10.3c0.6-14,3.5-27.7,6.7-41.2c12.7-52.8,35-101.7,61.5-148.8c7.1-12.7,16.7-24,21.4-38.1
		c14-7.1,29.7-8.3,44.5-12.6c3.7-1.1,7.6-1.7,11.3-2.6c0.2,6.3-2.9,11.5-6,16.6c-31.9,52.1-53.7,108.3-68.6,167.3
		c-4.2,16.7-7.4,33.7-9.7,50.8c-2.4,18-1,19,17.6,19.1c72.6,0.1,145.1,0,217.7,0c1.3,0,2.7,0,4,0c13.6-0.4,14.4-1.4,16.4-14.3
		c1.7-11.1,3.4-22.4,6.4-33.2c10.2-37.4,26.2-72.5,45.6-106c20.1-34.6,42.8-67.3,67.9-98.4c13.1,0,25.5,3.4,37.8,7.6
		c-1.8,3.5-3.3,7.3-5.5,10.5c-13.1,19.2-25.6,38.8-36.3,59.4c-25.2,48.6-42.7,100-54.2,153.5c-1.1,5.1-1.2,10.5-1.6,15.8
		c-0.2,2.9,1.3,5.2,3.7,6.6c2.3,1.4,4.8,2.2,7.2,3.3c25.3,12.1,38.5,32.1,37.6,60.2c-1.1,34.6,2.7,69,3.9,103.4
		c-2.3,9.6,4,18.1,3.4,27.3c-1,16.1,2.8,31.7,5.3,47.2c4.8,30.7,12.6,60.9,23.8,89.9c6.2,16.1,13.6,31.9,24.4,45.4
		c11.5,14.3,22.7,29.7,41.9,35.1c0.6,8.6,1.2,17.1,1.6,25.7c0.4,9.9,0.6,19.8,0.9,29.7c-0.3,2-1,3.9-0.9,5.9
		c0.2,41.2-0.5,82.4,1.8,123.7c2.6,46.5,2.1,93.1,5.1,139.6c2.5,37.2,3.5,74.4,5.2,111.6c0.2,3.3,0.3,6.7,1.1,9.9
		c4.2,14.9-0.9,26.9-9.8,38.8c-13.9,18.7-26.2,38.5-36.7,59.3c-2.7,5.3-5.4,10.8-7.2,16.4c-2.9,8.9-1.5,16.9,5.7,23.7
		c6.3,6,12.8,11.5,20.1,16.3C6687.5,3838.9,6702.8,3845.4,6717.7,3852.8z"/>
	<path class="st3" d="M6587.8,2984.1c-1.1-34.5-5-68.8-3.9-103.4c0.9-28.1-12.3-48.1-37.6-60.2c-2.4-1.1-4.9-2-7.2-3.3
		c-2.4-1.4-3.9-3.8-3.7-6.6c0.4-5.3,0.5-10.6,1.6-15.8c11.5-53.5,29-104.8,54.2-153.5c10.7-20.7,23.2-40.2,36.3-59.4
		c2.2-3.2,3.7-7,5.5-10.5c36.9,6.7,72.2,18.2,105.7,34.8c14.1,7,23.9,17.7,30.4,32.7c17.3,39.9,28.1,81.7,37.5,123.8
		c9.3,41.5,14.8,83.7,19.9,125.9c1.6,13.2,1.6,26.6,4.9,39.5c-0.3,15.9-0.4,31.8,2.4,47.5c1,5.8,1,11.9,1,17.8
		c0.3,46.4,0.6,92.8,0.7,139.2c0.1,39.8,0.1,79.6,0.1,119.3c0,7.3-0.3,14.6-0.5,21.8c-15.7-1.6-31.3-4.2-47.1-4.6
		c-33.8-0.9-66.6,5.8-99,15.1c-0.3-9.9-0.5-19.8-0.9-29.7c-0.4-8.6-1.1-17.1-1.6-25.7c2-9.5-1.6-18.3-2.7-27.5
		c-3.9-31.6-11.5-62.5-18.9-93.4c-13.4-56.1-28-111.8-42.4-167.7c-1.2-4.6-2.1-9.8-5.6-13.3c-4.8,2-4.9,5.6-6.1,8.6
		c-5.2,14.3-10.6,28.6-15.8,43C6593.9,2982.6,6591.3,2983.9,6587.8,2984.1z"/>
	<path class="st4" d="M6744.6,5179.8c7.3-0.3,14.6-0.7,21.9-0.7c181,0,362.1,0,543.1-0.1c7.3,0,14.6-0.5,21.9-0.8
		c8,0.3,16,0.8,23.9,0.8c183.3,0,366.6,0,549.9,0.1c6.7,0,13.3,0,20,0.5c5.3,0.4,8.4,4.4,7.6,9.6c-0.6,4.4-3,7.3-7.8,7.4
		c-6,0.1-12,0.2-18,0.2c-88.7,0-177.3,0-266,0c-2083.7,0-4167.4,0-6251.1,0c-8,0-16,0-24-0.4c-4.6-0.2-6.9-3.4-7.1-8
		c-0.2-4.5,2.2-8,6.6-8.5c5.9-0.6,12-0.7,17.9-0.7c63.3,0,126.6,0,190-0.1c7.3,0,14.6-0.5,21.9-0.8c7.3,0.3,14.6,0.8,21.9,0.8
		c194.2,0,388.5,0,582.7,0.1c7.3,0,14.6,0.4,21.9,0.6c93.6,0,187.1,0.1,280.7,0.1c0.7,0,1.3-0.1,2-0.2c12-0.2,23.9-0.6,35.9-0.6
		c93.7,0,187.4,0.2,281.1,0.3c8.6,0.3,17.2,0.9,25.9,0.9c67.1,0.1,134.2,0.1,201.4,0c18.6,0,37.2-0.3,55.8-0.5
		c26.5-0.2,53.1-0.4,79.6-0.8c7.9-0.1,15.9-0.5,23.8-0.8c5.3,0.4,10.5,1.2,15.8,1.2c70.5,0.1,141,0.1,211.5,0c4,0,7.9-0.7,11.9-1
		c5.3,0.3,10.6,0.8,15.9,0.8c108.6,0,217.3,0.1,325.9,0c5.9,0,11.9-0.9,17.8-1.3c5.8,2.1,11.8,1.6,17.7,1.6c56.3,0,112.6,0,168.8,0
		c4.6,0,9.2-0.6,13.8-1c6,0.3,11.9,0.8,17.9,0.8c177.4,0,354.8,0,532.2,0c5.9,0,11.9-0.8,17.8-1.2c7.9,0.4,15.9,1,23.8,1
		c88.8,0.2,177.6,0.2,266.5,0.3c50.9,1.6,101.9,1.1,152.8,0.3c6-0.2,12-0.5,17.9-0.5c118.5,0,237.1,0,355.6-0.1
		c7.2,0,14.7,1.9,21.5-2c20.4,5.4,41.1,3.3,61.7,2.4c1.6-0.1,3.1-2.1,4.6-3.3c7.8,1.3,15.5,3.6,23.3,3.8c21.8,0.4,43.6-0.2,65.4-0.4
		c6.7-0.1,13.3-0.4,20-0.4c80.6,0,161.2,0,241.8-0.1c7.3,0,14.6-0.8,21.8-1.2c1.9,0.4,3.9,1,5.8,1c56.1,0.1,112.3,0.1,168.4,0.2
		c4.8,0,9.1-0.9,13.3-3c5.8,6.6,13.6,4,20.6,4c101.6,0.2,203.2,0.1,304.8,0.1c6.6,0,13.3-0.4,19.9-0.6c3.2,0,6.4,0,9.5,0
		c8,0.2,15.9,0.6,23.9,0.6c101.5,0,203.1,0,304.6,0C6730,5180.3,6737.3,5180,6744.6,5179.8z"/>
	<path class="st3" d="M6595.3,2563.7c-25,31.1-47.8,63.9-67.9,98.4c-19.5,33.5-35.4,68.6-45.6,106c-3,10.8-4.7,22.1-6.4,33.2
		c-2,12.9-2.8,13.9-16.4,14.3c-1.3,0-2.7,0-4,0c-72.6,0-145.1,0-217.7,0c-18.6,0-20-1-17.6-19.1c2.3-17.1,5.5-34.1,9.7-50.8
		c14.9-59,36.7-115.2,68.6-167.3c3.1-5.1,6.2-10.3,6-16.6c10.2-2,20.3-4,30.5-6c2.9,42.7,28.1,63,63.9,70
		c15.8,3.1,31.7,2.7,47.6,2.3c17.4-0.5,34.1-4.9,50-12c26.2-11.6,43.3-30.1,45.2-60.1C6559.5,2557.3,6577.6,2559.1,6595.3,2563.7z"
		/>
	<path class="st0" d="M5851.5,3249.4c0-85.7,0-171.4,0-257.1c6.7,0.3,10.5-5.2,15.7-7.8c37.4-18.5,74.5-37.5,113.2-53.5
		c23.9-9.9,48.1-18.7,71.8-28.9c2.4-1,5.1-1.1,7.7-1.7c-0.4,7.3-0.2,14.6-1.2,21.8c-3.2,22.9-7.5,45.7-10.3,68.6
		c-4.4,36.1-10.4,72-17,107.8c-3.6,19.5-7.9,38.9-14.9,57.6c-3,8-7.4,13.7-15.7,16.5c-6.9,2.3-13.6,5.2-19.1,10.3
		c-4.3,1.6-8.8,2.9-12.9,5c-30.9,16.3-61.7,32.8-92.6,49.2C5868.2,3241.6,5860.5,3246.9,5851.5,3249.4z"/>
	<path class="st3" d="M5981.7,3183c5.5-5.1,12.3-8,19.1-10.3c8.3-2.8,12.7-8.5,15.7-16.5c6.9-18.7,11.3-38,14.9-57.6
		c6.6-35.8,12.5-71.6,17-107.8c2.8-23,7.1-45.7,10.3-68.6c1-7.2,0.9-14.5,1.2-21.8c1-2.4,2.5-4.8,2.8-7.3
		c4.5-38.2,9.6-76.3,16-114.2c4.5-26.8,8.2-53.7,13.2-80.4c3.3-17.6,7.9-34.9,12.4-52.2c3.8-14.9,12.1-25.9,26.9-32.3
		c15.8-6.9,31.6-13.8,48.1-18.9c19.6-6.1,39.4-11.8,59.2-17.4c3.1-0.9,6.5-0.5,9.8-0.7c-4.7,14.1-14.3,25.4-21.4,38.1
		c-26.5,47.2-48.8,96-61.5,148.8c-3.3,13.5-6.1,27.2-6.7,41.2c-0.3,7.3-2.5,9.1-9.7,10.3c-2.6,0.5-5.4,0.2-7.9,0.8
		c-9.9,2.2-16.4,7.8-19.1,18c-1.7,6.6-1.8,13.1-1.9,19.8c-0.1,30.6,0,61.2-0.2,91.8c-0.1,14-0.8,27.9-1.3,41.9
		c-4.4,1-6.3,3.9-7.5,8.1c-3.6,12.7-7.5,25.3-11.5,37.9c-12.1,38.4-25.8,76.3-41.8,113.2c-4.2,9.6-10.1,18.5-15.6,27.5
		c-4.5,7.4-11.3,10.4-20.1,10.1c-11.9-0.5-23.8,0-35.7,0C5984.7,3184.1,5983.2,3183.5,5981.7,3183z"/>
	<path class="st5" d="M6330.9,2047.1c41.9-40.1,91.3-51.9,146.8-37.2c23.2,6.1,44.5,17,62.2,33.8c-8.6,13.4-18.8,25.8-24,41.1
		c-12.5,36.6-19.5,74.1-20.4,112.8c-0.1,4,0.1,8-0.2,12c-0.5,8.4-2.3,10.4-11,10.6c-16,0.3-31.9,0-47.9,0.2
		c-12.6,0.2-25.1-0.9-37.6,2.9c-9.5,2.8-14.8-2.2-15.2-12.8c-0.9-28.8-9.2-56.1-17.3-83.3C6358,2099.1,6344.2,2073.2,6330.9,2047.1z
		"/>
	<path class="st6" d="M6541.4,2556.1c-1.9,29.9-19,48.5-45.2,60.1c-15.9,7-32.6,11.5-50,12c-15.9,0.5-31.7,0.9-47.6-2.3
		c-35.8-7-61.1-27.4-63.9-70c0.2-21,0.3-42,0.5-62.9c0.2-16.4,0.5-32.8,0.7-49.2c9.8,6.9,20.3,12.2,31.4,16.7
		c14.1,5.6,28,11.7,41.9,18c6.6,3,13.7,5.9,18.1,11.9c5.7,7.7,11.4,6.3,18.9,3c31.3-14.1,62.4-28.7,92.6-45.2
		c1.1,25.6,2,51.1,3.4,76.7C6542.8,2535.3,6538.5,2545.6,6541.4,2556.1z"/>
	<path class="st5" d="M6548.9,2051.2c19.8,13.7,33.3,32.2,42,54.4c13.1,33.2,18.1,68,18.9,103.4c0.2,11.1-0.1,11.1-13.7,14.8
		c-4.3-4.2-9.8-3.4-15-3.4c-17.2,0-34.4,0.1-51.6-0.1c-12.5-0.1-16.9-3.9-17.6-16.1c-0.6-10.5-1.3-21.4,0.8-31.6
		c1.9-9.2,2.6-18.2,2.8-27.4c0.7-26,7-50.9,17.5-74.4C6536.3,2063.2,6540.3,2055,6548.9,2051.2z"/>
	<path class="st7" d="M6538.8,2448.1c-30.2,16.4-61.3,31-92.6,45.2c-7.4,3.3-13.2,4.7-18.9-3c-4.4-5.9-11.5-8.9-18.1-11.9
		c-13.9-6.2-27.8-12.3-41.9-18c-11.1-4.4-21.6-9.8-31.4-16.7c-13.8-20.4-17.8-43.5-18.8-67.4c1.6-0.1,3.2-0.2,4.7-0.2
		c3.3,9.4,6.4,18.9,10.1,28.2c4.6,11.9,13.1,19.8,25.7,23c9.7,2.5,19.3,5.2,29,7.4c20.2,4.5,21.5,3,15.4-17.4
		c-0.2-0.6-0.5-1.2-0.7-1.9c-2.1-8-0.2-12.7,7.8-15.9c11.2-4.6,23.2-6.2,35.2-5c7.8,0.7,16,1,23.3,5c8.6,4.8,11.1,10.5,8.1,19.7
		c-1,3.2-2.7,6.1-3.7,9.2c-1.9,5.6,1.1,9.3,7,8.2c20.6-3.9,39.3-12.3,55.9-25.1c5.4-4.2,9.3-9.7,11.5-16c2.4-6.9,4.2-14,6.2-21
		c0.9,0.5,1.8,0.7,2.8,0.6c-0.1,9.2,0,18.4-0.2,27.6C6554.6,2419.6,6550.7,2435.3,6538.8,2448.1z"/>
	<path class="st5" d="M6279.4,2226.9c-6.2-0.6-12-1.5-11.9-9.8c0.4-52.8,11.9-102.4,42-146.7c3.7-5.4,7.5-10.9,13.2-14.7
		c1.4,1.4,3.3,2.6,4,4.3c19.3,45.4,28.5,93.4,36.6,141.6c0.9,5.1,0.2,10.6-0.2,15.9c-0.3,3.6-2.8,6-6.5,6.3
		c-4.6,0.4-9.3,0.4-13.9,0.5c-16.6,0.1-33.2,0-49.8,0.1C6288.1,2224.3,6283.4,2223.7,6279.4,2226.9z"/>
	<path class="st8" d="M6279.4,2226.9c4-3.2,8.7-2.6,13.3-2.6c16.6,0,33.2,0,49.8-0.1c4.6,0,9.3-0.1,13.9-0.5
		c3.7-0.3,6.2-2.7,6.5-6.3c0.4-5.3,1.1-10.7,0.2-15.9c-8.1-48.2-17.3-96.2-36.6-141.6c-0.7-1.7-2.6-2.9-4-4.3c1.5-4,4.3-6.8,8.2-8.5
		c13.3,26,27.1,51.9,35.5,80c8.1,27.2,16.4,54.5,17.3,83.3c0.3,10.7,5.7,15.7,15.2,12.8c12.5-3.7,25-2.7,37.6-2.9
		c16-0.2,31.9,0.1,47.9-0.2c8.7-0.2,10.5-2.1,11-10.6c0.2-4,0.1-8,0.2-12c0.9-38.7,8-76.2,20.4-112.8c5.2-15.3,15.4-27.8,24-41.1
		c4.1,1.1,6.9,3.9,9.1,7.4c-8.6,3.8-12.6,12.1-16,19.6c-10.6,23.6-16.8,48.4-17.5,74.4c-0.2,9.2-1,18.2-2.8,27.4
		c-2.1,10.2-1.4,21.1-0.8,31.6c0.7,12.2,5.1,15.9,17.6,16.1c17.2,0.2,34.4,0,51.6,0.1c5.2,0,10.7-0.8,15,3.4c0,1-0.4,1.5-1.4,1.4
		c-14.3,2.5-28.7,5-43,7.4c-28,4.9-55.8,10.6-84.3,11.8c-3.3,0.1-6.7,0.4-9.8,1.2c-19.7,5.1-39.7,1.8-59.5,2.3
		c-16.4-6.5-34.6-0.8-50.9-7.5c-9.5,1.4-18-4.7-27.4-4c-11.3-2.9-22.5-6-34.2-6.9C6283.4,2228.7,6281.4,2227.8,6279.4,2226.9z"/>
	<path class="st7" d="M6551.6,2232.7c14.3-2.5,28.7-5,43-7.4c-0.4,38.9-13,74.2-32.2,107.5c-1.3-0.1-2.5,0.1-3.7,0.6
		c0.3-12.6,0.3-25.3,0.9-37.9C6560.8,2274,6558.3,2253.1,6551.6,2232.7z"/>
	<path class="st7" d="M6285.4,2229.6c11.7,0.9,22.9,4,34.2,6.9c-3.5,26.6-4.7,53.4-4.2,80.3c0.1,5.2,1,10.5-1.9,15.3l-0.6,0.2
		c-14.4-23-21.7-48.4-25.4-74.9C6286.2,2248.2,6286.1,2238.9,6285.4,2229.6z"/>
	<path class="st9" d="M6558.8,2333.3c1.2-0.5,2.4-0.8,3.7-0.6c-2.8,6.1-3.2,12.6-3.7,19.2c-0.6,7.8-0.1,15.8-3.4,23.2
		c-1,0.1-1.9-0.1-2.8-0.6C6552,2360.4,6554.3,2346.7,6558.8,2333.3z"/>
	<path class="st10" d="M6312.9,2332.3c0,0,0.6-0.2,0.6-0.2c1.2,2.3,3.1,4.5,3.5,6.9c1.9,12.3,3.3,24.7,4.9,37.1
		c-1.6,0.1-3.2,0.2-4.7,0.2c-2.5-7.6-1.4-15.4-1.5-23.1C6315.6,2346.1,6315.6,2339.1,6312.9,2332.3z"/>
	<path class="st2" d="M2264.8,5036.3c-5-28.2-10.2-56.3-14.9-84.5c-7.3-44-12.1-88.4-14.8-132.9c-2.9-46.6-2.9-93.2,0.4-139.7
		c6.5-91.7,25-180.6,64.1-264.3c7-15.1,14.9-29.8,23.1-44.3c4.1-7.3,5.9-14.6,4.9-22.9c-1.9-16.5-3.2-33.1-5.2-49.7
		c-5.8-48.3-8.7-96.8-10.9-145.4c-4-87.8-7.8-175.6-11.4-263.5c-2.2-54.6-3.5-109.2-5.7-163.7c-1.6-39.9-3.9-79.8-5.9-119.7
		c-3-59.6,1-118.5,19-175.8c7.2-22.9,16.1-45.1,28.3-65.9c5.5,0.5,9.8,3.9,14.6,6.2c9.6,4.6,19,9.8,28.9,13.5
		c37.4,13.8,75.7,24.6,114.8,32.7c40.3,8.3,80.7,15.8,121.4,21.3c37.5,5,74.9,10.4,112.8,11.2c6.5,0.1,13.4-1.6,19.2,3.1
		c-0.1,5.3-0.3,10.5-1.7,15.8c-9,35.9-17.3,72-26.4,107.9c-10.1,39.8-18.6,79.9-30.7,119.1c-3.7,12-7.3,24.3-8.7,36.7
		c-2.2,18.4-5,36.6-7.8,54.9c-1.4,9.2-3.3,18.2-4.6,27.3c-3.1,21.6-6,43.2-9.5,64.7c-3.2,19.5-7,39-10.5,58.4
		c-3.6,20.1-6.8,40.3-10.6,60.5c-4.3,22.7-8.8,45.4-13.6,68c-7.2,34.3-14.5,68.5-21.9,102.7c-3.8,17.4-9.3,34.5-10.2,52.5
		c-5.6,5.5-5.4,13.3-7.5,20.1c-8.4,28-15.8,56.3-24.6,84.2c-12.8,40.6-26.9,80.9-48.3,117.9c-13.8,23.7-24.3,48.7-33.1,74.6
		c-20.2,59.9-35.7,121.1-50.5,182.5c-23.3,96.3-43.3,193.2-62.9,290.3c-5,24.7-9.2,49.7-13.7,74.5c-2,0-4-0.1-5.9,0
		c-23.9,1.2-45.4-5.3-64.8-19.5C2275.4,5041.5,2271.3,5036.5,2264.8,5036.3z"/>
	<path class="st2" d="M2867,3788.2c1.1,8.6,3,17.1,3.3,25.7c2.2,63.2,6,126.4,2.6,189.8c-1.9,35.9-2.7,71.9-5.7,107.8
		c-3.5,43.2-7.7,86.2-14.3,129c-6.3,40.8-13.6,81.4-19.6,122.3c-3.8,25.7-5.2,51.8-4.2,77.7c1.3,35.9,2.2,71.9,6.4,107.7
		c4.4,37.7,8.1,75.5,13.4,113.1c8.6,61.3,18.9,122.4,30.2,183.3c12.4,66.8,25.8,133.3,40.5,199.6c-6.8,0.6-12.2,4.7-18.3,7.2
		c-4.2,1.8-8.6,4.4-13,4.4c-13.8,0.2-27.8,2.5-41.3-1.9c-4.5-1.5-9.1-1.6-13.7-1.3c-0.8-1-1.8-2-2.5-3.1
		c-53.3-84.7-101.3-172.1-141.1-264c-40.1-92.6-72.3-187.6-84-288.4c-5-42.5-6.2-85.1,1-127.4c3.6-21.2,6.5-42,0.6-63.1
		c-0.9-3.1-0.6-6.6-0.8-9.9c6.9-4.1,8.6-11.6,11.8-18c34-67.8,67.9-135.6,101.8-203.4c44.9-89.8,89.9-179.6,134.9-269.4
		C2858,3799.5,2859.8,3792,2867,3788.2z"/>
	<path class="st11" d="M3144.4,3421.4c-22.2-8.7-44.9-15.6-68-21c-41.1-9.6-82.4-18.5-123.6-27.9c-18-4.1-36.1-8.3-53.9-13.2
		c-7.7-2.1-15.5-3.3-23.4-4.1c-5.3-4.4-12-5.3-18.3-7.1c-50.5-14.1-99.7-31.2-146.1-56.1c-12.8-12.4-26.6-23.8-37.9-37.9
		c-20-25-37.5-51.7-52.7-79.8c-54.4-100.3-96.2-205.6-125.2-316.1c-1.8-7-4.5-13.8-6.8-20.7c-1.7-10.5-3.4-20.9-5-31.4
		c-2.5-17-5.3-34-7.1-51.1c-0.9-8.5-0.2-17.2-0.2-25.9c6.2-1.3,10.1-6.1,14.9-9.7c34.6-25.9,73.2-36.8,116.3-31.5
		c8.9,1.1,14.7,4.4,17.9,13c5.6,14.9,12,29.5,17.8,44.4c26.3,67.5,49,136.3,72.3,204.9c18.2,53.5,36.2,107,57.9,159.2
		c10.3,24.9,25.9,44.7,47.1,60.5c18.7,13.8,37.7,27.4,57,40.3c8.2,5.5,16,12,25.9,14.7c12.8,13,29.5,20.2,44.9,29.3
		c32.1,18.9,65.3,35.9,97,55.5c15.8,9.8,32.3,15,50,18.2c2.6,0.5,5.5,0.1,7.9,1c15,5.8,28.4,2.5,41.8-5.4
		c14.6-8.7,30.4-12.5,47.7-11.9c13.2,0.5,26.6,1.4,39.8-1.5c5.3,0.4,10.7,0.6,15.9,1.3c2.6,0.4,5.1,1.7,5.9,4.6
		c1,3.7-0.6,6.6-3.5,8.5c-2.8,1.8-5.8,3.1-8.9,4.5c-6.9,3-14.2,3.2-21.5,4c-2.2,0.3-6.1-0.3-5.2,3.9c0.3,1.2,2.9,2.3,4.6,2.6
		c21.8,3.3,43.7,5,65.7,4.8c5.9-0.1,12.1,0.3,17.8,1.8c9.2,2.3,12.8,8.9,10.7,18.3c-2.9,12.6-9.3,23.5-17.7,33.1
		c-31.8,36.2-77.7,48.6-123.4,33.4C3163.2,3427.8,3153.8,3424.6,3144.4,3421.4z"/>
	<path class="st5" d="M4007.2,5178.5c-4.6,0.3-9.2,1-13.8,1c-56.3,0.1-112.6,0.1-168.8,0c-5.9,0-11.9,0.6-17.7-1.6
		c0.1-89.8,0.1-179.6,0.2-269.3c0.1-39.2,0.2-78.4,0.3-117.6c0-2-0.1-4-0.1-6c0-5.4-3.3-8.3-7.8-10.4c-6.3-2.9-13-2-19.6-2.1
		c-44.5-0.2-89.1-0.3-133.6-0.5c0.2-68.5,0.4-137,0.5-205.5c0.1-22.7-1.7-21.8,21.3-21.7c69.8,0.4,139.7,0.4,209.5,0.4
		c4.6,0,9.3-0.5,13.9-0.8c13.3,1.2,26.6,1.2,40,0c7.2,0.3,14.3,0.8,21.5,0.8c17,0.1,33.9-0.3,50.8,2.4c-0.1,5.3-0.2,10.7-0.2,16
		c0,197.3-0.1,394.6-0.1,591.8c0,4.7,0.1,9.3,0.2,14c0.1,2.8,1.6,5,3.8,6.7C4007.5,5176.9,4007.5,5177.7,4007.2,5178.5z"/>
	<path class="st3" d="M2903.3,3225c-9.8-2.7-17.7-9.2-25.9-14.7c-19.3-12.9-38.3-26.4-57-40.3c-21.2-15.7-36.8-35.6-47.1-60.5
		c-21.7-52.2-39.7-105.8-57.9-159.2c-23.4-68.6-46.1-137.4-72.3-204.9c-5.8-14.9-12.2-29.5-17.8-44.4c-3.2-8.6-9-11.9-17.9-13
		c-43.1-5.3-81.7,5.6-116.3,31.5c-4.7,3.5-8.7,8.4-14.9,9.7c0.4-23.3,3.4-46.3,9.7-68.8c2.5-8.9,6.4-17.5,10.4-25.9
		c12.3-25.6,32-41.9,60.4-47.2c23.6-4.4,47.3-7,71.3-5.9c13.3,0.6,26.5,2.4,39.7,3.7c0.1,16-0.3,32,0.3,48
		c0.8,21.3,2.2,42.5,3.8,63.8c1.3,17.1,7.9,30.8,25.8,36.4c3.8,1.2,7.2,3.5,10.8,5.1c39,17.3,79.2,31.5,119.9,43.9
		c22.3,6.8,44.9,12.3,67.9,16.1c6,1,11.9,1.7,17.9,0.8c6.4-0.9,11.1-5.2,12-11.6c0.7-5.2,1.1-10.7,0.5-15.9
		c-1.4-13.2-2.8-26.5-5.4-39.5c-5.4-26.7-11.6-53.2-17.5-79.8c34.5,10.5,65.8,27.4,95.2,47.9c3.2,2.2,6.2,5.2,8.1,8.5
		c14.9,27.3,30.9,54,43.6,82.5c0.8,1.7,0.7,3.9,1,5.8c-6.6,1-13.2,1.6-19.7,3.2c-7.7,1.9-15.3,4.5-22.7,7.2
		c-7.7,2.8-11.2,8-10.6,16.8c1,15.9,1.3,31.9,1.3,47.9c0,21.6-4.7,42.3-13.6,61.9c-8.3,18.2-15.4,36.9-20.8,56.1
		c-5,17.9-12.7,35-14.4,53.8c-1,1.7-2.5,3.2-3,5c-8.3,31.9-16.6,63.7-24.7,95.6C2916.5,3171.3,2910,3198.2,2903.3,3225z"/>
	<path class="st12" d="M2867,3788.2c-7.2,3.8-8.9,11.3-12.2,17.7c-45,89.8-90,179.6-134.9,269.4c-33.9,67.8-67.8,135.7-101.8,203.4
		c-3.2,6.4-4.9,14-11.8,18c-0.9-3.1-2.1-6.1-2.7-9.2c-4.1-22.4-8.2-44.8-12.2-67.2c0.9-18,6.4-35,10.2-52.4
		c7.4-34.2,14.8-68.5,21.9-102.7c4.7-22.6,9.3-45.3,13.6-68c3.8-20.1,7-40.3,10.6-60.5c3.5-19.5,7.3-38.9,10.5-58.4
		c3.5-21.5,6.3-43.1,9.5-64.7c1.3-9.1,3.2-18.2,4.6-27.3c2.7-18.3,5.6-36.5,7.8-54.9c1.5-12.4,5-24.7,8.7-36.7
		c12.2-39.2,20.7-79.4,30.7-119.1c9.1-35.9,17.4-72,26.4-107.9c1.3-5.3,1.5-10.5,1.7-15.8c13.1-0.5,26.2-0.9,39.3-1.5
		c13.1-0.6,26.2-1.3,39.3-2c7.3,41.9,14.3,83.8,19.2,126c3.2,27.7,6.5,55.4,9.7,83.1c3.6,32.3,7.1,64.7,10.7,97
		C2866.7,3765.7,2868.2,3776.9,2867,3788.2z"/>
	<path class="st13" d="M3646.2,4772c44.5,0.1,89.1,0.2,133.6,0.5c6.6,0,13.3-0.9,19.6,2.1c4.5,2.1,7.8,5,7.8,10.4c0,2,0.1,4,0.1,6
		c-0.1,39.2-0.2,78.4-0.3,117.6c-3.4,0-6.3,1.3-9.1,3.4c-39.9,29.7-79.8,59.3-119.6,89c-34,25.4-67.9,50.9-101.8,76.4
		c-35.5,26.6-71.3,53-106.5,80.1c-7.8,6-17.3,10-22.8,18.9c-5.8-0.5-7.9-4-7.9-9.4c0.1-13.3,0-26.6,0-39.9
		c-0.1-117.8-0.1-235.6-0.2-353.4c19.9-0.3,39.8-0.8,59.7-0.8c45.1-0.1,90.3,0.1,135.4,0.1C3638.3,4772.7,3642.3,4772.3,3646.2,4772
		z"/>
	<path class="st3" d="M2826,3448.4c-13.1,0.7-26.2,1.4-39.3,2c-13.1,0.6-26.2,1-39.3,1.5c-5.8-4.6-12.8-2.9-19.2-3.1
		c-37.9-0.8-75.3-6.2-112.8-11.2c-40.8-5.5-81.2-12.9-121.4-21.3c-39.1-8.1-77.4-19-114.8-32.7c-9.9-3.7-19.3-8.9-28.9-13.5
		c-4.8-2.3-9-5.7-14.6-6.2c-14.3-17.6-14.4-38-10.6-58.6c5.6-30.4,19.1-57.8,35.1-84c23.8-39.3,52.5-74.9,82.4-109.6
		c5.6-6.5,11.2-13,16.8-19.5c13.4,18.8,26.5,37.9,40.3,56.5c15.4,20.7,31.8,40.7,49.5,59.4c11.5,12.1,24.6,22.2,37.4,32.7
		c16.9,13.9,35.1,26.1,55.4,34.8c22.1,9.4,44.7,16.2,69,16.5c46.3,24.9,95.6,42,146.1,56.1c6.3,1.8,13,2.7,18.3,7.1
		c-4,16.7-7.9,33.4-11.9,50.2c-1.1,4.5-2.8,9-2.9,13.6c-0.1,14.7-9.2,21.1-21.6,24.9C2834.7,3445.2,2830.4,3446.9,2826,3448.4z"/>
	<path class="st5" d="M3439.2,4773.5c0.1,117.8,0.1,235.6,0.2,353.4c0,13.3,0.1,26.6,0,39.9c0,5.4,2.1,8.9,7.9,9.4
		c0.2,0.7,0.2,1.5-0.1,2.2c-4,0.4-7.9,1-11.9,1c-70.5,0.1-141,0.1-211.5,0c-5.3,0-10.5-0.8-15.8-1.2c0.3-14.6,0.8-29.3,0.9-43.9
		c0.1-32-0.7-64,0.2-95.9c2.4-83.2,0.6-166.4,1.7-249.7c0-3.3,0.1-6.7,0.3-10c0.3-3.8,2.6-5.9,6.4-6.2c3.3-0.2,6.6-0.3,10-0.3
		c67.3,0.1,134.5,0.2,201.8,0.3C3432.6,4772.6,3435.9,4773.2,3439.2,4773.5z"/>
	<path class="st11" d="M2903.8,2652.4c5.9,26.6,12.1,53.1,17.5,79.8c2.6,13,4,26.3,5.4,39.5c0.6,5.2,0.2,10.7-0.5,15.9
		c-0.9,6.4-5.6,10.7-12,11.6c-6,0.9-11.9,0.2-17.9-0.8c-23-3.9-45.6-9.3-67.9-16.1c-40.8-12.4-80.9-26.6-119.9-43.9
		c-3.6-1.6-7-4-10.8-5.1c-17.9-5.6-24.5-19.3-25.8-36.4c-1.6-21.2-3-42.5-3.8-63.8c-0.6-16-0.2-32-0.3-48c6.7-1.2,13.1,0.7,19.6,2.1
		c11,2.5,20.2,0,28.7-8.7c14-14.5,24.9-31,34.2-48.5c9.7-18.1,16.7-37.4,23.2-56.9c2.4-7.1,2.2-14.4,3.7-21.5
		c8.3-5.3,7.8-14.1,6.7-21.5c-3.5-23.2,2.6-45,7.7-67c1.9-8.2,3.5-9.1,12.7-8.3c26.6,2.2,53.2,4.4,78.8-6.3c1.8-0.8,4.3-0.4,4.6,1.6
		c0.2,1.6-1,4-2.3,5.1c-14.3,12-29.5,22.7-45.3,32.8c-2.9,1.9-7.2,2.5-8.1,8.1c17.1-3.2,31.9-10.4,46.2-18.9
		c30.2-17.8,55-41.8,77.1-68.8c21,6.8,42,13.7,62.9,20.5c-0.6,17-1.5,33.9-1.9,50.9c-0.2,9.2,1.2,18.3,8.1,25.5
		c0.4,8.2-2.6,15.8-5.8,22.9c-13.7,30.1-27.1,60.4-46.7,87.4c-4,5.4-8,10.7-13.4,14.5c-9.9,6.9-20.2,12.6-33.1,6.6
		c-5.3-2.4-11.5-2.9-17.2-4.3c-18.1-8.3-36.3-16.4-54.3-25.1c-12.6-6.1-24.1-14.1-33.8-24.4c-4.1-4.4-8.4-8.5-12.7-12.7
		c-1.8-1.7-3.8-4.5-6.4-2.2c-2.2,2-0.7,4.9,0.3,7.4c2.5,6.2,4.8,12.4,7.4,18.5c17,39.8,43.4,69.7,86.4,82c1.1,8.7-2.8,16.7-4.8,24.8
		c-2.3,9.7-2.7,19.3-3.2,29c-0.5,9.4,1.5,16.8,12.1,19.1C2900.8,2649.3,2902.2,2651.2,2903.8,2652.4z"/>
	<path class="st10" d="M3144.4,3421.4c9.4,3.2,18.9,6.4,28.3,9.6c45.7,15.3,91.6,2.9,123.4-33.4c8.5-9.7,14.8-20.5,17.7-33.1
		c2.1-9.4-1.4-16-10.7-18.3c-5.7-1.5-11.8-1.8-17.8-1.8c-22,0.2-43.9-1.5-65.7-4.8c-1.7-0.3-4.3-1.4-4.6-2.6
		c-0.9-4.2,2.9-3.6,5.2-3.9c7.3-0.8,14.7-1,21.5-4c3-1.3,6.1-2.7,8.9-4.5c3-1.9,4.6-4.8,3.5-8.5c-0.8-2.9-3.4-4.3-5.9-4.6
		c-5.3-0.7-10.6-0.9-15.9-1.3c3.2-5.5,6.4-11,9.6-16.5c26.7-31.4,51.3-64.4,75.6-97.7c11.8-15,24.1-29.8,35.3-45.3
		c6.8-9.4,14.3-13.8,26.3-13.3c22.4,0.8,44.9-0.2,67.3-0.4c3.5,2.4,7.6,2.2,11.6,2.2c30.6,0,61.3,0.1,91.9-0.1
		c3.9,0,7.8-1.2,11.7-1.9c20.6,0.1,41.2,0.3,61.8,0.4c3.3,0,6.6,0,10,0c4.1,0,8.6,0.1,10.7,3.8c2.4,4.2-1.5,7.3-3.9,10.2
		c-26,31.9-52.2,63.7-78.1,95.7c-5.4,6.7-10.3,13.8-15.4,20.7c-22.1,23.7-41.9,49.3-61.9,74.8c-30.5,37-60.9,74-91.4,111
		c-9.7,11.8-19.6,23.6-29.1,35.6c-4.1,5.2-8.9,7.4-15.4,7.1c-8.6-0.4-17.3-0.1-26-0.1c-69.2,0-138.5,0-207.7,0
		c-5.3,0-10.7,0.1-16-0.2c-5.9-0.3-7.7-4.5-4.1-9.6c3.4-4.9,7.2-9.6,10.8-14.3C3118.8,3455.4,3131.6,3438.4,3144.4,3421.4z"/>
	<path class="st14" d="M3317.5,3196.1c-24.3,33.3-48.9,66.3-75.6,97.7c-16.9-3.5-33.9-6.4-50.6-10.5c-29.6-7.2-55.1-21.9-77.9-42.1
		c-20.4-18.1-39.5-37.2-57.6-57.5c-35-39.2-66-81.3-94.8-125.1c-3.3-4.9-5.1-10.9-10-14.7c1.7-18.8,9.3-35.9,14.4-53.8
		c5.4-19.2,12.5-37.9,20.8-56.1c8.9-19.6,13.6-40.3,13.6-61.9c0-16-0.2-32-1.3-47.9c-0.6-8.8,2.9-14,10.6-16.8
		c7.5-2.7,15-5.3,22.7-7.2c6.4-1.6,13.1-2.2,19.7-3.2c14.4,26.3,24.6,54.5,36,82.2c22,53.5,43.4,107.2,66,160.5
		c10.7,25.1,23.1,49.4,37.5,72.7c10.1,16.4,23.9,28.2,40,38c22.8,13.9,46.8,25.4,70.5,37.4
		C3306.9,3190.5,3312.2,3193.3,3317.5,3196.1z"/>
	<path class="st5" d="M2704.1,2258.7c-3.5-4.3-5.4-8.9-5.3-14.6c0.2-20.7,1.6-41.1,8.7-60.9c14.1-39.5,34.3-75,66-103.1
		c19.1-17,40.2-30.5,65.7-35.9c2.9,3.6,5.5,7.5,8.9,10.6c31.7,29.7,51.6,66.7,68.4,106.2c10.7,25.2,17.7,51.4,25.5,77.3
		c3.9,12.9,7.2,26.3,7.7,41.7c-12.4-3.5-23.1-6.3-33.8-9.5c-8.9-2.7-17.6-5.9-26.4-8.7c-3-0.9-4.9,1-6.3,3.5
		c-3.4-2.1-7.1-3.7-10-6.3c-5.3-4.8-10.6-4.5-16.5-1.5c-11.3,5.8-22.7,11.7-31.3,20.9c-8.1,8.7-17.6,11.2-28.8,9.9
		c-5.3-0.6-10.5-1.4-15.7-2.3C2753.7,2281.2,2728.6,2270.8,2704.1,2258.7z"/>
	<path class="st5" d="M2851.4,2040.7c19.4-6.6,39.4-5.4,59.2-4.3c32.8,1.8,64.3,9.9,93.5,25.2c49.2,25.9,77.1,67.6,87.1,121.7
		c5.5,30.2,6,60.7,1,91.1c-0.8,4.6-0.9,9.2-1.3,13.9c-14-0.2-27.3,4.6-41.5,4.4c-18.7-0.2-37-2.7-55.5-4.4
		c-10.5-1-11.8-1.9-14.5-12.7c-10.9-43.3-25.9-85.1-46.6-124.8c-18.5-35.7-41.3-68.1-69.6-96.7
		C2859,2049.9,2855.3,2045.2,2851.4,2040.7z"/>
	<path class="st9" d="M2711.1,3292.1c-24.2-0.3-46.9-7.1-69-16.5c-20.3-8.6-38.5-20.9-55.4-34.8c-12.8-10.5-25.9-20.5-37.4-32.7
		c-17.8-18.8-34.2-38.7-49.5-59.4c-13.8-18.6-26.9-37.6-40.3-56.5c17-31.7,23.1-65.7,25.4-101.4c2.5-40.5,3-80.9,3.3-121.4
		c0.1-10.6,0.3-21.3,0.5-31.9c2.3,6.9,4.9,13.7,6.8,20.7c29,110.4,70.8,215.8,125.2,316.1c15.2,28.1,32.7,54.7,52.7,79.8
		C2684.5,3268.2,2698.3,3279.6,2711.1,3292.1z"/>
	<path class="st7" d="M2704.1,2258.7c24.5,12.2,49.6,22.5,76.6,27.2c5.2,0.9,10.5,1.7,15.7,2.3c11.1,1.3,20.6-1.2,28.8-9.9
		c8.7-9.3,20.1-15.2,31.3-20.9c5.8-3,11.2-3.2,16.5,1.5c2.9,2.6,6.7,4.2,10,6.3c3.7,6.7,10.6,9.5,16.5,13.5
		c17.5,11.8,37.3,19.4,55.6,29.8c-22.1,27-46.8,51-77.1,68.8c-14.3,8.4-29.1,15.7-46.2,18.9c0.9-5.5,5.2-6.2,8.1-8.1
		c15.7-10.1,31-20.8,45.3-32.8c1.3-1.1,2.5-3.5,2.3-5.1c-0.3-2.1-2.8-2.4-4.6-1.6c-25.6,10.7-52.2,8.5-78.8,6.3
		c-9.3-0.8-10.8,0.1-12.7,8.3c-5.2,22-11.2,43.8-7.7,67c1.1,7.5,1.6,16.3-6.7,21.5c-1.9-5.6-3.3-11.6-5.9-16.9
		c-5.5-10.9-13.4-18.1-27-15.8c-14.6,2.4-24-5.9-31.4-16.9c-9.9-14.7-14.7-31.5-16.7-48.7
		C2692.5,2321.4,2693.8,2289.6,2704.1,2258.7z M2894.6,2346.3c-0.5-0.4-1.1-1.4-1.4-1.3c-2,0.7-2,1.7-0.1,2.4
		C2893.5,2347.6,2894.1,2346.7,2894.6,2346.3z"/>
	<path class="st12" d="M2833.2,5052.8c4.6-0.3,9.1-0.2,13.7,1.3c13.6,4.4,27.5,2.1,41.3,1.9c4.4-0.1,8.7-2.7,13-4.4
		c6.1-2.5,11.5-6.7,18.3-7.2c18.1,19.4,36.3,38.9,54.4,58.3c1.8,1.9,3.7,3.8,5.4,5.8c13,15.4,29.1,24.9,49.3,27.4
		c7.2,0.9,14.3,3,21.4,4.7c23.6,5.6,43.4,16.6,54.6,39.4c-18.6,0.2-37.2,0.4-55.8,0.5c-67.1,0.1-134.2,0.1-201.4,0
		c-8.6,0-17.2-0.6-25.9-0.9c0-5.2,0.2-10.5,0.1-15.7c-0.1-16.5,0.2-33.4,9.4-47.7C2844.7,5094.9,2844.6,5074.2,2833.2,5052.8z"/>
	<path class="st12" d="M2264.8,5036.3c6.5,0.2,10.7,5.2,15.3,8.6c19.4,14.2,40.9,20.7,64.8,19.5c2-0.1,4,0,5.9,0
		c1.6,2.1,3.2,4.2,4.8,6.4c10.1,14,20,28.2,30.3,42.1c8.2,11.1,19.1,17.9,33.1,20.4c13.7,2.5,27.2,6.4,40.6,10.1
		c20.2,5.5,36.1,16.7,45,36.4c-0.7,0.1-1.3,0.2-2,0.2c-93.6,0-187.1-0.1-280.7-0.1c2.4-5.7,1.7-11.7,1.6-17.6
		c-0.1-25.1,6.5-48.3,20.5-69.2c1.5-2.2,2.7-4.5,4.2-6.7C2258.8,5071.2,2265.1,5054.8,2264.8,5036.3z"/>
	<path class="st8" d="M2955.2,2308.5c-18.3-10.4-38-18-55.6-29.8c-5.9-4-12.8-6.8-16.5-13.5c1.4-2.5,3.3-4.4,6.3-3.5
		c8.8,2.8,17.6,6,26.4,8.7c10.7,3.2,21.4,6.1,33.8,9.5c-0.5-15.5-3.7-28.8-7.7-41.7c-7.9-26-14.9-52.2-25.5-77.3
		c-16.7-39.5-36.6-76.5-68.4-106.2c-3.3-3.1-5.9-7.1-8.9-10.6c3.3-3.9,7.7-4.1,12.3-3.4c3.9,4.5,7.6,9.2,11.8,13.5
		c28.3,28.6,51,61,69.6,96.7c20.7,39.7,35.7,81.5,46.6,124.8c2.7,10.8,4,11.7,14.5,12.7c18.5,1.7,36.8,4.3,55.5,4.4
		c14.2,0.1,27.5-4.6,41.5-4.4c18.1,10.8,36.5,21.3,53.3,34.1c3.6,2.8,7.4,5.6,10.3,9.1c4.6,5.6,0.8,14.4-6.3,15
		c-3.2,0.3-6.5-0.4-9.8-0.7c-26.3-2.5-52.5-4.9-78.8-7.4c-13.3-5.2-27.1-8.6-41.4-9.4C2997.1,2322.2,2976.1,2315.4,2955.2,2308.5z"
		/>
	<path class="st14" d="M3484.7,3343c19.9-25.5,39.8-51.1,61.9-74.8c3.8,1.1,7.6,2.5,11.5,3.3c11,2.1,15.6,10,16.5,19.9
		c2.4,25.8-1.9,50.5-15.6,72.9c-7.6,12.5-17.2,15.6-30.6,9.9c-10.5-4.4-19.6-11.3-28-18.9C3495.4,3350.8,3491.2,3345.5,3484.7,3343z
		"/>
	<path class="st14" d="M2895,2576.1c-43-12.4-69.4-42.3-86.4-82c-2.6-6.1-4.9-12.3-7.4-18.5c-1-2.5-2.5-5.4-0.3-7.4
		c2.6-2.3,4.6,0.5,6.4,2.2c4.3,4.2,8.7,8.3,12.7,12.7c9.7,10.3,21.1,18.3,33.8,24.4c18,8.7,36.2,16.7,54.3,25.1
		C2903.7,2547,2899.4,2561.6,2895,2576.1z"/>
	<path class="st4" d="M3018.1,2329.1c14.3,0.8,28.1,4.2,41.4,9.4c-5.8,19.6-14.2,38.1-24.9,55.4c-2.7,4.4-5,9.4-10.3,11.5
		c-6.8-7.2-8.2-16.2-8.1-25.5C3016.6,2363,3017.5,2346,3018.1,2329.1z"/>
	<path class="st15" d="M3561.6,3137.4c-3.9,0.7-7.8,1.9-11.7,1.9c-30.6,0.2-61.3,0.1-91.9,0.1c-4,0-8,0.2-11.6-2.2
		c3.8-5.8,8.5-9.9,16.2-9.3c3.9,0.3,7.9-0.2,11.9,0.1c9.8,0.7,18.4,0,21.7-11.7c0.6-2.2,3.3-4,5.4-5.5c6.3-4.4,14.9-2.1,17.3,6.3
		c2.5,8.9,7.1,11.5,15.5,10.9c6.6-0.4,13.2-0.1,19.8,0.1C3560.1,3128.2,3561.8,3132.1,3561.6,3137.4z M3506.5,3121.6
		c-2.1,0.8-2.5,2.4-1.9,4.2c0.4,1.5,1.6,1.9,2.9,1.2c1.8-0.8,2.7-2.4,1.8-4.1C3508.9,3122.1,3507.3,3121.9,3506.5,3121.6z"/>
	<path class="st6" d="M6689.2,3284.4c32.4-9.3,65.2-16,99-15.1c15.7,0.4,31.4,3,47.1,4.6c1.4,31.9,2,64-0.7,95.7
		c-3.4,39.6-7,79.3-13.9,118.6c-4.9,28.1-8.3,56.5-13.1,84.6c-5.6,33.4-11.7,66.7-18.2,99.9c-3,15.3-3.8,30.3-0.4,45.5
		c6.3,28.1,7.8,56.6,6.1,85.2c-0.7,13.2-3.1,26.3-8.7,38.7c-5.9,12.9-15.4,19.1-29.8,18.8c-13.6-0.3-26-5.2-38.9-8.1
		c-14.9-7.4-30.2-13.9-44.1-23.2c-7.2-4.8-13.8-10.4-20.1-16.3c-7.2-6.8-8.6-14.9-5.7-23.7c1.8-5.7,4.5-11.1,7.2-16.4
		c10.5-20.8,22.9-40.6,36.7-59.3c8.8-11.9,13.9-23.9,9.8-38.8c-0.9-3.2-1-6.6-1.1-9.9c-1.7-37.2-2.8-74.4-5.2-111.6
		c-3.1-46.5-2.5-93.1-5.1-139.6c-2.3-41.3-1.6-82.4-1.8-123.7C6688.2,3288.3,6688.9,3286.3,6689.2,3284.4z"/>
	<path class="st12" d="M6744.6,5179.8c-7.3,0.2-14.6,0.4-21.9,0.4c-101.5,0-203.1,0-304.6,0c-8,0-15.9-0.4-23.9-0.6
		c11.3-16,26.9-25,46-28.4c3.9-0.7,7.7-1.8,11.6-2.5c42.1-8,81.3-22.9,116.2-48.4c3,1.2,6.3,2,9,3.7c9.3,5.9,19.3,8.3,30.2,8.2
		c10-0.1,20,0,29.9,0.1c4,0,8.1-0.7,12,0.2c16.4,3.7,32.5,1.7,49,0.3c13.3-1.2,26.4-1.8,38.9-7.1c2.9-1.2,6.5-1,9.8-1.5
		c1.4,21.5,2.3,42.9-2.8,64.1C6743.1,5172.3,6742.9,5176.1,6744.6,5179.8z"/>
	<path class="st0" d="M5575.4,3104.3c0,86-0.1,172-0.1,258c-5.1,0.3-10.2,0.4-15.2,0.9c-8.7,0.9-15.9,4.3-20.2,12.3
		c-4.2,1.8-8.4,3.9-12.7,5.4c-53.1,18.2-82.2,68.6-80.2,113.7c0.7,15.2-0.4,30.4-0.7,45.6c-106.9,0.1-213.9,0.1-320.8,0.1
		c-17.7,0-17.7-0.2-17.9-17.8c-0.1-15.3,0-30.6,0-45.8c-0.1-16.6-0.3-33.2-0.5-49.8c15.9-0.5,31.8-1.3,47.7-1.6
		c15.9-0.3,31.9-0.1,47.8-0.1c6.8,0,13.2-1.6,18.6-5.9c10.3-8.3,14-19.2,11.5-31.9c-2.4-12.1-10.1-19.9-21.7-23.7
		c-7.1-2.3-14.4-2-21.7-2.1c-27.2-0.3-54.4-0.6-81.6-0.9c0-68-0.1-136,0-204c0-25.7,1.2-24.4-23.4-24.4c-184.7,0-369.3,0.1-554,0
		c-23.7,0-22.6-0.6-22.6,23.3c0,26-0.1,52,0.1,78c0.1,11.9-1.1,23.9,3.1,35.6c1.5,4.2,0.7,9.2,0.7,13.9c0,78.7,0,157.3,0,236
		c0,4,0.1,8-0.2,12c-0.5,6.3-2.5,8.5-8.4,9c-4.6,0.4-9.3,0.3-14,0.3c-178,0-356,0-534,0c-23.9,0-23.4,1.3-23.4-22.4
		c0-222.6,0-445.3,0-667.9c0-3.3-0.1-6.7,0.1-10c0.5-9.8,1.9-11.1,12.1-11.6c3.3-0.2,6.7-0.1,10-0.1c322,0,643.9,0,965.9,0
		c1.3,0,2.7,0.1,4,0.1c14.1,15.1,31.1,26.6,47.2,39.2c19.8,15.5,41.4,28.8,61.5,44.1c28.7,21.8,59.9,39.4,90.5,58.1
		c30.2,18.4,62.2,33.2,93.7,49.1c30.9,15.6,63.4,27.5,95.8,39.6c33,12.4,67,21.7,101.3,29.4c26.5,5.9,52.9,12.5,80.3,12.6
		c2,0,4.2,0,5.9,0.7c8.9,3.9,18.3,3,27.6,3.1C5543.4,3104.3,5559.4,3104.3,5575.4,3104.3z"/>
	<path class="st0" d="M4239.5,2028.3c3.3,6.8,8.8,12.1,14.7,16c14.1,9.3,24.8,22,36.8,33.5c9.6,9.2,18.7,18.9,28.3,28.2
		c17.1,16.7,31.4,35.9,47,53.9c16.6,19.1,31.4,39.4,46.4,59.6c10.6,14.4,21,29,30.4,44.3c16,26,33,51.2,49.8,76.7
		c6.5,10,13,20,19.8,29.7c26.8,37.8,53.3,75.9,81,113.1c17.4,23.4,36.4,45.5,54.9,68c19.4,23.5,39,46.8,58.5,70.2
		c1.3,1.5,2.7,2.9,4.1,4.4c31.9,32,60.5,67.2,93.7,97.9c4.8,4.4,10.4,8.6,11,16c-7.3,0.2-14.6,0.5-22,0.5c-278.5,0-557,0-835.5,0
		c-29.3,0-27,2.5-27-26.8c0-219.2,0-438.4,0-657.6c0-6-0.1-12,0.2-18c0.4-7.2,2.3-9,10-9.5c4-0.2,8-0.1,12-0.1
		C4048.9,2028.3,4144.2,2028.3,4239.5,2028.3z"/>
	<path class="st0" d="M4738.7,4340.1c-64,0.1-128,0.1-192,0.1c-3.3,0-6.7,0.1-10-0.2c-6.3-0.5-8.6-2.5-9-8.4c-0.4-6-0.3-12-0.3-18
		c0-117.3,0-234.7,0-352c0-5.3,0.1-10.7-0.1-16c-0.4-12.1-1.4-13.1-14.3-13.4c-5.3-0.1-10.7,0-16,0c-179.3,0-358.6,0-538,0
		c-6.7,0-13.3,0-20-0.3c-4.7-0.2-7.1-3.3-7.4-7.8c-0.3-4.7-0.3-9.3-0.3-14c0-86.7,0-173.3,0-260c0-1.3,0-2.7,0-4
		c0.3-17.6,0.3-17.6,18-17.8c2,0,4,0,6,0c317.3,0,634.6,0,952,0c4.7,0,9.3,0.1,14,0.1c1.4,15.9,1.8,31.8-0.3,47.6
		c-27.3,0.1-54.6,0.2-81.9,0.4c-5.3,0-10.7,0-16,0.3c-4.7,0.3-7.1,3.2-7.5,7.8c-0.2,2.6-0.3,5.3-0.3,8c0,34.6-0.1,69.2,0,103.9
		c0,4.6-0.1,9.5,1.4,13.8c2.5,7.2,2.5,14.4,2.5,21.7c0,20-0.1,40-0.1,59.9c-19.2,0.3-38.5,0.6-57.7,0.9c-5.3,0.1-10.6,0.1-15.9,0.4
		c-3.8,0.2-6.1,2.5-6.4,6.2c-0.4,4-0.4,7.9-0.4,11.9c0.1,59.1,0.2,118.1,0.3,177.2c0,4,0.6,7.9,0.9,11.9c-0.3,7.3-0.9,14.5-0.9,21.8
		c0,65.5,0.1,131,0.1,196.4C4739.4,4325.6,4738.9,4332.9,4738.7,4340.1z"/>
	<path class="st0" d="M4003.7,4547.6c-16.8-2.6-33.8-2.3-50.8-2.4c-7.2,0-14.3-0.5-21.5-0.8c0-30.7,0-61.3,0-92c0-5.3,0-10.7,0.3-16
		c0.2-4.5,2.7-7.5,7.4-7.8c4-0.3,8-0.3,12-0.3c262.6,0,525.3,0.1,787.9,0.1c0.2,29.7,0.4,59.4,0.5,89.1c0,3.2-1,6.5-1.6,9.7
		c-19.8-0.6-39.7-1.2-59.5-1.6c-4.6-0.1-9.3-0.1-13.9,0.3c-7.2,0.6-9.5,3-10.2,9.6c-0.1,1.3-0.1,2.6-0.1,4
		c0.2,54.3,0.4,108.6,0.6,162.9c0,2,0.5,3.9,0.8,5.9c-0.3,33.2-0.7,66.5-0.8,99.7c-0.1,90.4,0,180.9,0.1,271.3
		c-26.7,1.2-53.5,1.3-80.2-0.1c0.1-85.1,0.4-170.2,0.4-255.3c0-23.9-0.6-47.8-0.9-71.7c0.3-6,0.8-11.9,0.9-17.9
		c0.2-53.9,0.3-107.8,0.3-161.6c0-26.8,2.4-24.2-25-24.3c-178.3-0.5-356.5-0.9-534.8-1.3C4011.6,4547,4007.6,4547.4,4003.7,4547.6z"
		/>
	<path class="st8" d="M4737.9,4527.2c0.6-3.2,1.6-6.5,1.6-9.7c-0.1-29.7-0.3-59.4-0.5-89.1c0.8-29.4,1.3-58.8-0.4-88.3
		c0.2-7.3,0.7-14.5,0.7-21.8c0-65.5-0.1-131-0.1-196.4c0-7.3,0.6-14.5,0.8-21.8c4.2,0.2,7.3,2.6,10.6,5.1
		c30.8,23,61.7,45.8,92.4,68.8c29.2,21.8,57.6,44.6,87.4,65.5c34.1,24,66.9,49.8,100.5,74.5c20.2,14.9,39.8,30.8,59.9,45.9
		c28.1,21,56.5,41.6,84.7,62.5c35.1,26.1,70.3,51.9,104.9,78.6c9.3,7.2,21.1,11.7,26.9,23.1c-7.3,0.1-14.6,0.1-21.9,0.2
		c-44.5,0.2-89,0.3-133.5,0.5c-8-0.2-15.9-0.5-23.9-0.5c-78.4,0-156.8-0.3-235.2,0.2c-29.1,0.2-58.1-1.2-87.3,2.9
		C4783.5,4530.6,4760.5,4529.4,4737.9,4527.2z"/>
	<path class="st10" d="M4921.1,3676c2.1-15.9,1.7-31.7,0.3-47.6c0.3-6.6,0.9-13.2,1-19.8c0.1-37.9,1.1-75.8-0.2-113.6
		c-1.9-55.4,37.3-101.4,82.1-114.7c3.8-1.1,7.2-3.3,10.8-4.9c8.6-0.1,17.3-0.7,25.9-0.3c10.3,0.5,17.4,7.4,18.6,17.3
		c1.1,8.8-5.8,18.3-15.3,20.5c-3.2,0.8-6.6,0.8-9.9,0.9c-5.5,0-10.4,1.7-15.1,4.5c-10.8-0.8-19.2,5-27,11
		c-21.4,16.5-32.3,38.4-32.4,65.5c-0.1,32-0.1,63.9,0,95.9c0,25-2.2,23.2,24.2,23.2c146.5,0,293.1,0,439.6,0c4.7,0,9.3,0.1,14-0.1
		c7.5-0.4,9.4-2.1,9.4-9.7c0-21.3-0.5-42.6-0.8-63.9c0.3-15.2,1.4-30.4,0.7-45.6c-2-45.1,27.1-95.4,80.2-113.7
		c4.3-1.5,8.5-3.6,12.7-5.4c8.5-0.2,17.1-0.8,25.6-0.4c11.6,0.6,18.5,7.9,18.7,18.7c0.2,10.8-6.2,18.4-17.9,19.5
		c-7.9,0.7-15.6,1.8-23,5c-3.4-1.1-6.5,0.1-9.6,1.4c-29.2,13.1-45.6,35.9-48.5,67.5c-1.6,17.7-2.1,35.7,0.9,53.5
		c-1.7,29.1-1.5,58.3-0.1,87.4c-0.5,6.6-1.5,13.2-1.5,19.8c-0.1,80.3,0,160.7,0,241c-12.5,3.6-25,3.5-37.6,0.1c0-72,0-144,0-215.9
		c0-21.9,1.5-20.6-20.4-20.6c-148.6,0-297.2,0-445.9,0c-22.1,0-21.8-2.3-20.6,21.9c0,0.7,0.2,1.3,0.4,2c-0.3,6.6-0.8,13.2-0.8,19.9
		c-0.1,65.1,0,130.2,0,195.2c-12.5,1.7-24.9,1.4-37.4,0.3c0-65.9,0.1-131.8,0-197.8C4922.3,3687.9,4921.5,3681.9,4921.1,3676z"/>
	<path class="st6" d="M5981.7,3183c1.5,0.5,3,1.1,4.5,1.6c1.9,1.8,3.6,4,5.7,5.5c51.2,36.1,81.9,85.7,96.5,146
		c-2.2,1.4-4.2,3.2-6.6,4.1c-18.6,6.9-37.6,12.5-57.1,16.2c-53.3,10.3-107.2,14.4-161.4,15.5c-4,0.1-7.9,0.3-11.9,0.5
		c-20.9-1.2-42,1-62.7-3.7c-13.3-3-24.5,1.6-33.5,11.7c-9,0.6-15.7,6.7-23.7,9.8c-8,3.1-15.9,6.8-24.1,9c-8.3,2.1-15.4-4.3-15.9-13
		c-0.2-3.3,0.2-6.6,0.1-9.9c-0.4-10.6-1.8-12-13.2-12.4c-4.6-0.2-9.3-0.1-13.9-0.1c-18.6,0-37.1,0-55.7,0c-4.6,0-9.4,0.8-13.3-2.6
		c1.9-4.2,3.7-8.5,5.8-12.7c11.3-23.1,30-35.2,54.9-41.1c19.7-4.7,38.3-1,56.9,2.5c18,3.4,34.9,0.5,49.8-7.6
		c30.1-16.4,59.1-35.2,88.5-52.9c9-2.5,16.6-7.9,24.8-12.2c30.8-16.4,61.7-32.9,92.6-49.2C5972.9,3185.9,5977.4,3184.6,5981.7,3183z
		"/>
	<path class="st16" d="M5019.2,3418.1c4.7-2.7,9.6-4.4,15.1-4.5c3.3,0,6.7-0.1,9.9-0.9c9.5-2.2,16.4-11.7,15.3-20.5
		c-1.2-9.9-8.3-16.8-18.6-17.3c-8.6-0.4-17.2,0.2-25.9,0.3c6.6-11.1,17.5-13.4,29-13.8c13.9-0.4,27.8,0,41.7-0.1
		c7.3-0.1,14.5-0.5,21.8-0.7c27.2,0.3,54.4,0.6,81.6,0.9c7.3,0.1,14.6-0.2,21.7,2.1c11.7,3.8,19.3,11.6,21.7,23.7
		c2.5,12.7-1.2,23.6-11.5,31.9c-5.4,4.4-11.7,5.9-18.6,5.9c-15.9,0-31.9-0.2-47.8,0.1c-15.9,0.3-31.8,1-47.7,1.6
		c-19.9-0.2-39.9-0.4-59.8-0.7C5037.1,3426.1,5027.1,3425.6,5019.2,3418.1z"/>
	<path class="st16" d="M5595.6,3361.2c3.9,3.4,8.7,2.6,13.3,2.6c18.6,0.1,37.1,0,55.7,0c4.6,0,9.3-0.1,13.9,0.1
		c11.4,0.4,12.8,1.7,13.2,12.4c0.1,3.3-0.3,6.6-0.1,9.9c0.5,8.7,7.7,15.1,15.9,13c8.3-2.1,16.1-5.8,24.1-9c8-3.1,14.7-9.2,23.7-9.8
		c7.9,27.5-4.2,44.2-32.5,44.7c-2.7,0.1-5.3,0-8,0c-38.6,0-77.2-0.1-115.8,0c-8,0-15.9,0.6-23.9,0.9c-10.8-1.5-22.5,0.2-31.7-7.9
		c7.3-3.2,15-4.2,23-5c11.7-1.1,18.1-8.6,17.9-19.5c-0.2-10.8-7.1-18.1-18.7-18.7c-8.5-0.4-17.1,0.2-25.6,0.4
		c4.4-8,11.6-11.4,20.2-12.3c5.1-0.5,10.1-0.6,15.2-0.9C5582.1,3361.9,5588.8,3361.6,5595.6,3361.2z"/>
	<path class="st0" d="M5851.5,3372.4c4-0.2,7.9-0.4,11.9-0.5c54.2-1.1,108.1-5.1,161.4-15.5c19.5-3.8,38.5-9.3,57.1-16.2
		c2.4-0.9,4.4-2.7,6.6-4.1c10.2-0.8,17.1-9.1,26.6-11.4c-0.3,23.2-0.2,46.4-1.1,69.6c-2.1,53.7-4.2,107.4-7.1,161
		c-1.5,28.5-4.3,56.9-2.7,85.5c0.9,15.9,2.4,31.7,3.6,47.5c0.2,10.6-0.2,21.3,0.7,31.9c4.8,59.8,13.6,119.1,20.7,178.6
		c4.6,39,9.6,78,14,117.1c4.8,42.4,9.1,84.8,13.5,127.2c4.9,47.7,9.9,95.4,14.3,143.2c3.6,39.1,6.7,78.3,9.5,117.5
		c4.9,68.4,10.5,136.9,14,205.4c3.8,73.9,6.2,147.8,8,221.7c1.3,56,1.4,112-1.1,167.9c-1,21.3-1.3,42.6-2.2,63.9
		c-0.4,9.8,1.6,18.5,8.8,25.6c1.8,1.8,3.3,3.9,5.1,6.1c-4.6,7.5-11.9,11.3-18.5,15.5c-30.1,19.4-63.4,30.7-98.1,38.1
		c-7.2,1.5-14.5,2.4-21.5,4.5c-14.1,4.3-27.8,9.6-35.6,23.5c-4.2,2-8.6,3-13.3,3c-56.1-0.1-112.3-0.1-168.4-0.2
		c-1.9,0-3.9-0.7-5.8-1c-0.1-8.7-0.3-17.3-0.3-26c0-299.3,0-598.5,0-897.8C5851.4,3960.2,5851.4,3666.3,5851.5,3372.4z"/>
	<path class="st12" d="M6039.3,5176.1c7.8-13.9,21.5-19.2,35.6-23.5c7-2.1,14.3-3,21.5-4.5c34.8-7.4,68.1-18.7,98.1-38.1
		c6.6-4.2,13.8-8,18.5-15.5c-1.8-2.2-3.3-4.4-5.1-6.1c-7.2-7.1-9.2-15.8-8.8-25.6c0.9-21.3,1.2-42.6,2.2-63.9
		c2.5-56,2.5-112,1.1-167.9c-1.7-73.9-4.2-147.9-8-221.7c-3.5-68.5-9.1-136.9-14-205.4c-2.8-39.2-5.9-78.4-9.5-117.5
		c-4.4-47.8-9.4-95.5-14.3-143.2c-4.4-42.4-8.7-84.8-13.5-127.2c-4.4-39.1-9.4-78-14-117.1c-7-59.5-15.9-118.9-20.7-178.6
		c-0.9-10.6-0.5-21.3-0.7-31.9c2.1-1.8,3.2-4.1,3.6-6.8c2-14.1,8.5-26.5,15-38.8c9.1-17.3,24.1-26,42.6-29.8
		c3.2-0.6,6.8-0.8,9.9,0.2c17.8,5.5,34.9,12.2,49,25.5c21.1,19.7,37.6,42.9,53.7,66.5c9,13.2,10.8,28.5,13.5,43.3
		c7.7,41.1,18.6,81.3,29.3,121.7c7.3,27.6,14.2,55.2,21.2,82.8c12.9,50.7,26.1,101.4,38.5,152.3c10.9,45,20.9,90.3,31.4,135.4
		c10.1,43.2,21.1,86.2,30.4,129.6c10.3,47.9,21.5,95.5,30.2,143.8c3.4,18.9,7.6,37.6,8.8,56.9c-1.5,40.6-6,80.9-10.7,121.1
		c-6.2,53.5-13.7,106.7-22.7,159.8c-10.3,60.9-21.8,121.6-36.9,181.6c-5.3,21.2-10.3,42.8-20.3,62.4c-4.1,8.1-6,15.8-5.8,24.7
		c0.3,17.9,0.4,35.9-4.4,53.5c-0.5,1.8,0.3,3.9,0.5,5.9c-6.6,0.2-13.3,0.6-19.9,0.6c-101.6,0-203.2,0.1-304.8-0.1
		C6053,5180.2,6045.1,5182.8,6039.3,5176.1z"/>
	<path class="st0" d="M6384.7,5179.7c-0.2-2-1-4.1-0.5-5.9c4.8-17.6,4.7-35.5,4.4-53.5c-0.2-8.9,1.7-16.6,5.8-24.7
		c10-19.7,14.9-41.2,20.3-62.4c15-60,26.5-120.7,36.9-181.6c9-53.1,16.6-106.4,22.7-159.8c4.7-40.3,9.1-80.6,10.7-121.1
		c3,5.9,5.3,12,6.6,18.7c15.8,82.4,30.4,164.9,42.8,247.9c10.4,69.8,19.7,139.7,25.9,210c1.6,17.8,1.9,35.9,7.8,53.1
		c-34.8,25.5-74.1,40.4-116.2,48.4c-3.9,0.7-7.7,1.8-11.6,2.5c-19,3.5-34.7,12.4-46,28.4C6391,5179.7,6387.8,5179.7,6384.7,5179.7z"
		/>
	<path class="st9" d="M6115.1,3324.7c-9.5,2.3-16.5,10.6-26.6,11.4c-14.6-60.3-45.4-109.8-96.5-146c-2.1-1.5-3.8-3.6-5.7-5.5
		c11.9,0,23.8-0.5,35.7,0c8.9,0.3,15.6-2.7,20.1-10.1c5.5-9,11.4-17.9,15.6-27.5c16-37,29.8-74.8,41.8-113.2
		c3.9-12.6,7.9-25.2,11.5-37.9c1.2-4.2,3.2-7.1,7.5-8.1c0.3,6.6,1,13.3,1,19.9c-0.1,71.2-0.2,142.4-0.4,213.6
		c0,8.6,0.2,17.2-2.2,25.7c-1.6,5.6-1.1,11.9-1.2,17.8C6115.4,3284.7,6115.3,3304.7,6115.1,3324.7z"/>
	<path class="st9" d="M6587.8,2984.1c3.6-0.2,6.1-1.5,7.5-5.2c5.2-14.4,10.6-28.6,15.8-43c1.1-3.1,1.3-6.6,6.1-8.6
		c3.5,3.5,4.4,8.7,5.6,13.3c14.4,55.8,29,111.6,42.4,167.7c7.3,30.9,15,61.7,18.9,93.4c1.1,9.2,4.7,18,2.7,27.5
		c-19.2-5.4-30.4-20.8-41.9-35.1c-10.8-13.4-18.2-29.3-24.4-45.4c-11.2-29.1-19-59.3-23.8-89.9c-2.4-15.5-6.3-31.2-5.3-47.2
		C6591.7,3002.1,6585.4,2993.6,6587.8,2984.1z"/>
	<path class="st17" d="M5851.5,3372.4c0,293.9,0,587.8-0.1,881.8c0,299.3,0,598.5,0,897.8c0,8.7,0.2,17.3,0.3,26
		c-7.3,0.4-14.6,1.2-21.8,1.2c-80.6,0.1-161.2,0-241.8,0.1c-6.7,0-13.3,0.3-20,0.4c2-3.7,5.2-5.7,9.1-7.3
		c38.8-15.9,66.1-44.2,85.1-80.7c27.3-52.5,32.2-107.8,18.6-164.9c-9.3-39.1-27.9-73.3-57.8-100.7c-22.6-20.7-48.7-34.9-79.7-37.9
		c-15.9-1.5-31.9-1.7-47.8,0c-3.3-0.3-6.5-0.7-9.8-1c-2.2-16.9-1.8-33.9-0.3-50.9c24.6,0,49.3,0.2,73.9,0
		c15.3-0.1,15.7-0.7,16.1-15.7c0-1.3,0-2.7,0-4c0-63.9-0.1-127.8-0.1-191.8c19.9-0.2,39.9-0.5,59.8-0.7c8.6-0.1,17.3-0.1,25.9-0.6
		c5.9-0.3,8.2-2.7,8.7-8.7c0.4-4,0.3-8,0.3-12c0.2-18.6,0.4-37.2,0.4-55.9c0.3-179.6,0.6-359.1,0.9-538.7c0-19.6,0.5-19.2-20.2-19.2
		c-25.3-0.1-50.5-0.4-75.8-0.6c0-76.6,0-153.2,0-229.8c0-4.7,0.1-9.3,0-14c-0.3-15.5-0.8-16-15.4-16.4c-4.7-0.1-9.3,0-14,0
		c-20-0.1-40-0.2-60-0.3c-1.5-29.1-1.6-58.3,0.1-87.4c22-0.1,43.9-0.2,65.9-0.3c4.7,0,9.3,0.1,14-0.2c6.3-0.4,8.6-2.5,9.2-8.2
		c0.2-2,0.2-4,0.2-6c-0.1-33.3-0.3-66.6-0.4-99.8c8-0.3,15.9-0.9,23.9-0.9c38.6-0.1,77.2,0,115.8,0c2.7,0,5.3,0,8,0
		c28.4-0.5,40.5-17.2,32.5-44.7c9-10.1,20.1-14.7,33.5-11.7C5809.5,3373.4,5830.5,3371.1,5851.5,3372.4z"/>
	<path class="st0" d="M2504.6,5179.7c-8.8-19.7-24.7-30.9-45-36.4c-13.5-3.7-26.9-7.6-40.6-10.1c-14-2.5-24.8-9.3-33.1-20.4
		c-10.3-13.9-20.2-28.1-30.3-42.1c-1.6-2.2-3.2-4.2-4.8-6.4c4.6-24.8,8.7-49.7,13.7-74.5c19.6-97.1,39.6-194,62.9-290.3
		c14.9-61.4,30.3-122.6,50.5-182.5c8.7-25.9,19.3-50.8,33.1-74.6c21.5-37,35.5-77.2,48.3-117.9c8.8-27.9,16.2-56.2,24.6-84.2
		c2-6.8,1.8-14.6,7.5-20.1c4.1,22.4,8.1,44.8,12.2,67.2c0.6,3.1,1.8,6.2,2.7,9.2c0.3,3.3,0,6.8,0.8,9.9c5.9,21.1,3,42-0.6,63.1
		c-7.2,42.3-6,85-1,127.4c11.8,100.8,43.9,195.8,84,288.4c39.8,91.9,87.8,179.3,141.1,264c0.7,1.1,1.7,2.1,2.5,3.1
		c11.4,21.5,11.5,42.2-2.1,63.3c-9.2,14.3-9.4,31.1-9.4,47.7c0,5.2-0.1,10.5-0.1,15.7c-93.7-0.1-187.4-0.2-281.1-0.3
		C2528.5,5179.1,2516.6,5179.5,2504.6,5179.7z"/>
	<path class="st8" d="M4574.3,4752.1c0.3,23.9,0.9,47.8,0.9,71.7c0,85.1-0.2,170.2-0.4,255.3c-15.3,0.3-30.6,0.5-45.9,0.9
		c-4.6,0.1-9.4,0.1-13.9,1.2c-8.3,2.1-14.3,11.5-13.4,19.9c0.8,8.4,6.8,14.8,15.5,15.8c5.3,0.6,10.6,0.3,16,0.4
		c14,0.5,28-1.2,41.9,1.2c0.2,7.3,0.3,14.6,0.5,21.8c-0.1,12.6-0.2,25.2-0.3,37.8c-5.9,0.4-11.9,1.2-17.8,1.2
		c-177.4,0.1-354.8,0.1-532.2,0c-6,0-11.9-0.5-17.9-0.8c0.2-0.8,0.3-1.6,0.1-2.4c6.5-5.6,12.7-11.7,19.6-16.8
		c37.3-27.7,74.8-55.1,112-82.8c35.1-26.1,70.1-52.5,105.1-78.8c34.5-25.9,69-51.7,103.5-77.5c34.5-25.8,68.9-51.8,103.5-77.6
		c28.2-21,56.6-41.7,84.8-62.7c3.7-2.8,7-6.2,10.8-8.8C4555.9,4764.8,4563.4,4756,4574.3,4752.1z"/>
	<path class="st10" d="M5495.6,4788.1c15.9-1.7,32-1.5,47.8,0c31,3,57.1,17.1,79.7,37.9c29.9,27.4,48.4,61.5,57.8,100.7
		c13.6,57.1,8.7,112.5-18.6,164.9c-19,36.5-46.4,64.8-85.1,80.7c-3.9,1.6-7,3.6-9.1,7.3c-21.8,0.2-43.6,0.7-65.4,0.4
		c-7.8-0.1-15.5-2.5-23.3-3.8c-1.5-1.3-2.7-3.2-4.4-3.9c-23.2-9.8-41.1-26.4-58.2-44.2c-9.8-10.2-17.4-21.6-24.5-33.6
		c-19.9-33.5-23.8-71.1-28.6-108.5c-0.6-4.4,1.1-9.1,1.7-13.7c0.6-3.9,1.7-7.8,1.8-11.7c1.7-36.7,14.1-69.7,33.7-100.5
		c8.7-13.7,21-23.8,32-35.3c13.1-13.7,28.8-23.1,46.7-29.3C5485.1,4793.6,5491.9,4793.7,5495.6,4788.1z M5627.4,4983.8
		c3-26.9-6.4-51.4-19.6-75.1c-13.8-24.8-35.1-40.3-61.9-46.6c-22.4-5.3-44.7-3.1-65.1,10.4c-16.6,10.9-28.7,25.3-38.7,42.1
		c-11.9,20-15.5,42.2-18.2,64.6c-0.8,6.5-0.7,13.4,0.5,19.9c3.4,19.7,8.3,38.9,18.7,56.4c19.7,33.1,46.2,54.1,86.9,53.1
		c28.9-0.7,51.3-14,68.5-35.2C5619,5047.9,5630,5018.2,5627.4,4983.8z"/>
	<path class="st8" d="M3447.2,5178.4c0.3-0.7,0.3-1.5,0.1-2.2c5.4-8.8,15-12.9,22.8-18.9c35.2-27.1,70.9-53.4,106.5-80.1
		c33.9-25.4,67.8-51,101.8-76.4c39.8-29.7,79.8-59.3,119.6-89c2.8-2.1,5.7-3.3,9.1-3.4c-0.1,89.8-0.1,179.6-0.2,269.3
		c-5.9,0.5-11.9,1.3-17.8,1.3c-108.6,0.1-217.3,0.1-325.9,0C3457.8,5179.2,3452.5,5178.7,3447.2,5178.4z"/>
	<path class="st12" d="M5495.6,4788.1c-3.8,5.7-10.5,5.5-15.9,7.4c-17.9,6.2-33.7,15.6-46.7,29.3c-11,11.5-23.3,21.6-32,35.3
		c-19.6,30.8-32,63.8-33.7,100.5c-0.2,3.9-1.3,7.8-1.8,11.7c-0.7,4.6-2.3,9.3-1.7,13.7c4.8,37.4,8.7,75,28.6,108.5
		c7.2,12,14.7,23.4,24.5,33.6c17.2,17.8,35,34.4,58.2,44.2c1.7,0.7,2.9,2.6,4.4,3.9c-1.5,1.1-3,3.2-4.6,3.3
		c-20.6,0.9-41.3,3.1-61.7-2.4c-30.7-10.4-56.1-28.3-76.4-53.5c-2.6-3.2-5.5-5.6-9.2-7.2c-3-14-12.4-24.4-19.9-36
		c-0.5-3.3-0.4-6.8-1.6-9.7c-13.4-32-16.8-65.4-15.2-99.6c1.9-42.9,14.1-82.4,39.6-117.1c32.8-44.6,75.1-70.6,132.6-66
		c7.6-0.3,15.2-0.5,22.7-0.8C5489.1,4787.4,5492.4,4787.7,5495.6,4788.1z"/>
	<path class="st17" d="M5327.6,5116.3c3.6,1.7,6.6,4.1,9.2,7.2c20.3,25.2,45.7,43.1,76.4,53.5c-6.9,3.9-14.4,2-21.5,2
		c-118.5,0.1-237.1,0.1-355.6,0.1c-6,0-12,0.3-17.9,0.5c4-4.7,9.7-6.5,15.1-8.9c26.4-11.9,48.3-29.5,65-53.3
		c69.2,0,138.3,0,207.5-0.1C5313,5117.3,5320.3,5116.7,5327.6,5116.3z"/>
	<path class="st12" d="M5098.2,5117.4c-16.7,23.8-38.6,41.4-65,53.3c-5.4,2.4-11.1,4.2-15.1,8.9c-50.9,0.9-101.8,1.4-152.8-0.3
		c-2.1-1.5-4.1-3.6-6.4-4.5c-22.5-8.8-41.7-22.5-59.5-38.5c-4.8-6.3-9.6-12.6-14.5-18.9c7.3-0.4,14.6-1.1,21.9-1.1
		c89.8-0.1,179.7-0.1,269.5,0C5083.6,5116.4,5090.9,5117.1,5098.2,5117.4z"/>
	<path class="st17" d="M4799.4,5136.4c17.8,15.9,37,29.7,59.5,38.5c2.4,0.9,4.3,3,6.4,4.5c-88.8-0.1-177.6-0.1-266.5-0.3
		c-7.9,0-15.8-0.7-23.8-1c0.1-12.6,0.2-25.2,0.3-37.8c54.5,0,109,0,163.5,0c15.9,0,31.9,0,47.8,0
		C4791.3,5140.3,4796.1,5140.7,4799.4,5136.4z"/>
	<path class="st6" d="M6321.9,2376.1c-1.6-12.4-3.1-24.8-4.9-37.1c-0.4-2.4-2.3-4.6-3.5-6.9c2.9-4.8,2-10.1,1.9-15.3
		c-0.5-26.9,0.7-53.6,4.2-80.3c9.4-0.7,17.9,5.4,27.4,4c16.4,6.7,34.5,1,50.9,7.5c19.8-0.5,39.8,2.8,59.5-2.3
		c3.2-0.8,6.5-1.1,9.8-1.2c28.5-1.2,56.3-6.9,84.3-11.8c6.7,20.4,9.2,41.3,8.1,62.8c-0.6,12.6-0.6,25.2-0.9,37.9
		c-4.5,13.4-6.8,27.1-6.2,41.2c-2,7-3.8,14.1-6.2,21c-2.3,6.3-6.1,11.9-11.5,16c-16.6,12.8-35.3,21.2-55.9,25.1
		c-5.9,1.1-8.9-2.5-7-8.2c1-3.1,2.7-6.1,3.7-9.2c3-9.2,0.6-14.9-8.1-19.7c-7.3-4.1-15.5-4.3-23.3-5c-11.9-1.1-23.9,0.4-35.2,5
		c-8,3.2-9.9,7.9-7.8,15.9c0.2,0.6,0.5,1.2,0.7,1.9c6.1,20.4,4.8,21.9-15.4,17.4c-9.7-2.2-19.3-4.9-29-7.4
		c-12.6-3.2-21.1-11.1-25.7-23C6328.3,2395,6325.2,2385.5,6321.9,2376.1z"/>
	<path class="st0" d="M2951,3043.9c5,3.8,6.8,9.7,10,14.7c28.8,43.8,59.8,85.9,94.8,125.1c18.2,20.3,37.3,39.5,57.6,57.5
		c22.8,20.3,48.3,34.9,77.9,42.1c16.7,4.1,33.7,7,50.6,10.5c-3.2,5.5-6.4,11-9.6,16.5c-13.2,2.9-26.6,2-39.8,1.5
		c-17.3-0.7-33.1,3.2-47.7,11.9c-13.3,8-26.8,11.2-41.8,5.4c-2.4-0.9-5.3-0.5-7.9-1c-17.7-3.2-34.2-8.5-50-18.2
		c-31.7-19.6-64.9-36.6-97-55.5c-15.4-9-32.1-16.3-44.9-29.3c6.6-26.8,13.2-53.7,20-80.5c8.1-31.9,16.4-63.8,24.7-95.6
		C2948.5,3047.1,2950,3045.5,2951,3043.9z"/>
	<path class="st13" d="M4574.3,4752.1c-10.9,3.9-18.4,12.7-27.6,19.1c-3.8,2.6-7,6.1-10.8,8.8c-28.2,20.9-56.6,41.7-84.8,62.7
		c-34.6,25.8-69,51.7-103.5,77.6c-34.5,25.8-69,51.7-103.5,77.5c-35,26.2-70,52.6-105.1,78.8c-37.3,27.7-74.8,55.1-112,82.8
		c-6.9,5.1-13.1,11.2-19.6,16.8c-2.2-1.7-3.7-3.8-3.8-6.7c-0.1-4.7-0.2-9.3-0.2-14c0-197.3,0-394.6,0.1-591.8c0-5.3,0.2-10.7,0.2-16
		c4-0.2,7.9-0.6,11.9-0.6c178.3,0.4,356.5,0.9,534.8,1.3c27.3,0.1,25-2.6,25,24.3c0,53.9-0.1,107.8-0.3,161.6
		C4575.1,4740.2,4574.6,4746.1,4574.3,4752.1z"/>
	<path class="st11" d="M2894.6,2346.3c-0.5,0.4-1.2,1.3-1.5,1.2c-2-0.8-1.9-1.8,0.1-2.4C2893.5,2345,2894.2,2345.9,2894.6,2346.3z"
		/>
	<path class="st17" d="M3506.5,3121.6c0.9,0.4,2.4,0.5,2.8,1.3c0.9,1.8,0,3.3-1.8,4.1c-1.4,0.7-2.5,0.3-2.9-1.2
		C3504,3123.9,3504.4,3122.4,3506.5,3121.6z"/>
	<path class="st17" d="M5019.2,3418.1c8,7.4,18,7.9,28,8.1c19.9,0.3,39.9,0.5,59.8,0.7c0.2,16.6,0.4,33.2,0.5,49.8
		c0.1,15.3-0.1,30.6,0,45.8c0.2,17.5,0.2,17.7,17.9,17.8c106.9,0,213.9-0.1,320.8-0.1c0.3,21.3,0.7,42.6,0.8,63.9
		c0,7.6-2,9.3-9.4,9.7c-4.6,0.3-9.3,0.1-14,0.1c-146.5,0-293.1,0-439.6,0c-26.3,0-24.1,1.7-24.2-23.2c-0.1-32-0.1-63.9,0-95.9
		c0.1-27.1,11-49,32.4-65.5C5000,3423.1,5008.3,3417.3,5019.2,3418.1z"/>
	<path class="st13" d="M4922.3,3891.6c12.5,1.1,25,1.3,37.4-0.3c4.6,0.3,9.3,0.8,13.9,0.8c75.9-0.1,151.9-0.3,227.8-0.4
		c36.6,0,73.3,0.3,109.9,0.5c0,203.2,0.1,406.3,0.1,609.5c0,5.3-0.1,10.7-0.2,16c-0.1,2.8-1.6,5-3.9,6.6
		c-5.7-11.4-17.6-15.9-26.9-23.1c-34.6-26.7-69.8-52.6-104.9-78.6c-28.2-20.9-56.6-41.5-84.7-62.5c-20.1-15.1-39.7-31-59.9-45.9
		c-33.6-24.7-66.4-50.5-100.5-74.5c-29.8-21-58.3-43.7-87.4-65.5c-30.7-23-61.6-45.8-92.4-68.8c-3.2-2.4-6.3-4.9-10.6-5.1
		c-0.3-4-0.9-7.9-0.9-11.9c-0.2-59.1-0.2-118.1-0.3-177.2c0-4,0-8,0.4-11.9c0.3-3.7,2.6-6,6.4-6.2c5.3-0.3,10.6-0.3,15.9-0.4
		c19.2-0.3,38.5-0.6,57.7-0.9C4853.6,3892.7,4888,3892.7,4922.3,3891.6z"/>
	<path class="st17" d="M4922.3,3891.6c-34.4,1.1-68.7,1.1-103.1,0.1c0-20,0.1-40,0.1-59.9c0-7.3,0-14.5-2.5-21.7
		c-1.5-4.3-1.4-9.2-1.4-13.8c-0.1-34.6-0.1-69.2,0-103.9c0-2.7,0-5.3,0.3-8c0.4-4.5,2.8-7.5,7.5-7.8c5.3-0.3,10.6-0.3,16-0.3
		c27.3-0.1,54.6-0.3,81.9-0.4c0.4,5.9,1.2,11.9,1.2,17.8C4922.4,3759.7,4922.4,3825.7,4922.3,3891.6z"/>
	<path class="st13" d="M4737.9,4527.2c22.5,2.2,45.5,3.4,67.6,0.3c29.2-4.2,58.2-2.8,87.3-2.9c78.4-0.5,156.8-0.2,235.2-0.2
		c8,0,15.9,0.3,23.9,0.5c0.1,10.6-1.3,21.6,0.8,31.8c1.9,9.3,2.6,18.3,2.6,27.6c0,165.1,0,330.2,0,495.3c-1.3,0-2.7,0.1-4,0.1
		c-21.5-16.6-42.9-33.2-64.4-49.9c-18.8-14.6-37.8-29.2-56.9-43.4c-25.5-19-50.5-38.7-76.1-57.6c-26.1-19.3-52-38.9-77.8-58.5
		c-18-13.6-35.8-27.4-53.7-41c-31.2-23.6-62.8-46.6-93.5-70.8c-13.6-10.7-28.1-19.9-41.4-31c-9.3-7.7-17.9-18.4-31.8-19.4
		c-0.3-2-0.8-3.9-0.8-5.9c-0.2-54.3-0.4-108.6-0.6-162.9c0-1.3,0-2.7,0.1-4c0.6-6.6,3-9,10.2-9.6c4.6-0.4,9.3-0.4,13.9-0.3
		C4698.3,4526,4718.1,4526.6,4737.9,4527.2z"/>
	<path class="st8" d="M4655.7,4708.2c13.9,1,22.5,11.6,31.8,19.4c13.3,11.1,27.9,20.3,41.4,31c30.7,24.1,62.3,47.2,93.5,70.8
		c18,13.6,35.8,27.4,53.7,41c25.9,19.6,51.7,39.2,77.8,58.5c25.6,18.9,50.6,38.6,76.1,57.6c19.1,14.2,38,28.8,56.9,43.4
		c21.4,16.6,42.9,33.2,64.4,49.9c-5.3,0.3-10.6,0.9-15.9,0.9c-137.6,0-275.2,0.1-412.8,0c-22.6,0-45.1-0.8-67.7-1.3
		c0-90.4-0.1-180.9-0.1-271.3C4654.9,4774.7,4655.4,4741.4,4655.7,4708.2z"/>
	<path class="st10" d="M4655,5079.2c22.6,0.5,45.1,1.3,67.7,1.3c137.6,0.1,275.2,0.1,412.8,0c5.3,0,10.6-0.6,15.9-0.9
		c1.3,0,2.7-0.1,4-0.1c7.2,0.2,14.5,0.7,21.7,0.7c43.5,0.1,87.1,0,130.6,0.1c7.4,11.5,16.9,22,19.9,36c-7.3,0.3-14.6,1-21.9,1
		c-69.2,0.1-138.3,0.1-207.5,0.1c-7.3-0.4-14.6-1-21.9-1c-89.8-0.1-179.7-0.1-269.5,0c-7.3,0-14.6,0.7-21.9,1.1
		c-64.8,0-129.6-0.1-194.3,0c-5.3,0-10.5,0.7-15.8,1c-13.9-2.4-27.9-0.7-41.9-1.2c-5.3-0.2-10.7,0.2-16-0.4
		c-8.6-1-14.6-7.4-15.5-15.8c-0.9-8.4,5.1-17.8,13.4-19.9c4.4-1.1,9.2-1,13.9-1.2c15.3-0.4,30.6-0.6,45.9-0.9
		C4601.5,5080.5,4628.2,5080.4,4655,5079.2z"/>
	<path class="st5" d="M5307.7,5080.3c-43.5,0-87.1,0-130.6-0.1c-7.2,0-14.5-0.5-21.7-0.7c0-165.1,0-330.2,0-495.3
		c0-9.3-0.7-18.4-2.6-27.6c-2.1-10.2-0.7-21.2-0.8-31.8c44.5-0.2,89-0.3,133.5-0.5c7.3,0,14.6-0.1,21.9-0.2c2.2-1.6,3.8-3.8,3.9-6.6
		c0.2-5.3,0.2-10.7,0.2-16c0-203.2-0.1-406.3-0.1-609.5c28.3-0.4,56.6-0.7,84.9-1.2c6.5-0.1,13.2,1.4,19.4-2
		c10.5,1.3,21,1.3,31.5-0.1c12.5,3.3,25.1,3.4,37.6-0.2c30.3,2.1,60.6,0.5,90.9-0.3c25.3,0.2,50.5,0.6,75.8,0.6
		c20.7,0,20.2-0.4,20.2,19.2c-0.3,179.6-0.6,359.1-0.9,538.7c0,18.6-0.3,37.2-0.4,55.9c0,4,0.1,8-0.3,12c-0.5,6-2.8,8.4-8.7,8.7
		c-8.6,0.4-17.3,0.4-25.9,0.6c-19.9,0.3-39.9,0.5-59.8,0.7c-28-1.3-56-1-83.9-0.1c-2.4,0.1-4.8,0.2-7.1,0.3
		c-20.3-2.5-19.6,1.3-19.5,16.9c0,4,0,7.9,0,11.9c0.2,70.2,0.4,140.4,0.5,210.5c0,7.9,1.1,15.9-2.1,23.6
		c-57.4-4.6-99.8,21.4-132.6,66c-25.5,34.7-37.7,74.2-39.6,117.1c-1.5,34.2,1.9,67.7,15.2,99.6
		C5307.3,5073.5,5307.2,5077.1,5307.7,5080.3z"/>
	<path class="st17" d="M5415.6,3889c-6.2,3.4-12.9,1.8-19.4,2c-28.3,0.5-56.6,0.8-84.9,1.2c-36.6-0.2-73.3-0.5-109.9-0.5
		c-75.9,0-151.9,0.3-227.8,0.4c-4.6,0-9.3-0.5-13.9-0.8c0-65.1,0-130.2,0-195.2c0-6.6,0.5-13.2,0.8-19.9
		c143.3,0,286.5,0.1,429.8,0.1c26.6,0,25-1.7,25,24.8C5415.5,3763.7,5415.5,3826.3,5415.6,3889z"/>
	<path class="st0" d="M5575.5,3888.5c-30.3,0.8-60.6,2.4-90.9,0.3c0-80.3-0.1-160.7,0-241c0-6.6,1-13.2,1.5-19.8
		c20,0.1,40,0.2,59.9,0.3c4.7,0,9.3-0.1,14,0c14.6,0.3,15.1,0.8,15.4,16.4c0.1,4.7,0,9.3,0,14
		C5575.5,3735.2,5575.5,3811.9,5575.5,3888.5z"/>
	<path class="st0" d="M5415.6,3889c-0.1-62.6-0.1-125.3-0.2-187.9c0-26.5,1.6-24.8-25-24.8c-143.3,0-286.5-0.1-429.8-0.1
		c-0.1-0.7-0.3-1.3-0.4-2c-1.3-24.1-1.5-21.9,20.6-21.9c148.6,0,297.2,0,445.9,0c21.9,0,20.4-1.3,20.4,20.6c0,72,0,144,0,215.9
		C5436.6,3890.2,5426.1,3890.3,5415.6,3889z"/>
	<path class="st0" d="M5575,3426.1c0.1,33.3,0.3,66.6,0.4,99.8c0,2,0,4-0.2,6c-0.6,5.7-2.9,7.8-9.2,8.2c-4.6,0.3-9.3,0.2-14,0.2
		c-22,0.1-43.9,0.2-65.9,0.3c-3-17.8-2.5-35.8-0.9-53.5c2.9-31.6,19.3-54.4,48.5-67.5c3-1.4,6.1-2.5,9.6-1.4
		C5552.5,3426.3,5564.2,3424.6,5575,3426.1z"/>
	<path class="st0" d="M5491.4,4524.6c28-0.9,56-1.2,83.9,0.1c0,63.9,0.1,127.8,0.1,191.8c0,1.3,0,2.7,0,4
		c-0.4,15-0.7,15.6-16.1,15.7c-24.6,0.2-49.3,0-73.9,0c-0.3-4-0.9-7.9-0.9-11.9c-0.1-61.3-0.1-122.6,0-183.9c0-4,0.6-7.9,1-11.9
		C5488.3,4528.4,5490.3,4527.1,5491.4,4524.6z"/>
	<path class="st10" d="M5485.6,4528.6c-0.3,4-1,7.9-1,11.9c-0.1,61.3-0.1,122.6,0,183.9c0,4,0.6,7.9,0.9,11.9
		c-1.5,17-1.9,33.9,0.3,50.9c-7.6,0.3-15.2,0.5-22.7,0.8c3.2-7.6,2.1-15.7,2.1-23.6c-0.1-70.2-0.3-140.4-0.5-210.5c0-4,0-7.9,0-11.9
		c-0.1-15.5-0.7-19.4,19.5-16.9C5484.2,4526.3,5484.7,4527.5,5485.6,4528.6z"/>
	<path class="st0" d="M4574.9,5118.5c5.3-0.4,10.5-1,15.8-1c64.8,0,129.6,0,194.3,0c4.8,6.3,9.6,12.6,14.5,18.9
		c-3.3,4.3-8.1,3.9-12.7,3.9c-15.9,0-31.9,0-47.8,0c-54.5,0-109,0-163.5,0C4575.2,5133,4575,5125.8,4574.9,5118.5z"/>
	<path class="st9" d="M5627.4,4983.8c2.7,34.4-8.4,64.1-29,89.6c-17.2,21.3-39.6,34.5-68.5,35.2c-40.8,1-67.2-20-86.9-53.1
		c-10.4-17.5-15.3-36.7-18.7-56.4c-1.1-6.5-1.3-13.4-0.5-19.9c2.8-22.4,6.3-44.6,18.2-64.6c10-16.9,22.2-31.2,38.7-42.1
		c20.4-13.5,42.7-15.7,65.1-10.4c26.8,6.3,48.1,21.8,61.9,46.6C5621,4932.4,5630.4,4956.9,5627.4,4983.8z"/>
	<path class="st17" d="M5485.6,4528.6c-0.9-1-1.4-2.2-1.3-3.6c2.4-0.1,4.8-0.2,7.1-0.3C5490.3,4527.1,5488.3,4528.4,5485.6,4528.6z"
		/>
</g>
</svg>
